<svg id="Layer_1" data-name="Layer 1" xmlns="http://www.w3.org/2000/svg" viewBox="0 0 126.01 123.84"><defs><style>.cls-1{fill:#82a816;}.cls-2{fill:#327208;}.cls-3{fill:#45a026;}.cls-4{fill:#f7941d;}.cls-5{fill:#ea0027;}.cls-6{fill:#b7001b;}.cls-7{fill:#f07500;}.cls-8{fill:#ea910f;}.cls-9{fill:#faa413;}.cls-10{fill:#ce0014;}.cls-11{fill:#9b5e27;}</style></defs><path class="cls-1" d="M31,80.82s13.22,9.69,9,26.07l-5.68.08S41.39,96.84,31,80.82Z"/><path class="cls-2" d="M48.9,82.5S37.17,93.48,38.3,107H44S39.81,99.09,48.9,82.5Z"/><path class="cls-3" d="M19.18,95.59S34.35,92.07,35.9,107H31S35.21,99.67,19.18,95.59Z"/><path class="cls-1" d="M43,80.82s13.21,9.69,9,26.07l-5.67.08S53.37,96.84,43,80.82Z"/><path class="cls-2" d="M60.87,82.5S49.15,93.48,50.28,107H56S51.79,99.09,60.87,82.5Z"/><path class="cls-3" d="M31.16,95.59S46.33,92.07,47.88,107H43S47.18,99.67,31.16,95.59Z"/><path class="cls-3" d="M46.62,38S44,8.34,15.22,13.75c0,0,27.9-2.63,29.36,25.65Z"/><path class="cls-3" d="M23.62,14s3.49-3.19-.42-6.09S8,7.9,3.84,12.23c0,0,7.79,9.69,17.78,9.48C21.62,21.71,29,21.19,23.62,14Z"/><path class="cls-3" d="M39.64,83.34s2.63-22,31.4-18c0,0-27.9-2-29.36,19.08Z"/><path class="cls-3" d="M63.67,65.41s-1.23-4.57,3.63-4.91,12.78,8.19,14,14.09c0,0-11.77,4-20.09-1.56C61.19,73,55.24,68.63,63.67,65.41Z"/><path class="cls-4" d="M54.28,66.42s4.16-21.86,1.5-23.58-3,3-3.26,7.17C52.18,54.58,51.89,60.53,54.28,66.42Z"/><path class="cls-5" d="M60.32,90.9S61,59.43,56.94,57.64s-3.43,4.91-2.89,10.77C54.64,74.86,55.62,83.23,60.32,90.9Z"/><path class="cls-6" d="M54.05,68.41c.59,6.45,1.57,14.82,6.27,22.49,0,0,0-.19,0-.52-4.49-11.5-4.58-31.45-4.58-33C53,57.32,53.57,63.19,54.05,68.41Z"/><path class="cls-2" d="M40.86,106C33.18,42.7,54.11,14.62,55,14.62c0,0-20.37,41.78-7.9,91.38Z"/><path class="cls-2" d="M44.28,52.3s-2.62-22-31.4-18c0,0,27.9-1.95,29.36,19.09Z"/><path class="cls-2" d="M41.39,53.71S44,24.09,72.79,29.5c0,0-27.9-2.63-29.37,25.65Z"/><path class="cls-2" d="M64.38,29.7s-3.48-3.2.42-6.1S80,23.65,84.17,28c0,0-7.79,9.69-17.78,9.48C66.39,37.46,59,36.94,64.38,29.7Z"/><path class="cls-2" d="M56.35,60.62c-1.15-4.45-3-7.12-5.54-7.92C47,51.47,42.77,55,42.73,55l-.68-.8c.19-.16,4.69-3.89,9.08-2.49,2.89.92,5,3.83,6.23,8.66Z"/><path class="cls-2" d="M55.71,56.2a5,5,0,0,1,3.36,4.29c.15,3.25-2.22-1.06-2.22-1.06s-.35,1.06-1.14,1.06c-1.07,0-.05-1.61-1-1.23s-.77,2.5-1.67,2.44S52.67,57.32,55.71,56.2Z"/><path class="cls-2" d="M54.87,44.86c-.28-3.18-1.24-5.21-2.85-6-2.46-1.26-5.72.63-5.75.66l-.54-.91c.15-.09,3.79-2.2,6.76-.68,2,1,3.11,3.32,3.43,6.88Z"/><path class="cls-2" d="M55.09,41.69a3.53,3.53,0,0,1,1.85,3.38c-.27,2.29-1.42-1-1.42-1s-.38.69-.93.6c-.74-.12.16-1.12-.52-1s-.82,1.66-1.45,1.51S52.85,42.12,55.09,41.69Z"/><path class="cls-5" d="M27.34,78.45S26.62,47,30.73,45.18,34.15,50.09,33.61,56C33,62.41,32,70.77,27.34,78.45Z"/><path class="cls-6" d="M33.61,56C33,62.41,32,70.77,27.34,78.45c0,0,0-.2,0-.53,4.49-11.5,4.57-31.44,4.57-33C34.68,44.87,34.09,50.73,33.61,56Z"/><path class="cls-2" d="M31.31,48.16l-1-.26c1.25-4.82,3.34-7.73,6.24-8.66,4.39-1.39,8.88,2.34,9.07,2.5l-.68.8s-4.25-3.52-8.08-2.3C34.33,41.05,32.46,43.72,31.31,48.16Z"/><path class="cls-2" d="M32,43.74A5,5,0,0,0,28.59,48C28.44,51.28,30.81,47,30.81,47S31.17,48,32,48c1.07,0,.05-1.61,1-1.23s.77,2.5,1.67,2.45S35,44.87,32,43.74Z"/><path class="cls-4" d="M21.71,58.36S21,26.89,25.1,25.1,28.53,30,28,35.87C27.4,42.33,26.42,50.69,21.71,58.36Z"/><path class="cls-7" d="M28,35.87c-.59,6.46-1.57,14.82-6.28,22.49,0,0,0-.19,0-.52,4.49-11.5,4.58-31.45,4.58-33C29.05,24.79,28.47,30.65,28,35.87Z"/><path class="cls-3" d="M25.69,28.08l-1-.26C25.92,23,28,20.08,30.91,19.16c4.39-1.4,8.88,2.33,9.07,2.49l-.67.8s-4.25-3.51-8.08-2.29C28.7,21,26.84,23.63,25.69,28.08Z"/><path class="cls-3" d="M26.33,23.66A5,5,0,0,0,23,28c-.14,3.25,2.22-1.06,2.22-1.06S25.54,28,26.33,28c1.07,0,0-1.61,1-1.23s.76,2.5,1.67,2.44S29.37,24.78,26.33,23.66Z"/><path class="cls-2" d="M20.26,34.38s1.22-4.57-3.63-4.91-12.78,8.18-14,14.08c0,0,11.77,4,20.08-1.55C22.73,42,28.69,37.6,20.26,34.38Z"/><path class="cls-8" d="M44.07,12.45s3.72,3.92,2.61,7.08-.89,8-2.63,9.59S38.33,16.27,44.07,12.45Z"/><path class="cls-9" d="M46.48,29.1a2,2,0,0,1-3.06-.92c-1-2.32.13-7.78,3.26-8.65a6.61,6.61,0,0,1,6.79,2.58c.55,1.15-3.18,1.74-4.95,1.26S49.1,27.15,46.48,29.1Z"/><path class="cls-9" d="M36.48,16.1s6.73,1,7.22,6.28.51,6.82-.68,7.44-5-1.74-5-7.55S33.55,17.22,36.48,16.1Z"/><path class="cls-2" d="M45.69,29.48s-1.32,3.09-3.5.38A2.89,2.89,0,0,1,45.69,29.48Z"/><path class="cls-2" d="M22.39,14.36s-3.53-3-10.46-2.52l0-.22c7-.47,10.6,2.55,10.64,2.58Z"/><path class="cls-2" d="M14.51,11.63C14.45,10.45,12.66,10,12.64,10l0-.2c.08,0,2,.5,2.06,1.85Z"/><path class="cls-2" d="M13,15.08l0-.21a3.69,3.69,0,0,0,3.18-3l.23,0A3.9,3.9,0,0,1,13,15.08Z"/><path class="cls-2" d="M19,12.51l-.22,0a3.12,3.12,0,0,0-1.19-3l.15-.16S19.48,10.7,19,12.51Z"/><path class="cls-2" d="M18,15.47l0-.22C20.28,15,20.2,13.1,20.19,13h.24A2.44,2.44,0,0,1,18,15.47Z"/><path class="cls-2" d="M18.79,10.91l-.11-.19c.81-.38.62-1.53.62-1.54l.23,0C19.53,9.21,19.74,10.47,18.79,10.91Z"/><path class="cls-2" d="M19.14,17.5,19,17.35a1.78,1.78,0,0,0,.4-2.47l.18-.13A2,2,0,0,1,19.14,17.5Z"/><path class="cls-2" d="M14.1,14a1.64,1.64,0,0,1-1-.45l.17-.13a1.93,1.93,0,0,0,2,.25l.08.2A2.84,2.84,0,0,1,14.1,14Z"/><path class="cls-2" d="M13.62,10.3l-.18-.14a.54.54,0,0,0,.16-.43,1.19,1.19,0,0,0-.41-.64l.15-.16a1.38,1.38,0,0,1,.49.78A.76.76,0,0,1,13.62,10.3Z"/><path class="cls-3" d="M19.25,36.13c-.05,0-4.62-.15-9.76,4.54l-.15-.15c5.22-4.76,9.89-4.61,9.93-4.61Z"/><path class="cls-3" d="M11.39,38.9c-.78-.89-2.47-.12-2.49-.12l-.09-.19c.08,0,1.87-.84,2.76.16Z"/><path class="cls-3" d="M12.36,42.53l-.15-.14a3.71,3.71,0,0,0,.63-4.32L13,38A3.9,3.9,0,0,1,12.36,42.53Z"/><path class="cls-3" d="M15.45,36.8l-.21.09a3.12,3.12,0,0,0-2.76-1.56v-.22A3.32,3.32,0,0,1,15.45,36.8Z"/><path class="cls-3" d="M16.48,39.75l-.16-.15a2.18,2.18,0,0,0,.38-3.14l.17-.16A2.43,2.43,0,0,1,16.48,39.75Z"/><path class="cls-3" d="M14.29,35.68l-.21-.09c.4-.79-.46-1.58-.47-1.58l.16-.17S14.75,34.74,14.29,35.68Z"/><path class="cls-3" d="M18.66,40.61l-.22,0a1.78,1.78,0,0,0-1.23-2.17l.06-.21A2,2,0,0,1,18.66,40.61Z"/><path class="cls-3" d="M12.55,41a1.8,1.8,0,0,1-1,.25l.05-.21A2,2,0,0,0,13.3,40l.18.11A2.82,2.82,0,0,1,12.55,41Z"/><path class="cls-3" d="M9.86,38.42H9.63A.54.54,0,0,0,9.49,38a1.16,1.16,0,0,0-.71-.24v-.22a1.37,1.37,0,0,1,.87.31A.72.72,0,0,1,9.86,38.42Z"/><path class="cls-3" d="M66.15,29.53s4.18-2,10.76.23l.08-.2C70.3,27.3,66.08,29.32,66,29.34Z"/><path class="cls-3" d="M74.46,28.9c.36-1.13,2.22-1.11,2.24-1.11v-.21c-.09,0-2,0-2.46,1.26Z"/><path class="cls-3" d="M75,32.62l.09-.2a3.69,3.69,0,0,1-2.32-3.69l-.22,0A3.89,3.89,0,0,0,75,32.62Z"/><path class="cls-3" d="M69.9,28.61h.23A3.09,3.09,0,0,1,72,26.07l-.1-.2S69.9,26.74,69.9,28.61Z"/><path class="cls-3" d="M70.15,31.73l.08-.2a2.19,2.19,0,0,1-1.61-2.73l-.22-.07A2.43,2.43,0,0,0,70.15,31.73Z"/><path class="cls-3" d="M70.51,27.11l.16-.15c-.68-.57-.21-1.64-.21-1.65l-.21-.08C70.23,25.28,69.71,26.44,70.51,27.11Z"/><path class="cls-3" d="M68.49,33.39l.2-.1a1.8,1.8,0,0,1,.25-2.49l-.14-.17A2,2,0,0,0,68.49,33.39Z"/><path class="cls-3" d="M74.25,31.31a1.71,1.71,0,0,0,1-.19l-.13-.18a1.89,1.89,0,0,1-2-.27l-.12.18A2.79,2.79,0,0,0,74.25,31.31Z"/><path class="cls-3" d="M75.67,27.84l.21-.09a.49.49,0,0,1,0-.45,1.05,1.05,0,0,1,.55-.51l-.1-.2a1.36,1.36,0,0,0-.67.63A.72.72,0,0,0,75.67,27.84Z"/><path class="cls-2" d="M65.61,65.58s4.61.32,9.25,5.5l.16-.14c-4.71-5.26-9.37-5.58-9.42-5.58Z"/><path class="cls-2" d="M73.15,69.13c.87-.81,2.47.12,2.49.13l.11-.19c-.08,0-1.77-1-2.76-.11Z"/><path class="cls-2" d="M71.82,72.64l.17-.13a3.69,3.69,0,0,1-.2-4.35L71.61,68A3.9,3.9,0,0,0,71.82,72.64Z"/><path class="cls-2" d="M69.32,66.62l.2.12a3.13,3.13,0,0,1,2.91-1.28v-.22A3.34,3.34,0,0,0,69.32,66.62Z"/><path class="cls-2" d="M68,69.46l.18-.13a2.19,2.19,0,0,1-.07-3.17L68,66A2.44,2.44,0,0,0,68,69.46Z"/><path class="cls-2" d="M70.59,65.62l.21-.06c-.31-.83.63-1.52.64-1.53l-.15-.18S70.23,64.65,70.59,65.62Z"/><path class="cls-2" d="M65.74,70.1H66a1.78,1.78,0,0,1,1.44-2l0-.21A2,2,0,0,0,65.74,70.1Z"/><path class="cls-2" d="M71.78,71.11a1.78,1.78,0,0,0,1,.36l0-.22s-1,0-1.62-1.22l-.19.09A2.86,2.86,0,0,0,71.78,71.11Z"/><path class="cls-2" d="M74.72,68.8l.23,0a.52.52,0,0,1,.18-.42,1.16,1.16,0,0,1,.74-.17V68a1.34,1.34,0,0,0-.89.22A.75.75,0,0,0,74.72,68.8Z"/><path class="cls-2" d="M52,16.56s-3,2.16-4.59-1.28,2.4-11.6,6.37-14.11c0,0,6.19,7.46,4.47,15.06C58.25,16.23,56.71,21.8,52,16.56Z"/><path class="cls-8" d="M68.13,8s-1.1,5.3-4.33,6.18S56.72,18,54.42,17.52,61.73,5.5,68.13,8Z"/><path class="cls-9" d="M55.82,19.51a2,2,0,0,1-1-3.05c1.36-2.1,6.47-4.32,9-2.25a6.59,6.59,0,0,1,1.75,7.05c-.64,1.12-3.24-1.61-3.86-3.35S58.91,20.54,55.82,19.51Z"/><path class="cls-9" d="M60.81,3.88s3,6.08-1.05,9.5-5.32,4.32-6.5,3.69S51.84,12,56.61,8.65,58.22,2.11,60.81,3.88Z"/><path class="cls-2" d="M55.05,19.07s-3.29.67-2.3-2.66A2.87,2.87,0,0,1,55.05,19.07Z"/><path class="cls-5" d="M95.56,43.73a6.16,6.16,0,1,0,12.31-.14c0-3.43-2.81-4.81-6.21-4.77S95.52,40.3,95.56,43.73Z"/><path class="cls-6" d="M99.06,40.27c0,.35,1.16.62,2.57.6s1.75-.15,1.74-.51,1.79-.55-.3-1C101.69,39,99.06,39.92,99.06,40.27Z"/><path class="cls-1" d="M102.35,40.07a2.7,2.7,0,0,1,1.9-1.77c1.45-.28-1.82-.34-2.29,1.4,0,0,0-1.79-1.42-2,0,0,1.29,1.32.79,2.22a3.25,3.25,0,0,0-3.26-1.41s2.5.44,2.78,1.66A2.69,2.69,0,0,0,98.1,41a8.15,8.15,0,0,1,3.12-.38c1.5.18-1.39,1.41-.45,2.79,0,0-.11-.63.93-1.5s.59-1.15.49-1.36,1.26-.2,1.39.78.37,1.09.37,1.09S104.75,40,102.35,40.07Z"/><path class="cls-1" d="M101.67,40.19s-.49-2.37-2.14-2.71l-.16.27a3.61,3.61,0,0,1,2,2.44Z"/><path class="cls-1" d="M101.41,39.74c-1.39-11-9.77-11.28-10.13-11.32v-.59h0c.53,0,9.27.62,10.68,11.83Z"/><path class="cls-6" d="M102.8,43.08a4.58,4.58,0,1,0,9.1-1c-.28-2.53-2.43-3.34-5-3.06S102.52,40.54,102.8,43.08Z"/><path class="cls-6" d="M105.13,40.25c0,.27.91.38,2,.26s1.27-.25,1.25-.51,1.28-.54-.3-.73C107,39.15,105.11,40,105.13,40.25Z"/><path class="cls-1" d="M107.56,39.86a2,2,0,0,1,1.27-1.45c1-.32-1.37-.12-1.59,1.21,0,0-.11-1.33-1.19-1.35,0,0,1,.87.75,1.58a2.44,2.44,0,0,0-2.52-.8s1.88.14,2.18,1a2,2,0,0,0-2,.81,6.09,6.09,0,0,1,2.28-.52c1.12,0-.92,1.15-.13,2.1,0,0-.12-.46.58-1.18s.35-.9.26-1,.92-.24,1.09.47.35.78.35.78S109.33,39.65,107.56,39.86Z"/><path class="cls-1" d="M107.07,40s-.54-1.72-1.79-1.85l-.1.22A2.68,2.68,0,0,1,106.84,40Z"/><path class="cls-1" d="M106.77,39.71c-1.83-8-8.2-7.57-8.26-7.56l0-.59c.07,0,6.93-.44,8.86,8Z"/><path class="cls-3" d="M90.91,27.15s12.38-5.06,16.21,3.84c0,0-8-8-17.8-.29Z"/><path class="cls-3" d="M103.94,26.27s4.79-.67,6.93,1.93a1.31,1.31,0,0,0-1.51.17c-.75.64,7,2.28,7.91,4.74,0,0-2.41-.85-3.31-.38,0,0,8,3.55,8.36,6.61,0,0-7.25-5.37-9.42-4.67A9.66,9.66,0,0,0,117,37.32a11.79,11.79,0,0,1-7.5-3.79,2.26,2.26,0,0,0,.52,3S99.12,30.32,103.94,26.27Z"/><path class="cls-3" d="M101.22,26.87s1.49-2.67,3.59-2.76a.83.83,0,0,0-.49.82c0,.63,3.77-2.63,5.35-2.18,0,0-1.33.88-1.45,1.52,0,0,4.79-2.67,6.46-1.71,0,0-5.42,1.61-5.89,3a6.11,6.11,0,0,0,2.87-1.07,7.42,7.42,0,0,1-4.72,2.34,1.39,1.39,0,0,0,1.71.89S101.39,30.83,101.22,26.87Z"/><path class="cls-3" d="M102.8,26.7s2,2.27,1.45,4.32a.83.83,0,0,0-.62-.74c-.59-.17,1.28,4.44.35,5.81,0,0-.41-1.56-1-1.87,0,0,1,5.43-.45,6.71,0,0,.21-5.68-.91-6.57a6,6,0,0,0,.09,3.08,7.54,7.54,0,0,1-.71-5.25,1.4,1.4,0,0,0-1.38,1.35S99,25.61,102.8,26.7Z"/><path class="cls-5" d="M87.63,45.75A5.87,5.87,0,1,1,76,47c-.33-3.25,2.15-4.86,5.37-5.19S87.31,42.5,87.63,45.75Z"/><path class="cls-6" d="M84,42.85c0,.33-1,.72-2.37.85s-1.67,0-1.7-.29-1.75-.34.17-1C81.33,42,83.91,42.51,84,42.85Z"/><path class="cls-1" d="M80.81,43a2.56,2.56,0,0,0-2-1.47c-1.4-.11,1.69-.52,2.32,1.07,0,0-.22-1.68,1.14-2,0,0-1.09,1.38-.53,2.18a3.11,3.11,0,0,1,2.94-1.68s-2.32.68-2.45,1.86a2.59,2.59,0,0,1,2.69.48,7.8,7.8,0,0,0-3,0c-1.4.33,1.45,1.18.72,2.59,0,0,0-.61-1-1.32s-.68-1-.61-1.23-1.21,0-1.23.88-.24,1.08-.24,1.08S78.54,43.24,80.81,43Z"/><path class="cls-1" d="M81.46,43.05s.22-2.29,1.75-2.79l.18.23A3.51,3.51,0,0,0,81.76,43Z"/><path class="cls-3" d="M90,41.6s-11-7.59-16.66.28c0,0,9.55-6.11,17.46,3.53Z"/><path class="cls-3" d="M77.4,38s-4.53-1.68-7.18.41a1.3,1.3,0,0,1,1.44.49c.6.78-7.27.75-8.72,2.94,0,0,2.52-.32,3.31.33,0,0-8.53,1.77-9.57,4.67,0,0,8.21-3.69,10.19-2.56A9.48,9.48,0,0,1,62.28,46a11.85,11.85,0,0,0,8.14-2.1,2.26,2.26,0,0,1-1.16,2.87S81.26,42.94,77.4,38Z"/><path class="cls-3" d="M79.94,39.11s-.89-2.92-2.93-3.46a.83.83,0,0,1,.3.92c-.16.6-3.12-3.39-4.76-3.28,0,0,1.12,1.14,1.09,1.79,0,0-4.11-3.63-5.94-3,0,0,5,2.74,5.12,4.17a6,6,0,0,1-2.58-1.67,7.42,7.42,0,0,0,4.12,3.3,1.39,1.39,0,0,1-1.86.51S78.93,43,79.94,39.11Z"/><path class="cls-3" d="M78.42,38.62S76,40.4,76.09,42.52a.82.82,0,0,1,.77-.58c.61,0-2.19,4.06-1.58,5.6,0,0,.73-1.44,1.34-1.62,0,0-2.1,5.09-1,6.65,0,0,1-5.6,2.29-6.23a6.14,6.14,0,0,1-.73,3,7.55,7.55,0,0,0,1.79-5A1.4,1.4,0,0,1,80.05,46S82.35,38.36,78.42,38.62Z"/><path class="cls-1" d="M90.52,73.55s7.46-11.18,15.58-6c0,0-11.1-2.1-14.93,9.81Z"/><path class="cls-1" d="M100.85,65.46s3.59-3.26,6.82-2.31a1.31,1.31,0,0,0-1.16,1c-.27,1,7-2,9.18-.54,0,0-2.46.65-3,1.55,0,0,8.58-1.55,10.6.75,0,0-9-.35-10.41,1.45a9.54,9.54,0,0,0,4.89-.13,11.81,11.81,0,0,1-8.32,1.1,2.23,2.23,0,0,0,2.12,2.23S99.09,71.53,100.85,65.46Z"/><path class="cls-1" d="M98.92,67.49s-.25-3,1.45-4.31a.82.82,0,0,0,0,1c.37.5,1.67-4.32,3.23-4.84,0,0-.62,1.5-.36,2.08,0,0,2.5-4.9,4.41-5.05,0,0-3.6,4.39-3.24,5.78a6,6,0,0,0,1.79-2.5,7.53,7.53,0,0,1-2.62,4.6,1.38,1.38,0,0,0,1.91-.22S101.26,70.67,98.92,67.49Z"/><path class="cls-1" d="M100.14,66.46s3,.73,3.59,2.75a.82.82,0,0,0-.92-.25c-.59.19,3.53,3,3.51,4.6,0,0-1.2-1.06-1.83-1,0,0,3.81,3.93,3.34,5.81,0,0-3-4.83-4.41-4.93A6.13,6.13,0,0,0,105.21,76a7.51,7.51,0,0,1-3.5-4,1.41,1.41,0,0,0-.39,1.9S96.39,67.7,100.14,66.46Z"/><path class="cls-1" d="M98.14,81.69c-.22-8.16-6.27-8.94-6.36-9l.07-.58h0c.39.06,6.63,1.07,6.86,9.52Z"/><path class="cls-5" d="M86.72,56.07A4.36,4.36,0,1,1,78,57c-.25-2.42,1.6-3.61,4-3.86S86.48,53.65,86.72,56.07Z"/><path class="cls-6" d="M84,53.91c0,.25-.76.53-1.77.63s-1.23,0-1.26-.21-1.3-.25.13-.75C82,53.26,84,53.66,84,53.91Z"/><path class="cls-1" d="M81.65,54A1.91,1.91,0,0,0,80.17,53c-1-.09,1.26-.4,1.73.79,0,0-.17-1.25.84-1.5,0,0-.8,1-.39,1.63a2.32,2.32,0,0,1,2.19-1.25s-1.73.5-1.83,1.39a1.91,1.91,0,0,1,2,.35,5.68,5.68,0,0,0-2.23,0c-1,.25,1.09.88.54,1.93,0,0,0-.46-.78-1s-.5-.77-.45-.92-.9,0-.92.66-.18.8-.18.8S80,54.21,81.65,54Z"/><path class="cls-1" d="M82.13,54.07s.17-1.71,1.3-2.08l.13.17A2.6,2.6,0,0,0,82.35,54Z"/><path class="cls-1" d="M81.84,54.38c.17-11.6,9.23-13,9.33-13l.08.58c-.36.05-8.66,1.33-8.82,12.41Z"/><path class="cls-6" d="M81.41,57.85a4.58,4.58,0,1,1-9.15,0c0-2.54,2-3.6,4.58-3.6S81.41,55.31,81.41,57.85Z"/><path class="cls-6" d="M78.78,55.32c0,.26-.86.47-1.91.47s-1.29-.1-1.3-.36-1.33-.4.22-.76C76.82,54.43,78.78,55.06,78.78,55.32Z"/><path class="cls-1" d="M76.33,55.2a2,2,0,0,0-1.42-1.29c-1.09-.2,1.35-.28,1.71,1,0,0,0-1.32,1-1.47,0,0-1,1-.57,1.66A2.42,2.42,0,0,1,79.5,54s-1.85.35-2,1.26a2,2,0,0,1,2,.58,6,6,0,0,0-2.33-.25c-1.1.15,1,1,.37,2.07,0,0,.07-.47-.71-1.11s-.45-.85-.37-1-.94-.14-1,.59-.27.82-.27.82S74.54,55.2,76.33,55.2Z"/><path class="cls-1" d="M76.83,55.28s.35-1.76,1.57-2l.13.19a2.77,2.77,0,0,0-1.47,1.84Z"/><path class="cls-1" d="M77.1,55l-.58-.07c1-8.62,7.85-9,7.93-9l0,.6C84.2,46.52,78,46.85,77.1,55Z"/><path class="cls-1" d="M90,58.67s-13.13-2.41-15.1,7.09c0,0,6.25-9.49,17.37-4Z"/><path class="cls-1" d="M77.05,60.49s-4.82.32-6.39,3.32a1.29,1.29,0,0,1,1.51-.14c.87.47-6.34,3.67-6.78,6.26,0,0,2.18-1.33,3.15-1.06,0,0-7.07,5.13-6.85,8.2,0,0,6-6.75,8.28-6.52A9.69,9.69,0,0,1,66.47,74a11.86,11.86,0,0,0,6.58-5.25,2.25,2.25,0,0,1,.1,3.09S82.59,63.46,77.05,60.49Z"/><path class="cls-1" d="M79.84,60.51s-2-2.3-4.08-2a.82.82,0,0,1,.65.71c.1.61-4.22-1.81-5.68-1,0,0,1.49.59,1.73,1.19,0,0-5.23-1.62-6.66-.34,0,0,5.62.47,6.36,1.7a6,6,0,0,1-3-.46,7.4,7.4,0,0,0,5.1,1.32,1.41,1.41,0,0,1-1.49,1.23S80.47,64.43,79.84,60.51Z"/><path class="cls-1" d="M78.25,60.68s-1.53,2.64-.55,4.52a.82.82,0,0,1,.47-.84c.54-.3-.36,4.6.82,5.75,0,0,.08-1.61.57-2,0,0,.13,5.51,1.8,6.47,0,0-1.35-5.52-.43-6.63a6.14,6.14,0,0,1,.53,3,7.55,7.55,0,0,0-.37-5.29,1.38,1.38,0,0,1,1.63,1S81.74,58.83,78.25,60.68Z"/><path class="cls-5" d="M91.63,82.87a6.16,6.16,0,1,0,12.31-.17c0-3.43-2.81-4.8-6.21-4.75S91.6,79.44,91.63,82.87Z"/><path class="cls-6" d="M95.13,79.4c0,.35,1.16.62,2.58.6s1.74-.17,1.74-.51,1.78-.57-.3-1C97.76,78.16,95.13,79.05,95.13,79.4Z"/><path class="cls-1" d="M98.42,79.2a2.68,2.68,0,0,1,1.9-1.78c1.45-.29-1.82-.34-2.29,1.4,0,0,0-1.78-1.42-2,0,0,1.29,1.31.79,2.22a3.23,3.23,0,0,0-3.26-1.4s2.5.43,2.78,1.64a2.72,2.72,0,0,0-2.75.83,8.28,8.28,0,0,1,3.12-.39c1.5.18-1.38,1.41-.45,2.79,0,0-.1-.63.93-1.5s.59-1.16.49-1.37,1.26-.19,1.39.78.38,1.09.38,1.09S100.82,79.15,98.42,79.2Z"/><path class="cls-1" d="M97.75,79.32s-.5-2.37-2.15-2.71l-.16.27a3.64,3.64,0,0,1,2,2.44Z"/><path class="cls-2" d="M99.2,16.84S87.35,20.4,88.54,32.24s1.63,32-2.48,48.55-2.5,24.39-1.37,29l7.22-.68s-7.47-.35,0-35.83c1.25-6,1.37-16.86,1-24.7C92.26,37.34,86.82,23.37,99.2,16.84Z"/><path class="cls-1" d="M73.68,89.8s13.21,9.69,9,26.07L77,116S84.08,105.83,73.68,89.8Z"/><path class="cls-2" d="M91.59,91.49S79.86,102.46,81,116h5.72S82.5,108.07,91.59,91.49Z"/><path class="cls-3" d="M61.87,104.57S77,101.06,78.59,116H73.68S77.9,108.66,61.87,104.57Z"/><path class="cls-1" d="M85.66,89.8s13.21,9.69,9,26.07L89,116S96.06,105.83,85.66,89.8Z"/><path class="cls-2" d="M103.56,91.49S91.84,102.46,93,116h5.71S94.48,108.07,103.56,91.49Z"/><path class="cls-3" d="M73.85,104.57S89,101.06,90.57,116H85.66S89.87,108.66,73.85,104.57Z"/><path class="cls-1" d="M77.07,90s13.22,9.69,9,26.08l-5.68.08S87.47,106,77.07,90Z"/><path class="cls-2" d="M95,91.69s-11.72,11-10.6,24.47H90.1S85.89,108.28,95,91.69Z"/><path class="cls-3" d="M65.26,104.77S80.43,101.26,82,116.16H77.07S81.29,108.86,65.26,104.77Z"/><path class="cls-1" d="M89.05,90s13.21,9.69,9,26.08l-5.68.08S99.45,106,89.05,90Z"/><path class="cls-2" d="M107,91.69s-11.72,11-10.6,24.47h5.72S97.87,108.28,107,91.69Z"/><path class="cls-3" d="M77.24,104.77S92.41,101.26,94,116.16H89.05S93.27,108.86,77.24,104.77Z"/><path class="cls-5" d="M85.86,107.08A13.95,13.95,0,1,1,58,106.43c.18-7.71,6.5-10.73,14.2-10.55S86,99.38,85.86,107.08Z"/><path class="cls-10" d="M78,99.21c0,.79-2.65,1.36-5.86,1.29s-3.94-.4-3.92-1.19S64.21,98,69,97C72.1,96.36,78,98.42,78,99.21Z"/><path class="cls-1" d="M70.57,98.68a6,6,0,0,0-4.25-4c-3.28-.69,4.14-.73,5.15,3.19,0,0,0-4,3.28-4.37,0,0-3,2.91-1.87,5,0,0,2.79-4.16,7.43-3.06,0,0-5.68.91-6.34,3.64,0,0,4.09-1.06,6.21,1.9a18.75,18.75,0,0,0-7.06-.93c-3.39.36,3.11,3.2.95,6.29,0,0,.25-1.43-2.06-3.41s-1.32-2.61-1.08-3.07-2.85-.48-3.18,1.71-.88,2.45-.88,2.45S65.13,98.52,70.57,98.68Z"/><path class="cls-11" d="M72.1,99s1.18-5.32,4.94-6l.35.61A8.19,8.19,0,0,0,72.81,99Z"/><path class="cls-10" d="M83.27,99.79a13,13,0,0,1,.51,3.13c.27,7.75-6.48,14.27-15.08,14.57a16.92,16.92,0,0,1-7-1.22,13.95,13.95,0,0,0,24.14-9.19A9.81,9.81,0,0,0,83.27,99.79Z"/><path class="cls-5" d="M124.14,105.41a10.2,10.2,0,1,1-20.39-.48c.13-5.63,4.75-7.84,10.38-7.7S124.27,99.78,124.14,105.41Z"/><path class="cls-10" d="M118.41,99.65c0,.58-1.93,1-4.28.95s-2.88-.29-2.87-.87-3-1,.52-1.67C114.08,97.58,118.42,99.08,118.41,99.65Z"/><path class="cls-1" d="M113,99.27a4.43,4.43,0,0,0-3.11-3c-2.39-.5,3-.53,3.76,2.34,0,0,0-2.93,2.41-3.2,0,0-2.17,2.13-1.37,3.62,0,0,2-3,5.43-2.24,0,0-4.15.67-4.64,2.67,0,0,3-.78,4.55,1.39a13.61,13.61,0,0,0-5.17-.68c-2.48.26,2.28,2.34.7,4.59,0,0,.18-1-1.51-2.49s-1-1.91-.79-2.25-2.08-.34-2.32,1.26-.64,1.79-.64,1.79S109,99.16,113,99.27Z"/><path class="cls-11" d="M114.08,99.47s.86-3.88,3.61-4.41l.25.45a6,6,0,0,0-3.35,4Z"/><path class="cls-10" d="M122.24,100.08a9.21,9.21,0,0,1,.37,2.29c.2,5.66-4.73,10.43-11,10.65a12.27,12.27,0,0,1-5.1-.89,10.2,10.2,0,0,0,17.65-6.72A7.16,7.16,0,0,0,122.24,100.08Z"/><path class="cls-7" d="M77.92,113.26s-.72-6.54,4.33-5.56,14.91,12.1,37.56,7.74c0,0-6.23,9.07-27.51,6.21S77.92,113.26,77.92,113.26Z"/><path class="cls-4" d="M119.81,115.44c-22.65,4.36-32.51-6.76-37.56-7.74s-4.33,5.56-4.33,5.56a2.37,2.37,0,0,0-.29.28c2.27,1.68,7.09,3.43,16.72,4.72,11.53,1.55,19.38.18,24.52-1.79A8,8,0,0,0,119.81,115.44Z"/><path class="cls-2" d="M73.89,104.93s-.13,5.16,2,6.74,1.24-1.28,1.24-1.28-2.91-2.22-1.52-7.86C75.8,101.54,73.89,104.93,73.89,104.93Z"/><path class="cls-2" d="M75.84,111.67s-.23,3.28,1,4.59,1.12-2.65,2.6-2.45,2.9-3.35,1.07-4.13,1.23-1.62,1.25-2.05c0-1.09-2.41-.17-4.87.84s-1,2.59-1,2.59Z"/><path class="cls-6" d="M6.88,100.1S6.4,92,12.59,93.48s17.72,15.93,46.06,11.94c0,0-8.28,10.85-34.47,6S6.88,100.1,6.88,100.1Z"/><path class="cls-5" d="M58.65,105.42c-28.34,4-39.85-10.4-46.06-11.94s-5.71,6.62-5.71,6.62a3.26,3.26,0,0,0-.38.33c2.71,2.23,8.58,4.7,20.43,6.9,14.19,2.64,24,1.43,30.49-.68A9.15,9.15,0,0,0,58.65,105.42Z"/><path class="cls-2" d="M2.41,89.52s-.48,6.39,2,8.48S6,96.49,6,96.49s-3.48-2.93-1.4-9.83C5,85.45,2.41,89.52,2.41,89.52Z"/><path class="cls-2" d="M4.4,98s-.48,4,1,5.76,1.56-3.21,3.37-2.88,3.81-4,1.59-5S12,93.9,12.05,93.37c.1-1.34-3-.36-6.08.73s-1.34,3.15-1.34,3.15Z"/></svg>