<svg id="Layer_1" data-name="Layer 1" xmlns="http://www.w3.org/2000/svg" viewBox="0 0 164.88 112.65"><defs><style>.cls-1{fill:#327208;}.cls-2{fill:#faa413;}.cls-3{fill:#f07500;}.cls-4{fill:#82a816;}.cls-5{fill:#799611;}.cls-6{fill:#894f28;}.cls-7{opacity:0.2;}.cls-8{fill:#a3b0aa;}.cls-9{fill:#f3e8d6;}.cls-10{fill:#f7b2a0;}.cls-11{fill:#429ad1;}.cls-12{fill:#fbc6b4;}.cls-13{fill:#323056;}.cls-14{fill:#b658cc;}.cls-15{fill:#fff;}.cls-16{fill:#48a2e5;}.cls-17{fill:#d6edff;}</style></defs><g id="Layer_1-2" data-name="Layer 1"><path class="cls-1" d="M42.21,21.7S73.4,20.84,73.3,63.37l.1,41.33-6.34.5S83.72,28.53,42.21,21.7Z"/><path class="cls-1" d="M108.28,24.44S77.31,20.62,73.36,63l-4,41.12,6.28,1.11S66.31,27.3,108.28,24.44Z"/><path class="cls-1" d="M48.45,49.61s20.1,3.93,22.33,15.17S79.06,44,48.45,49.61Z"/><path class="cls-1" d="M103.94,39.16S86.13,36,81.69,46.54,75.06,27.54,103.94,39.16Z"/><path class="cls-2" d="M72,18.31s2.86-14.12,7.34-12S82,19.68,80.93,22s-4.46,11.46-7,10.93S70.64,21.41,72,18.31Z"/><path class="cls-3" d="M75.41,8.39s-.79.09-.7.54.82.8,1,.15S75.41,8.39,75.41,8.39Z"/><path class="cls-3" d="M76.17,9.17s-.77.17-.64.61.89.72,1,.05S76.17,9.17,76.17,9.17Z"/><path class="cls-3" d="M77.1,9.78s-.7.38-.45.76,1,.45,1-.23S77.1,9.78,77.1,9.78Z"/><path class="cls-3" d="M78.23,10.05s-.66.43-.38.79,1.09.35.94-.31S78.23,10.05,78.23,10.05Z"/><path class="cls-3" d="M79.36,10.2s-.59.52-.26.84,1.13.19.88-.44S79.36,10.2,79.36,10.2Z"/><path class="cls-3" d="M80.25,10.26s-.3.73.14.87,1.09-.32.59-.78S80.25,10.26,80.25,10.26Z"/><path class="cls-3" d="M81.34,9.85s-.25.75.2.85,1.07-.39.54-.82S81.34,9.85,81.34,9.85Z"/><path class="cls-3" d="M76.46,7.65s-.77.16-.64.6.88.73,1,.05S76.46,7.65,76.46,7.65Z"/><path class="cls-3" d="M77.38,8.25s-.7.37-.44.76,1,.45,1-.22S77.38,8.25,77.38,8.25Z"/><path class="cls-3" d="M78.52,8.52s-.67.43-.38.79,1.09.36.94-.31S78.52,8.52,78.52,8.52Z"/><path class="cls-3" d="M79.65,8.67s-.59.52-.26.84,1.12.19.88-.44S79.65,8.67,79.65,8.67Z"/><path class="cls-3" d="M80.54,8.73s-.3.74.13.87,1.1-.32.6-.78S80.54,8.73,80.54,8.73Z"/><path class="cls-3" d="M76.92,6.51c-.24,0-.84.25-.72.65s.77.44.89-.18C77.18,6.53,77.05,6.5,76.92,6.51Z"/><path class="cls-3" d="M80.67,7.14c.22.1.74.49.5.83s-.87.19-.8-.43C80.42,7.09,80.56,7.1,80.67,7.14Z"/><path class="cls-3" d="M77.62,6.93s-.64.35-.41.7,1,.41.88-.21S77.62,6.93,77.62,6.93Z"/><path class="cls-3" d="M78.66,7.17s-.61.41-.35.74,1,.32.86-.29S78.66,7.17,78.66,7.17Z"/><path class="cls-3" d="M79.69,7.32s-.54.48-.24.76,1,.18.81-.39S79.69,7.32,79.69,7.32Z"/><path class="cls-3" d="M78.27,6s-.71.15-.59.55.81.67.9,0S78.27,6,78.27,6Z"/><path class="cls-3" d="M79,6.27s-.27.67.13.8,1-.3.55-.72S79,6.27,79,6.27Z"/><path class="cls-3" d="M75.29,9.7s-.82-.21-.9.27.5,1.11.92.52S75.29,9.7,75.29,9.7Z"/><path class="cls-3" d="M75.76,10.52s-.82.17-.68.64.94.78,1,.06S75.76,10.52,75.76,10.52Z"/><path class="cls-3" d="M76.74,11.16s-.74.41-.47.81,1.12.48,1-.24S76.74,11.16,76.74,11.16Z"/><path class="cls-3" d="M78,11.45s-.71.46-.4.84,1.16.38,1-.33S78,11.45,78,11.45Z"/><path class="cls-3" d="M79.15,11.61s-.63.56-.27.9,1.2.2.94-.47S79.15,11.61,79.15,11.61Z"/><path class="cls-3" d="M80.1,11.68s-.32.78.14.92,1.18-.34.65-.83S80.1,11.68,80.1,11.68Z"/><path class="cls-3" d="M81.18,11.23s-.08.84.41.85,1-.67.37-1S81.18,11.23,81.18,11.23Z"/><path class="cls-3" d="M74.72,11.06s-.9-.23-1,.3.55,1.22,1,.57S74.72,11.06,74.72,11.06Z"/><path class="cls-3" d="M75.23,12s-.9.19-.75.7,1,.86,1.16.07S75.23,12,75.23,12Z"/><path class="cls-3" d="M76.31,12.67s-.82.44-.52.89,1.23.52,1.12-.26S76.31,12.67,76.31,12.67Z"/><path class="cls-3" d="M77.64,13s-.78.51-.44.93,1.27.41,1.09-.36S77.64,13,77.64,13Z"/><path class="cls-3" d="M79,13.16s-.7.61-.31,1,1.32.23,1-.51S79,13.16,79,13.16Z"/><path class="cls-3" d="M80,13.23s-.35.86.16,1,1.28-.38.7-.92S80,13.23,80,13.23Z"/><path class="cls-3" d="M81.18,12.74s-.09.92.45.93,1.12-.73.41-1.08S81.18,12.74,81.18,12.74Z"/><path class="cls-3" d="M74.2,12.58s-1-.25-1,.32.59,1.3,1.07.6S74.2,12.58,74.2,12.58Z"/><path class="cls-3" d="M74.76,13.54s-1,.2-.8.75,1.09.9,1.22.07S74.76,13.54,74.76,13.54Z"/><path class="cls-3" d="M75.9,14.29s-.87.47-.55.94,1.3.56,1.19-.27S75.9,14.29,75.9,14.29Z"/><path class="cls-3" d="M77.31,14.62s-.83.55-.47,1,1.36.44,1.17-.38S77.31,14.62,77.31,14.62Z"/><path class="cls-3" d="M78.72,14.81s-.74.65-.32,1,1.4.24,1.09-.55S78.72,14.81,78.72,14.81Z"/><path class="cls-3" d="M79.82,14.89s-.37.91.17,1.08,1.37-.4.75-1S79.82,14.89,79.82,14.89Z"/><path class="cls-3" d="M81.09,14.36s-.1,1,.47,1,1.19-.77.44-1.14S81.09,14.36,81.09,14.36Z"/><path class="cls-3" d="M73.44,14s-1.08-.27-1.18.36.66,1.47,1.21.68S73.44,14,73.44,14Z"/><path class="cls-3" d="M74.07,15s-1.09.23-.91.84,1.25,1,1.39.08S74.07,15,74.07,15Z"/><path class="cls-3" d="M75.37,15.89s-1,.53-.64,1.07,1.49.63,1.36-.32S75.37,15.89,75.37,15.89Z"/><path class="cls-3" d="M77,16.26s-.93.62-.53,1.13,1.54.49,1.32-.44S77,16.26,77,16.26Z"/><path class="cls-3" d="M78.56,16.47s-.84.75-.37,1.19,1.59.27,1.24-.62S78.56,16.47,78.56,16.47Z"/><path class="cls-3" d="M79.81,16.57s-.43,1,.19,1.22,1.55-.45.84-1.1S79.81,16.57,79.81,16.57Z"/><path class="cls-3" d="M81.24,16s-.11,1.11.53,1.12,1.35-.87.49-1.3S81.24,16,81.24,16Z"/><path class="cls-3" d="M72.82,15.78s-1.15-.29-1.26.38.71,1.57,1.29.73S72.82,15.78,72.82,15.78Z"/><path class="cls-3" d="M73.49,16.94s-1.17.24-1,.9,1.32,1.09,1.47.08S73.49,16.94,73.49,16.94Z"/><path class="cls-3" d="M74.87,17.84s-1.05.57-.67,1.14,1.58.67,1.44-.34S74.87,17.84,74.87,17.84Z"/><path class="cls-3" d="M76.57,18.24s-1,.66-.56,1.19,1.63.53,1.4-.46S76.57,18.24,76.57,18.24Z"/><path class="cls-3" d="M78.26,18.47s-.88.79-.39,1.26,1.7.29,1.33-.66S78.26,18.47,78.26,18.47Z"/><path class="cls-3" d="M79.6,18.57s-.45,1.09.2,1.3,1.65-.49.9-1.18S79.6,18.57,79.6,18.57Z"/><path class="cls-3" d="M81.12,17.93s-.12,1.18.57,1.19,1.44-.93.53-1.38S81.12,17.93,81.12,17.93Z"/><path class="cls-3" d="M72.75,19s-1.28.26-1.06,1,1.45,1.19,1.62.09S72.75,19,72.75,19Z"/><path class="cls-3" d="M74.26,20s-1.15.62-.73,1.25,1.73.74,1.58-.37S74.26,20,74.26,20Z"/><path class="cls-3" d="M76.13,20.4s-1.09.72-.62,1.3,1.79.59,1.54-.5S76.13,20.4,76.13,20.4Z"/><path class="cls-3" d="M78,20.64s-1,.87-.43,1.39,1.86.32,1.45-.72S78,20.64,78,20.64Z"/><path class="cls-3" d="M79.45,20.75S79,22,79.68,22.18s1.8-.53,1-1.29S79.45,20.75,79.45,20.75Z"/><path class="cls-3" d="M72.07,21.18s-1.36.29-1.13,1.06,1.55,1.27,1.73.09S72.07,21.18,72.07,21.18Z"/><path class="cls-3" d="M73.68,22.24s-1.22.66-.78,1.33,1.84.79,1.68-.39S73.68,22.24,73.68,22.24Z"/><path class="cls-3" d="M75.67,22.71s-1.16.76-.66,1.39,1.91.62,1.64-.54S75.67,22.71,75.67,22.71Z"/><path class="cls-3" d="M75.15,25.46s-1.16.77-.66,1.39,1.91.62,1.64-.54S75.15,25.46,75.15,25.46Z"/><path class="cls-3" d="M77.65,23s-1,.93-.45,1.47,2,.35,1.54-.76S77.65,23,77.65,23Z"/><path class="cls-3" d="M79.21,23.09s-.53,1.28.24,1.52,1.92-.57,1-1.37S79.21,23.09,79.21,23.09Z"/><path class="cls-4" d="M88.49,10S78,15.32,76.57,22.56c-.52,2.7-1.41,3.77-1.71-.25-.54-7.22-10.17-9.07-10.17-9.07,8,9.09,5.38,14.34,6.87,18.56a5.77,5.77,0,0,0,1,1.3l3.17.79s4.36-5.08,4.64-5.48C82.92,24.64,78.34,21.71,88.49,10Z"/><path class="cls-1" d="M73.1,33.89s-.89,29.36-.69,46.38l3.9-47.78Z"/><path class="cls-1" d="M64,25.74s6.33-2.4,9.45,5.32L75,36.16l-1.91,5.05S72.08,28,64,25.74Z"/><path class="cls-1" d="M89.36,23.79s-7-1.57-12.9,6L72.8,36.41l2.77,4.8S77.76,25.38,89.36,23.79Z"/><path class="cls-1" d="M22.89,26.4s30.71-5.52,37,36.6l6.28,40.84L60,105.23S65,26.94,22.89,26.4Z"/><path class="cls-1" d="M88.61,19.22s-31.19.86-28.75,43.32L62,103.8l6.37.15S47.55,28.33,88.61,19.22Z"/><path class="cls-1" d="M33.24,53.06s20.45.88,24.35,11.65S62.66,42.91,33.24,53.06Z"/><path class="cls-1" d="M86.53,34.41s-18.09-.48-20.89,10.64S56.24,27.26,86.53,34.41Z"/><path class="cls-2" d="M51.79,18.6S52.5,4.2,57.25,5.65s4.65,12.8,4,15.23-2.69,12-5.31,11.86S51,21.86,51.79,18.6Z"/><path class="cls-3" d="M53.71,8.26s-.76.21-.6.64.92.68,1,0S53.71,8.26,53.71,8.26Z"/><path class="cls-3" d="M54.59,8.93s-.75.28-.55.69,1,.59,1-.09S54.59,8.93,54.59,8.93Z"/><path class="cls-3" d="M55.59,9.39s-.63.48-.33.82,1.11.28.92-.37S55.59,9.39,55.59,9.39Z"/><path class="cls-3" d="M56.75,9.48s-.59.54-.25.85,1.13.18.88-.45S56.75,9.48,56.75,9.48Z"/><path class="cls-3" d="M57.89,9.46s-.51.61-.13.87,1.14,0,.81-.56S57.89,9.46,57.89,9.46Z"/><path class="cls-3" d="M58.78,9.39s-.19.77.27.84,1-.48.47-.86S58.78,9.39,58.78,9.39Z"/><path class="cls-3" d="M59.8,8.82s-.14.78.32.82,1-.56.41-.9S59.8,8.82,59.8,8.82Z"/><path class="cls-3" d="M54.64,7.38s-.74.27-.54.69,1,.58,1-.1S54.64,7.38,54.64,7.38Z"/><path class="cls-3" d="M55.64,7.83s-.63.48-.32.82,1.11.29.91-.36S55.64,7.83,55.64,7.83Z"/><path class="cls-3" d="M56.8,7.93s-.58.53-.25.84,1.13.19.88-.45S56.8,7.93,56.8,7.93Z"/><path class="cls-3" d="M58,7.91s-.51.61-.14.87,1.15,0,.81-.57S58,7.91,58,7.91Z"/><path class="cls-3" d="M58.83,7.84s-.18.77.27.84,1-.49.47-.87S58.83,7.84,58.83,7.84Z"/><path class="cls-3" d="M54.93,6.19c-.24,0-.8.36-.62.74s.83.32.85-.31C55.18,6.17,55.05,6.16,54.93,6.19Z"/><path class="cls-3" d="M58.73,6.24c.24.07.8.38.61.75s-.83.32-.85-.3C58.48,6.23,58.61,6.22,58.73,6.24Z"/><path class="cls-3" d="M55.68,6.5s-.58.43-.3.75,1,.25.84-.34S55.68,6.5,55.68,6.5Z"/><path class="cls-3" d="M56.74,6.58s-.53.49-.23.78,1,.16.8-.41S56.74,6.58,56.74,6.58Z"/><path class="cls-3" d="M57.79,6.57s-.47.55-.12.79,1,0,.73-.52S57.79,6.57,57.79,6.57Z"/><path class="cls-3" d="M56.18,5.47s-.68.25-.5.63.9.54.9-.08S56.18,5.47,56.18,5.47Z"/><path class="cls-3" d="M57,5.63s-.17.71.24.77,1-.45.43-.79S57,5.63,57,5.63Z"/><path class="cls-3" d="M53.79,9.58S53,9.5,53,10s.66,1,1,.37S53.79,9.58,53.79,9.58Z"/><path class="cls-3" d="M54.38,10.32s-.79.3-.58.74,1.05.63,1.05-.1S54.38,10.32,54.38,10.32Z"/><path class="cls-3" d="M55.45,10.81s-.68.51-.35.87,1.18.31,1-.39S55.45,10.81,55.45,10.81Z"/><path class="cls-3" d="M56.69,10.91s-.63.57-.28.9,1.21.2.94-.48S56.69,10.91,56.69,10.91Z"/><path class="cls-3" d="M57.9,10.89s-.54.65-.14.93,1.22,0,.86-.61S57.9,10.89,57.9,10.89Z"/><path class="cls-3" d="M58.84,10.82s-.19.82.29.89,1.1-.52.5-.92S58.84,10.82,58.84,10.82Z"/><path class="cls-3" d="M59.84,10.21s0,.84.53.78.91-.81.23-1S59.84,10.21,59.84,10.21Z"/><path class="cls-3" d="M53.43,11s-.92-.09-.93.45.73,1.12,1.08.41S53.43,11,53.43,11Z"/><path class="cls-3" d="M54.08,11.83s-.87.32-.64.8,1.15.69,1.15-.1S54.08,11.83,54.08,11.83Z"/><path class="cls-3" d="M55.25,12.37s-.75.55-.39,1,1.3.33,1.08-.43S55.25,12.37,55.25,12.37Z"/><path class="cls-3" d="M56.6,12.48s-.68.62-.29,1,1.32.22,1-.52S56.6,12.48,56.6,12.48Z"/><path class="cls-3" d="M57.94,12.45s-.6.71-.16,1,1.34,0,.95-.66S57.94,12.45,57.94,12.45Z"/><path class="cls-3" d="M59,12.37s-.22.9.31,1,1.21-.57.55-1S59,12.37,59,12.37Z"/><path class="cls-3" d="M60.07,11.7s0,.93.58.85,1-.88.25-1.12S60.07,11.7,60.07,11.7Z"/><path class="cls-3" d="M53.15,12.59s-1-.1-1,.47.77,1.2,1.15.44S53.15,12.59,53.15,12.59Z"/><path class="cls-3" d="M53.84,13.46s-.93.34-.68.86,1.22.73,1.22-.12S53.84,13.46,53.84,13.46Z"/><path class="cls-3" d="M55.08,14s-.79.59-.4,1,1.37.35,1.13-.46S55.08,14,55.08,14Z"/><path class="cls-3" d="M56.53,14.15s-.74.66-.32,1,1.41.23,1.1-.56S56.53,14.15,56.53,14.15Z"/><path class="cls-3" d="M58,14.12s-.64.76-.17,1.08,1.43,0,1-.7S58,14.12,58,14.12Z"/><path class="cls-3" d="M59.05,14s-.23,1,.33,1.05,1.29-.61.59-1.08S59.05,14,59.05,14Z"/><path class="cls-3" d="M60.22,13.32s.05,1,.62.91,1.06-.94.26-1.19S60.22,13.32,60.22,13.32Z"/><path class="cls-3" d="M52.6,14.06s-1.11-.11-1.12.53.88,1.36,1.3.5S52.6,14.06,52.6,14.06Z"/><path class="cls-3" d="M53.39,15s-1,.39-.77,1,1.38.83,1.38-.13S53.39,15,53.39,15Z"/><path class="cls-3" d="M54.79,15.69s-.89.67-.46,1.15,1.56.4,1.29-.51S54.79,15.69,54.79,15.69Z"/><path class="cls-3" d="M56.43,15.82s-.83.75-.36,1.19,1.59.26,1.24-.63S56.43,15.82,56.43,15.82Z"/><path class="cls-3" d="M58,15.79s-.71.86-.18,1.23,1.61,0,1.14-.8S58,15.79,58,15.79Z"/><path class="cls-3" d="M59.29,15.69s-.27,1.09.37,1.19,1.46-.69.67-1.22S59.29,15.69,59.29,15.69Z"/><path class="cls-3" d="M60.61,14.89s.06,1.12.7,1,1.21-1.07.29-1.36S60.61,14.89,60.61,14.89Z"/><path class="cls-3" d="M52.26,16s-1.18-.12-1.19.57S52,18,52.46,17.1,52.26,16,52.26,16Z"/><path class="cls-3" d="M53.09,17s-1.11.41-.81,1,1.47.88,1.47-.14S53.09,17,53.09,17Z"/><path class="cls-3" d="M54.6,17.7s-1,.71-.5,1.22,1.67.43,1.38-.55S54.6,17.7,54.6,17.7Z"/><path class="cls-3" d="M56.34,17.83s-.89.8-.38,1.27,1.69.27,1.32-.67S56.34,17.83,56.34,17.83Z"/><path class="cls-3" d="M58.05,17.8s-.76.92-.2,1.31,1.72,0,1.21-.85S58.05,17.8,58.05,17.8Z"/><path class="cls-3" d="M59.38,17.7s-.28,1.16.4,1.26,1.55-.73.71-1.3S59.38,17.7,59.38,17.7Z"/><path class="cls-3" d="M60.79,16.85s.06,1.18.74,1.09,1.28-1.14.31-1.44S60.79,16.85,60.79,16.85Z"/><path class="cls-3" d="M52.67,19.13s-1.22.45-.9,1.13,1.62,1,1.62-.15S52.67,19.13,52.67,19.13Z"/><path class="cls-3" d="M54.31,19.88s-1,.79-.54,1.35,1.83.46,1.51-.61S54.31,19.88,54.31,19.88Z"/><path class="cls-3" d="M56.22,20s-1,.87-.41,1.38,1.86.31,1.44-.74S56.22,20,56.22,20Z"/><path class="cls-3" d="M58.1,20s-.84,1-.21,1.43,1.88,0,1.32-.93S58.1,20,58.1,20Z"/><path class="cls-3" d="M59.56,19.89s-.3,1.27.44,1.38,1.71-.8.78-1.43S59.56,19.89,59.56,19.89Z"/><path class="cls-3" d="M52.33,21.42s-1.3.48-.95,1.21,1.72,1,1.72-.16S52.33,21.42,52.33,21.42Z"/><path class="cls-3" d="M54.08,22.22s-1.11.84-.57,1.43,1.94.51,1.6-.64S54.08,22.22,54.08,22.22Z"/><path class="cls-3" d="M56.12,22.39s-1,.93-.45,1.47,2,.33,1.55-.78S56.12,22.39,56.12,22.39Z"/><path class="cls-3" d="M56,25.19s-1,.93-.44,1.47,2,.33,1.54-.78S56,25.19,56,25.19Z"/><path class="cls-3" d="M58.11,22.35s-.88,1.07-.22,1.53,2,0,1.41-1S58.11,22.35,58.11,22.35Z"/><path class="cls-3" d="M59.67,22.23s-.33,1.35.47,1.47,1.81-.85.83-1.52S59.67,22.23,59.67,22.23Z"/><path class="cls-4" d="M66.89,7.93S57.26,14.74,57,22.1c-.1,2.75-.82,3.95-1.72,0-1.62-7-11.42-7.44-11.42-7.44C53.12,22.46,51.33,28,53.44,32a5.7,5.7,0,0,0,1.16,1.14l3.25.3s3.56-5.67,3.77-6.11C63.58,23.21,58.61,21,66.89,7.93Z"/><path class="cls-1" d="M55.25,33.82s3.53,29.16,6.27,46L58.22,32Z"/><path class="cls-1" d="M45,27.13S50.93,23.81,55.16,31l2.28,4.81-1.13,5.28S53.36,28.18,45,27.13Z"/><path class="cls-1" d="M69.81,21.41S62.66,20.9,58,29.26l-2.62,7.1,3.45,4.34S58.58,24.72,69.81,21.41Z"/><path class="cls-1" d="M77.09,32.06s26.85.55,25,37.12l-1.62,35.54-5.48.17S112.5,39.65,77.09,32.06Z"/><path class="cls-1" d="M133.78,37.15s-26.47-4.57-31.62,31.68L97,104l5.35,1.21S97.57,37.87,133.78,37.15Z"/><path class="cls-1" d="M81.3,56.32s17.12,4.2,18.58,14S107.85,52.74,81.3,56.32Z"/><path class="cls-1" d="M129.45,49.62S114.26,46.14,110,55.05,105.09,38.44,129.45,49.62Z"/><path class="cls-2" d="M102.81,30.37s3-12,6.8-10,1.75,11.6.76,13.53-4.31,9.67-6.49,9.1S101.55,33,102.81,30.37Z"/><path class="cls-3" d="M106.18,22s-.68.05-.62.43.67.73.83.17S106.18,22,106.18,22Z"/><path class="cls-3" d="M106.81,22.69s-.68.11-.58.49.73.66.84.09S106.81,22.69,106.81,22.69Z"/><path class="cls-3" d="M107.57,23.25s-.61.29-.41.63.89.43.83-.15S107.57,23.25,107.57,23.25Z"/><path class="cls-3" d="M108.54,23.52s-.59.35-.36.67.93.35.82-.23S108.54,23.52,108.54,23.52Z"/><path class="cls-3" d="M109.51,23.7s-.54.43-.26.71,1,.22.78-.34S109.51,23.7,109.51,23.7Z"/><path class="cls-3" d="M110.27,23.79s-.29.62.08.75,1-.23.55-.64S110.27,23.79,110.27,23.79Z"/><path class="cls-3" d="M111.22,23.48s-.24.64.14.75.94-.3.5-.69S111.22,23.48,111.22,23.48Z"/><path class="cls-3" d="M107.12,21.39s-.68.11-.58.49.73.66.85.08S107.12,21.39,107.12,21.39Z"/><path class="cls-3" d="M107.88,21.94s-.61.3-.41.64.89.43.84-.16S107.88,21.94,107.88,21.94Z"/><path class="cls-3" d="M108.85,22.22s-.59.35-.36.67.92.35.82-.23S108.85,22.22,108.85,22.22Z"/><path class="cls-3" d="M109.82,22.4s-.54.42-.26.71,1,.21.77-.34S109.82,22.4,109.82,22.4Z"/><path class="cls-3" d="M110.58,22.49s-.29.62.08.75,1-.23.55-.65S110.58,22.49,110.58,22.49Z"/><path class="cls-3" d="M107.56,20.43c-.2,0-.74.18-.65.53s.65.4.78-.12S107.67,20.43,107.56,20.43Z"/><path class="cls-3" d="M110.76,21.13c.19.09.61.44.39.73s-.76.12-.67-.4S110.66,21.08,110.76,21.13Z"/><path class="cls-3" d="M108.14,20.82s-.56.27-.38.58.81.39.77-.14S108.14,20.82,108.14,20.82Z"/><path class="cls-3" d="M109,21.07s-.53.33-.32.62.84.32.75-.21S109,21.07,109,21.07Z"/><path class="cls-3" d="M109.91,21.24s-.49.39-.24.65.89.19.71-.31S109.91,21.24,109.91,21.24Z"/><path class="cls-3" d="M108.74,20s-.62.1-.52.45.66.61.77.08S108.74,20,108.74,20Z"/><path class="cls-3" d="M109.39,20.31s-.27.56.07.69.88-.21.5-.6S109.39,20.31,109.39,20.31Z"/><path class="cls-3" d="M106,23.1s-.7-.21-.79.2.39,1,.77.48S106,23.1,106,23.1Z"/><path class="cls-3" d="M106.4,23.83s-.72.11-.62.52.78.71.9.1S106.4,23.83,106.4,23.83Z"/><path class="cls-3" d="M107.22,24.42s-.66.32-.45.68,1,.46.89-.16S107.22,24.42,107.22,24.42Z"/><path class="cls-3" d="M108.24,24.72s-.62.37-.38.71,1,.37.87-.24S108.24,24.72,108.24,24.72Z"/><path class="cls-3" d="M109.27,24.91s-.57.45-.28.76,1,.22.83-.37S109.27,24.91,109.27,24.91Z"/><path class="cls-3" d="M110.08,25s-.31.66.09.8,1-.25.58-.69S110.08,25,110.08,25Z"/><path class="cls-3" d="M111,24.66s-.11.72.31.75.91-.53.36-.83S111,24.66,111,24.66Z"/><path class="cls-3" d="M105.48,24.25s-.77-.23-.86.22.42,1.07.84.53S105.48,24.25,105.48,24.25Z"/><path class="cls-3" d="M105.89,25.05s-.79.12-.68.57.85.78,1,.11S105.89,25.05,105.89,25.05Z"/><path class="cls-3" d="M106.78,25.7s-.72.35-.48.74,1,.5,1-.18S106.78,25.7,106.78,25.7Z"/><path class="cls-3" d="M107.91,26s-.69.4-.42.77,1.08.41,1-.26S107.91,26,107.91,26Z"/><path class="cls-3" d="M109,26.23s-.63.5-.3.83,1.12.25.91-.4S109,26.23,109,26.23Z"/><path class="cls-3" d="M109.93,26.34s-.34.72.09.88,1.12-.28.64-.76S109.93,26.34,109.93,26.34Z"/><path class="cls-3" d="M111,26s-.12.79.34.82,1-.58.4-.91S111,26,111,26Z"/><path class="cls-3" d="M105,25.54s-.81-.25-.91.23.45,1.14.89.56S105,25.54,105,25.54Z"/><path class="cls-3" d="M105.41,26.39s-.84.13-.72.6.9.83,1,.11S105.41,26.39,105.41,26.39Z"/><path class="cls-3" d="M106.36,27.08s-.77.36-.51.79,1.1.53,1-.19S106.36,27.08,106.36,27.08Z"/><path class="cls-3" d="M107.56,27.42s-.73.43-.44.83,1.14.44,1-.28S107.56,27.42,107.56,27.42Z"/><path class="cls-3" d="M108.76,27.64s-.66.53-.32.89,1.2.26,1-.43S108.76,27.64,108.76,27.64Z"/><path class="cls-3" d="M109.71,27.75s-.36.77.1.94,1.2-.29.68-.81S109.71,27.75,109.71,27.75Z"/><path class="cls-3" d="M110.82,27.35s-.13.84.36.87,1.06-.61.43-1S110.82,27.35,110.82,27.35Z"/><path class="cls-3" d="M104.26,26.68s-.92-.28-1,.27.51,1.28,1,.63S104.26,26.68,104.26,26.68Z"/><path class="cls-3" d="M104.76,27.64s-1,.15-.82.7,1,.93,1.19.12S104.76,27.64,104.76,27.64Z"/><path class="cls-3" d="M105.83,28.43s-.86.41-.58.89,1.25.61,1.18-.21S105.83,28.43,105.83,28.43Z"/><path class="cls-3" d="M107.19,28.82s-.82.49-.5.94,1.3.49,1.15-.32S107.19,28.82,107.19,28.82Z"/><path class="cls-3" d="M108.55,29.06s-.74.61-.36,1,1.35.3,1.1-.48S108.55,29.06,108.55,29.06Z"/><path class="cls-3" d="M109.63,29.2s-.41.87.11,1.06,1.35-.33.77-.92S109.63,29.2,109.63,29.2Z"/><path class="cls-3" d="M110.88,28.74s-.14,1,.41,1,1.2-.7.48-1.1S110.88,28.74,110.88,28.74Z"/><path class="cls-3" d="M103.65,28.23s-1-.3-1.1.28.54,1.37,1.08.67S103.65,28.23,103.65,28.23Z"/><path class="cls-3" d="M104.18,29.25s-1,.16-.87.74,1.1,1,1.27.13S104.18,29.25,104.18,29.25Z"/><path class="cls-3" d="M105.33,30.09s-.93.44-.62.95,1.33.64,1.25-.23S105.33,30.09,105.33,30.09Z"/><path class="cls-3" d="M106.77,30.5s-.88.53-.53,1,1.38.53,1.23-.34S106.77,30.5,106.77,30.5Z"/><path class="cls-3" d="M108.22,30.77s-.8.64-.39,1.07,1.45.32,1.17-.52S108.22,30.77,108.22,30.77Z"/><path class="cls-3" d="M109.36,30.9s-.43.93.13,1.13,1.43-.35.82-1S109.36,30.9,109.36,30.9Z"/><path class="cls-3" d="M110.7,30.42s-.15,1,.44,1,1.28-.74.51-1.16S110.7,30.42,110.7,30.42Z"/><path class="cls-3" d="M103.46,31s-1.11.17-.95.8,1.2,1.09,1.39.15S103.46,31,103.46,31Z"/><path class="cls-3" d="M104.72,31.88s-1,.49-.69,1.05,1.46.7,1.38-.26S104.72,31.88,104.72,31.88Z"/><path class="cls-3" d="M106.31,32.34s-1,.57-.59,1.1,1.52.57,1.34-.38S106.31,32.34,106.31,32.34Z"/><path class="cls-3" d="M107.89,32.63s-.87.7-.42,1.17,1.58.35,1.28-.56S107.89,32.63,107.89,32.63Z"/><path class="cls-3" d="M109.15,32.78s-.48,1,.13,1.24,1.58-.38.9-1.07S109.15,32.78,109.15,32.78Z"/><path class="cls-3" d="M102.78,32.85s-1.18.18-1,.85,1.28,1.17,1.48.16S102.78,32.85,102.78,32.85Z"/><path class="cls-3" d="M104.12,33.82s-1.07.52-.72,1.12,1.55.75,1.46-.27S104.12,33.82,104.12,33.82Z"/><path class="cls-3" d="M105.81,34.31s-1,.61-.62,1.17,1.61.61,1.43-.4S105.81,34.31,105.81,34.31Z"/><path class="cls-3" d="M105.26,36.65s-1,.61-.63,1.17,1.62.61,1.43-.4S105.26,36.65,105.26,36.65Z"/><path class="cls-3" d="M107.51,34.62s-.94.75-.45,1.24,1.68.38,1.35-.59S107.51,34.62,107.51,34.62Z"/><path class="cls-3" d="M108.84,34.78s-.5,1.08.14,1.32,1.68-.41,1-1.14S108.84,34.78,108.84,34.78Z"/><path class="cls-4" d="M117.37,23.93s-9.29,4.12-10.78,10.28c-.55,2.31-1.36,3.19-1.45-.28-.17-6.23-8.38-8.22-8.38-8.22,6.49,8.15,4,12.56,5.15,16.25a4.76,4.76,0,0,0,.79,1.16l2.69.8s4-4.19,4.21-4.52C112,36.27,108.15,33.56,117.37,23.93Z"/><path class="cls-1" d="M103.14,43.81s-2,25.21-2.51,39.86L106,42.75Z"/><path class="cls-1" d="M95.65,36.43s5.54-1.8,7.9,5l1.11,4.45-1.86,4.26S102.51,38.73,95.65,36.43Z"/><path class="cls-1" d="M117.55,35.8s-6-1.64-11.35,4.62L102.78,46,105,50.21S107.5,36.69,117.55,35.8Z"/><path class="cls-1" d="M60.28,35.3s26.63-3.48,30.29,33l3.72,35.38-5.39,1S96.42,37.5,60.28,35.3Z"/><path class="cls-1" d="M117.09,31.84s-26.86-.55-26.51,36.07l.17,35.57,5.47.39S81.4,38,117.09,31.84Z"/><path class="cls-1" d="M68.08,58.66s17.55,1.59,20.46,11S93.8,51.15,68.08,58.66Z"/><path class="cls-1" d="M114.67,44.82s-15.53-1.16-18.4,8.28S88.92,37.42,114.67,44.82Z"/><path class="cls-2" d="M85.45,29.78s1.2-12.34,5.23-10.9,3.47,11.2,2.78,13.26-2.82,10.2-5.06,10S84.59,32.55,85.45,29.78Z"/><path class="cls-3" d="M87.53,21s-.67.15-.55.52.77.62.85.05S87.53,21,87.53,21Z"/><path class="cls-3" d="M88.26,21.59s-.65.21-.5.57.82.55.85,0S88.26,21.59,88.26,21.59Z"/><path class="cls-3" d="M89.1,22s-.57.39-.32.69.94.3.81-.27S89.1,22,89.1,22Z"/><path class="cls-3" d="M90.09,22.15s-.53.44-.25.72,1,.2.77-.35S90.09,22.15,90.09,22.15Z"/><path class="cls-3" d="M91.07,22.18s-.46.5-.14.74,1,.07.71-.45S91.07,22.18,91.07,22.18Z"/><path class="cls-3" d="M91.84,22.16s-.2.66.2.73.91-.37.44-.73S91.84,22.16,91.84,22.16Z"/><path class="cls-3" d="M92.74,21.71s-.15.66.24.72.89-.44.39-.76S92.74,21.71,92.74,21.71Z"/><path class="cls-3" d="M88.37,20.25s-.65.21-.5.58.82.54.85,0S88.37,20.25,88.37,20.25Z"/><path class="cls-3" d="M89.21,20.69s-.57.38-.32.69.94.29.81-.28S89.21,20.69,89.21,20.69Z"/><path class="cls-3" d="M90.2,20.82s-.53.43-.25.71,1,.21.78-.35S90.2,20.82,90.2,20.82Z"/><path class="cls-3" d="M91.19,20.85s-.47.5-.15.74,1,.06.72-.45S91.19,20.85,91.19,20.85Z"/><path class="cls-3" d="M92,20.83s-.19.65.2.73.91-.38.44-.73S92,20.83,92,20.83Z"/><path class="cls-3" d="M88.66,19.24c-.2,0-.7.29-.56.62s.7.3.75-.23S88.77,19.22,88.66,19.24Z"/><path class="cls-3" d="M91.92,19.45c.21.06.68.35.5.67s-.72.23-.72-.3S91.82,19.42,91.92,19.45Z"/><path class="cls-3" d="M89.3,19.54s-.52.35-.29.63.86.27.73-.25S89.3,19.54,89.3,19.54Z"/><path class="cls-3" d="M90.2,19.66s-.48.4-.22.65.88.19.7-.32S90.2,19.66,90.2,19.66Z"/><path class="cls-3" d="M91.1,19.68s-.42.47-.13.69.9.05.65-.42S91.1,19.68,91.1,19.68Z"/><path class="cls-3" d="M89.77,18.68s-.6.19-.46.52.75.5.78,0S89.77,18.68,89.77,18.68Z"/><path class="cls-3" d="M90.45,18.85s-.18.6.17.67.84-.34.41-.66S90.45,18.85,90.45,18.85Z"/><path class="cls-3" d="M87.54,22.11s-.72-.1-.74.32.52.9.83.36S87.54,22.11,87.54,22.11Z"/><path class="cls-3" d="M88,22.78s-.69.22-.53.61.87.58.9-.05S88,22.78,88,22.78Z"/><path class="cls-3" d="M88.91,23.24s-.6.41-.33.74,1,.31.86-.3S88.91,23.24,88.91,23.24Z"/><path class="cls-3" d="M90,23.38s-.57.46-.27.76,1,.22.82-.37S90,23.38,90,23.38Z"/><path class="cls-3" d="M91,23.41s-.49.54-.16.79,1,.07.77-.48S91,23.41,91,23.41Z"/><path class="cls-3" d="M91.83,23.39s-.2.69.22.78,1-.4.47-.77S91.83,23.39,91.83,23.39Z"/><path class="cls-3" d="M92.72,22.91s0,.72.42.69.82-.66.24-.88S92.72,22.91,92.72,22.91Z"/><path class="cls-3" d="M87.17,23.33s-.79-.11-.81.34.57,1,.91.4S87.17,23.33,87.17,23.33Z"/><path class="cls-3" d="M87.7,24.06s-.76.24-.58.66.95.65,1,0S87.7,24.06,87.7,24.06Z"/><path class="cls-3" d="M88.68,24.57s-.66.45-.37.81,1.1.33.94-.33S88.68,24.57,88.68,24.57Z"/><path class="cls-3" d="M89.84,24.72s-.61.51-.29.84,1.12.24.9-.41S89.84,24.72,89.84,24.72Z"/><path class="cls-3" d="M91,24.75s-.54.59-.17.87,1.15.08.83-.53S91,24.75,91,24.75Z"/><path class="cls-3" d="M91.89,24.72s-.23.77.22.86,1.07-.44.52-.84S91.89,24.72,91.89,24.72Z"/><path class="cls-3" d="M92.86,24.2s0,.8.46.75.9-.72.26-.95S92.86,24.2,92.86,24.2Z"/><path class="cls-3" d="M86.87,24.68S86,24.55,86,25s.61,1.06,1,.42S86.87,24.68,86.87,24.68Z"/><path class="cls-3" d="M87.42,25.45s-.81.26-.61.71,1,.68,1-.05S87.42,25.45,87.42,25.45Z"/><path class="cls-3" d="M88.47,26s-.7.48-.39.86,1.17.36,1-.34S88.47,26,88.47,26Z"/><path class="cls-3" d="M89.71,26.15s-.66.54-.32.89,1.2.26,1-.43S89.71,26.15,89.71,26.15Z"/><path class="cls-3" d="M90.93,26.19s-.58.63-.19.92,1.23.09.89-.56S90.93,26.19,90.93,26.19Z"/><path class="cls-3" d="M91.88,26.16s-.24.81.24.91,1.14-.46.56-.9S91.88,26.16,91.88,26.16Z"/><path class="cls-3" d="M92.92,25.6s0,.85.49.81,1-.77.28-1S92.92,25.6,92.92,25.6Z"/><path class="cls-3" d="M86.34,25.92s-1-.14-1,.41.7,1.2,1.1.48S86.34,25.92,86.34,25.92Z"/><path class="cls-3" d="M87,26.79s-.91.3-.7.81,1.15.77,1.19-.06S87,26.79,87,26.79Z"/><path class="cls-3" d="M88.15,27.41s-.79.54-.44,1,1.33.41,1.13-.39S88.15,27.41,88.15,27.41Z"/><path class="cls-3" d="M89.56,27.59s-.75.61-.36,1,1.36.28,1.09-.49S89.56,27.59,89.56,27.59Z"/><path class="cls-3" d="M90.94,27.63s-.65.71-.21,1.05,1.38.09,1-.64S90.94,27.63,90.94,27.63Z"/><path class="cls-3" d="M92,27.6s-.28.92.27,1,1.28-.53.62-1S92,27.6,92,27.6Z"/><path class="cls-3" d="M93.19,27s0,1,.55.91,1.09-.87.31-1.15S93.19,27,93.19,27Z"/><path class="cls-3" d="M86,27.54s-1-.15-1,.44.74,1.28,1.16.51S86,27.54,86,27.54Z"/><path class="cls-3" d="M86.64,28.47s-1,.31-.75.86,1.23.82,1.27-.06S86.64,28.47,86.64,28.47Z"/><path class="cls-3" d="M87.9,29.13s-.84.57-.47,1,1.41.43,1.2-.42S87.9,29.13,87.9,29.13Z"/><path class="cls-3" d="M89.39,29.32S88.6,30,89,30.39s1.45.31,1.16-.52S89.39,29.32,89.39,29.32Z"/><path class="cls-3" d="M90.86,29.36s-.69.76-.22,1.12,1.48.1,1.08-.69S90.86,29.36,90.86,29.36Z"/><path class="cls-3" d="M92,29.33s-.29,1,.29,1.09,1.37-.55.67-1.08S92,29.33,92,29.33Z"/><path class="cls-3" d="M93.26,28.65s0,1,.59,1,1.15-.92.33-1.23S93.26,28.65,93.26,28.65Z"/><path class="cls-3" d="M86.18,30.28s-1.07.34-.82.94,1.35.89,1.4-.07S86.18,30.28,86.18,30.28Z"/><path class="cls-3" d="M87.57,31s-.93.64-.52,1.14,1.55.48,1.32-.46S87.57,31,87.57,31Z"/><path class="cls-3" d="M89.2,31.2s-.87.72-.41,1.18,1.59.34,1.27-.57S89.2,31.2,89.2,31.2Z"/><path class="cls-3" d="M90.82,31.25s-.76.83-.25,1.22,1.62.12,1.18-.74S90.82,31.25,90.82,31.25Z"/><path class="cls-3" d="M92.08,31.22s-.32,1.07.32,1.2,1.5-.62.73-1.19S92.08,31.22,92.08,31.22Z"/><path class="cls-3" d="M85.8,32.23s-1.14.37-.87,1,1.43,1,1.48-.06S85.8,32.23,85.8,32.23Z"/><path class="cls-3" d="M87.27,33s-1,.68-.55,1.21,1.65.52,1.41-.48S87.27,33,87.27,33Z"/><path class="cls-3" d="M89,33.22s-.93.76-.45,1.25,1.69.37,1.36-.6S89,33.22,89,33.22Z"/><path class="cls-3" d="M88.81,35.63s-.92.76-.44,1.25,1.69.36,1.36-.61S88.81,35.63,88.81,35.63Z"/><path class="cls-3" d="M90.73,33.27s-.81.89-.25,1.31,1.71.11,1.25-.8S90.73,33.27,90.73,33.27Z"/><path class="cls-3" d="M92.08,33.23s-.34,1.15.34,1.29,1.59-.66.77-1.27S92.08,33.23,92.08,33.23Z"/><path class="cls-4" d="M98.88,21.23S90.32,26.69,89.77,33c-.2,2.37-.87,3.36-1.48-.06-1.1-6.13-9.51-6.87-9.51-6.87,7.63,7.09,5.87,11.81,7.52,15.29a4.74,4.74,0,0,0,1,1l2.78.39s3.29-4.73,3.5-5.1C95.39,34.24,91.21,32.13,98.88,21.23Z"/><path class="cls-1" d="M87.8,43s1.83,25.22,3.49,39.78l-.86-41.25Z"/><path class="cls-1" d="M79.28,36.84s5.21-2.61,8.56,3.73l1.76,4.24L88.41,49.3S86.4,38.1,79.28,36.84Z"/><path class="cls-1" d="M100.83,33s-6.12-.74-10.52,6.26l-2.54,6,2.79,3.87S91,35.33,100.83,33Z"/><path class="cls-4" d="M100.12,93.32c-2.18-1.08-5.27.34-7.75,2.6C91,89.66,86.26,85,80.56,85a10.91,10.91,0,0,0-7,2.64C73.2,82,69.49,77.51,64.93,77.51c-2.94,0-5.53,1.86-7.1,4.7-.38-1.57.16-6.39-.54-7.94-3.49-7.67-10.68-8.39-14.77-5.62-1.83,1.25-2.9,3.68-3.25,6.64a8,8,0,0,0-2.47-.42c-5.57,0-10.09,5.52-10.09,12.33a13.51,13.51,0,0,0,.18,2.2,14.47,14.47,0,0,0-5.08,11.37,16.33,16.33,0,0,0,.79,5h79.83C103.42,101.16,103.27,94.89,100.12,93.32Z"/><path class="cls-1" d="M72.24,98.52c1.65-.64,4,.2,5.89,1.54a9.17,9.17,0,0,1,9-6.44,9.83,9.83,0,0,1,5.32,1.55,6.54,6.54,0,0,1,6.55-6,6.65,6.65,0,0,1,5.4,2.77,14.15,14.15,0,0,1,1.2-2.77c2.65-4.53,7.32-6.88,10.42-5.24a5,5,0,0,1,2.47,3.92,8.57,8.57,0,0,1,1.88-.24,7.48,7.48,0,0,1,7.63,7.3,7,7,0,0,1-.14,1.29,8,8,0,0,1,3.86,6.73,7.62,7.62,0,0,1-.61,2.94H70.48C69.73,103.16,69.85,99.45,72.24,98.52Z"/><path class="cls-4" d="M87.79,97.44a1.05,1.05,0,1,0,1.1-1h-.1A1,1,0,0,0,87.79,97.44Z"/><path class="cls-4" d="M105.12,98.46A1.59,1.59,0,1,0,106.8,97h-.09a1.54,1.54,0,0,0-1.59,1.49Z"/><path class="cls-2" d="M78.68,67.42s16.16-7.13,17.18-1.14S84.4,78.41,81.36,79s-14.61,3.65-15.9.71S74.66,68.3,78.68,67.42Z"/><path class="cls-3" d="M91.05,63.85s-.65-.73-1-.31-.23,1.38.54,1.07S91.05,63.85,91.05,63.85Z"/><path class="cls-3" d="M90.81,65.17s-.72-.66-1.06-.21-.1,1.4.64,1S90.81,65.17,90.81,65.17Z"/><path class="cls-3" d="M90.85,66.52s-.87-.43-1.07.09.29,1.37.9.8S90.85,66.52,90.85,66.52Z"/><path class="cls-3" d="M91.39,67.84s-.91-.35-1.06.19.41,1.34,1,.72S91.39,67.84,91.39,67.84Z"/><path class="cls-3" d="M92,69.08s-1-.22-1,.34.61,1.26,1.07.57S92,69.08,92,69.08Z"/><path class="cls-3" d="M92.6,70s-.95.22-.77.75,1.1.87,1.21,0S92.6,70,92.6,70Z"/><path class="cls-3" d="M93.79,70.81s-.93.29-.72.81,1.16.79,1.21,0S93.79,70.81,93.79,70.81Z"/><path class="cls-3" d="M92.54,64.38s-.71-.66-1.06-.22-.1,1.4.64,1S92.54,64.38,92.54,64.38Z"/><path class="cls-3" d="M92.59,65.73s-.88-.44-1.08.09.3,1.37.9.8S92.59,65.73,92.59,65.73Z"/><path class="cls-3" d="M93.12,67.05s-.9-.35-1.06.19.42,1.34,1,.71S93.12,67.05,93.12,67.05Z"/><path class="cls-3" d="M93.77,68.29s-1-.22-1,.33.6,1.27,1.06.58S93.77,68.29,93.77,68.29Z"/><path class="cls-3" d="M94.34,69.22s-1,.22-.78.76,1.1.86,1.21,0S94.34,69.22,94.34,69.22Z"/><path class="cls-3" d="M94,64c-.2-.22-.85-.67-1.16-.27s.11,1.08.81.77C94.16,64.31,94.1,64.16,94,64Z"/><path class="cls-3" d="M96,68.23c.06.29,0,1.08-.48,1.09a.57.57,0,0,1-.13-1.11C95.9,67.94,96,68.08,96,68.23Z"/><path class="cls-3" d="M94.07,65s-.8-.4-1,.08.28,1.25.83.73S94.07,65,94.07,65Z"/><path class="cls-3" d="M94.56,66.24s-.83-.32-1,.17.38,1.23.89.66S94.56,66.24,94.56,66.24Z"/><path class="cls-3" d="M95.15,67.37s-.86-.2-.93.31.55,1.16,1,.52S95.15,67.37,95.15,67.37Z"/><path class="cls-3" d="M95.47,65s-.65-.61-1-.2-.09,1.28.59.93S95.47,65,95.47,65Z"/><path class="cls-3" d="M95.73,66s-.86.2-.71.68,1,.8,1.11,0S95.73,66,95.73,66Z"/><path class="cls-3" d="M89.65,64.66s-.37-1-.91-.7-.75,1.28.14,1.28S89.65,64.66,89.65,64.66Z"/><path class="cls-3" d="M89.17,65.72S88.41,65,88,65.48s-.11,1.49.69,1.09S89.17,65.72,89.17,65.72Z"/><path class="cls-3" d="M89.22,67.15s-.93-.46-1.15.1.32,1.46,1,.85S89.22,67.15,89.22,67.15Z"/><path class="cls-3" d="M89.79,68.56s-1-.38-1.13.2.44,1.42,1,.76S89.79,68.56,89.79,68.56Z"/><path class="cls-3" d="M90.48,69.87s-1-.23-1.09.36.64,1.35,1.13.61S90.48,69.87,90.48,69.87Z"/><path class="cls-3" d="M91.08,70.87s-1,.23-.82.8,1.17.93,1.28,0S91.08,70.87,91.08,70.87Z"/><path class="cls-3" d="M92.3,71.63s-.91.51-.57,1,1.39.55,1.25-.32S92.3,71.63,92.3,71.63Z"/><path class="cls-3" d="M87.89,65.05s-.41-1.06-1-.77-.83,1.41.15,1.4S87.89,65.05,87.89,65.05Z"/><path class="cls-3" d="M87.35,66.21s-.83-.77-1.23-.26-.12,1.64.75,1.2S87.35,66.21,87.35,66.21Z"/><path class="cls-3" d="M87.41,67.78s-1-.5-1.26.11.35,1.6,1.06.94S87.41,67.78,87.41,67.78Z"/><path class="cls-3" d="M88,69.33s-1-.41-1.24.22.49,1.56,1.14.83S88,69.33,88,69.33Z"/><path class="cls-3" d="M88.79,70.78s-1.11-.26-1.2.39.71,1.48,1.25.67S88.79,70.78,88.79,70.78Z"/><path class="cls-3" d="M89.45,71.87s-1.11.25-.9.88,1.29,1,1.41,0S89.45,71.87,89.45,71.87Z"/><path class="cls-3" d="M90.79,72.7s-1,.56-.62,1.1,1.52.61,1.37-.35S90.79,72.7,90.79,72.7Z"/><path class="cls-3" d="M86,65.61s-.43-1.13-1-.82-.89,1.5.15,1.49S86,65.61,86,65.61Z"/><path class="cls-3" d="M85.44,66.84s-.89-.82-1.32-.27-.13,1.74.8,1.28S85.44,66.84,85.44,66.84Z"/><path class="cls-3" d="M85.49,68.52s-1.08-.54-1.33.11.37,1.71,1.12,1S85.49,68.52,85.49,68.52Z"/><path class="cls-3" d="M86.16,70.16s-1.13-.43-1.32.24.52,1.66,1.21.89S86.16,70.16,86.16,70.16Z"/><path class="cls-3" d="M87,71.7s-1.18-.27-1.28.42.75,1.58,1.33.71S87,71.7,87,71.7Z"/><path class="cls-3" d="M87.67,72.87s-1.18.27-1,.93,1.37,1.08,1.5.06S87.67,72.87,87.67,72.87Z"/><path class="cls-3" d="M89.09,73.76s-1,.59-.65,1.17,1.62.65,1.45-.37S89.09,73.76,89.09,73.76Z"/><path class="cls-3" d="M84.1,65.82s-.49-1.28-1.2-.93-1,1.7.17,1.69S84.1,65.82,84.1,65.82Z"/><path class="cls-3" d="M83.45,67.22s-1-.93-1.48-.31-.15,2,.9,1.44S83.45,67.22,83.45,67.22Z"/><path class="cls-3" d="M83.52,69.12s-1.23-.62-1.52.12.42,1.93,1.28,1.13S83.52,69.12,83.52,69.12Z"/><path class="cls-3" d="M84.27,71s-1.27-.5-1.49.26.59,1.89,1.37,1S84.27,71,84.27,71Z"/><path class="cls-3" d="M85.19,72.72s-1.34-.31-1.45.47.85,1.78,1.5.81S85.19,72.72,85.19,72.72Z"/><path class="cls-3" d="M86,74s-1.33.3-1.09,1.06,1.55,1.22,1.7.06S86,74,86,74Z"/><path class="cls-3" d="M87.59,75.05s-1.19.67-.74,1.32,1.83.74,1.65-.42S87.59,75.05,87.59,75.05Z"/><path class="cls-3" d="M81.83,66.49s-.52-1.36-1.28-1-1.06,1.82.18,1.81S81.83,66.49,81.83,66.49Z"/><path class="cls-3" d="M81.14,68s-1.07-1-1.58-.33-.15,2.1,1,1.54S81.14,68,81.14,68Z"/><path class="cls-3" d="M81.22,70s-1.31-.65-1.62.13.45,2.06,1.36,1.21S81.22,70,81.22,70Z"/><path class="cls-3" d="M82,72s-1.36-.53-1.6.28.63,2,1.46,1.08S82,72,82,72Z"/><path class="cls-3" d="M83,73.84s-1.42-.33-1.54.5.91,1.9,1.6.86S83,73.84,83,73.84Z"/><path class="cls-3" d="M83.84,75.24s-1.42.33-1.16,1.13,1.65,1.3,1.81.06S83.84,75.24,83.84,75.24Z"/><path class="cls-3" d="M85.55,76.31s-1.27.72-.79,1.41,1.95.79,1.75-.45S85.55,76.31,85.55,76.31Z"/><path class="cls-3" d="M78.59,68.67s-1.17-1.08-1.74-.35-.17,2.3,1.06,1.68S78.59,68.67,78.59,68.67Z"/><path class="cls-3" d="M78.67,70.89s-1.44-.71-1.77.15.49,2.26,1.49,1.32S78.67,70.89,78.67,70.89Z"/><path class="cls-3" d="M79.55,73.07s-1.49-.58-1.75.31.69,2.2,1.6,1.18S79.55,73.07,79.55,73.07Z"/><path class="cls-3" d="M80.62,75.11s-1.56-.37-1.69.55,1,2.08,1.75.94S80.62,75.11,80.62,75.11Z"/><path class="cls-3" d="M81.55,76.64S80,77,80.28,77.88s1.81,1.43,2,.07S81.55,76.64,81.55,76.64Z"/><path class="cls-3" d="M75.89,69.57s-1.25-1.16-1.85-.39-.18,2.45,1.12,1.8S75.89,69.57,75.89,69.57Z"/><path class="cls-3" d="M76,71.93s-1.52-.76-1.88.16.52,2.4,1.58,1.4S76,71.93,76,71.93Z"/><path class="cls-3" d="M76.91,74.24s-1.59-.61-1.86.33.74,2.35,1.71,1.26S76.91,74.24,76.91,74.24Z"/><path class="cls-3" d="M73.79,75.67s-1.58-.62-1.86.33.73,2.35,1.71,1.26S73.79,75.67,73.79,75.67Z"/><path class="cls-3" d="M78.05,76.41s-1.66-.38-1.8.59,1.06,2.22,1.87,1S78.05,76.41,78.05,76.41Z"/><path class="cls-3" d="M79,78.05s-1.66.38-1.35,1.32,1.92,1.52,2.11.07S79,78.05,79,78.05Z"/><path class="cls-4" d="M94.48,74.49s-8.56-3.2-16.78.55c-3.07,1.39-5.68,3.34-8,3.12-1.52-.14,3.84-3.66,7-5,8.16-3.45,5.68-9.4,5.68-9.4C68,68.34,68.77,73.3,65.6,77.76a2.53,2.53,0,0,1-1.33.7l1.45,3.72a4,4,0,0,1,1.52-.59C72.86,81.51,82.38,86.69,94.48,74.49Z"/><path class="cls-5" d="M64.31,78.47l1.45,3.72a4,4,0,0,1,1.52-.59C72.46,81.52,81,86,91.93,76.83a26.09,26.09,0,0,0-10,1.8c-5.82,2.16-13.88,4.11-16.56-.63A3.86,3.86,0,0,1,64.31,78.47Z"/><path class="cls-2" d="M92,72.28s11.27-5,12-.8-8,8.46-10.11,8.86-10.2,2.55-11.09.5S89.16,72.88,92,72.28Z"/><path class="cls-3" d="M100.6,69.78s-.46-.5-.72-.22-.16,1,.38.75S100.6,69.78,100.6,69.78Z"/><path class="cls-3" d="M100.43,70.7s-.5-.46-.74-.15-.07,1,.45.72S100.43,70.7,100.43,70.7Z"/><path class="cls-3" d="M100.46,71.65s-.61-.31-.75.06.2,1,.63.56S100.46,71.65,100.46,71.65Z"/><path class="cls-3" d="M100.83,72.57s-.63-.25-.74.13.29.93.68.5S100.83,72.57,100.83,72.57Z"/><path class="cls-3" d="M101.29,73.43s-.66-.15-.72.23.42.89.74.4S101.29,73.43,101.29,73.43Z"/><path class="cls-3" d="M101.68,74.08s-.66.15-.54.53.77.6.84,0S101.68,74.08,101.68,74.08Z"/><path class="cls-3" d="M102.51,74.64s-.65.2-.51.56.81.55.85,0S102.51,74.64,102.51,74.64Z"/><path class="cls-3" d="M101.63,70.15s-.49-.46-.73-.15-.08,1,.44.71S101.63,70.15,101.63,70.15Z"/><path class="cls-3" d="M101.67,71.09s-.61-.3-.75.06.2,1,.63.56S101.67,71.09,101.67,71.09Z"/><path class="cls-3" d="M102,72s-.63-.24-.74.13.29.94.68.5S102,72,102,72Z"/><path class="cls-3" d="M102.49,72.88s-.66-.16-.71.23.42.88.74.4S102.49,72.88,102.49,72.88Z"/><path class="cls-3" d="M102.89,73.53s-.66.15-.54.52.77.61.84,0S102.89,73.53,102.89,73.53Z"/><path class="cls-3" d="M102.65,69.91c-.14-.15-.59-.47-.81-.18s.08.75.57.53S102.72,70,102.65,69.91Z"/><path class="cls-3" d="M104.06,72.84c0,.2,0,.75-.33.75a.4.4,0,0,1-.09-.77C104.11,72.56,104,72.73,104.06,72.84Z"/><path class="cls-3" d="M102.7,70.61s-.55-.28-.69,0,.2.88.58.52S102.7,70.61,102.7,70.61Z"/><path class="cls-3" d="M103,71.45s-.58-.22-.67.12.26.85.62.46S103,71.45,103,71.45Z"/><path class="cls-3" d="M103.46,72.24s-.61-.14-.66.21.39.81.68.37S103.46,72.24,103.46,72.24Z"/><path class="cls-3" d="M103.68,70.59s-.46-.42-.68-.14-.06.9.41.66S103.68,70.59,103.68,70.59Z"/><path class="cls-3" d="M103.86,71.26s-.6.14-.49.48.7.56.77,0S103.86,71.26,103.86,71.26Z"/><path class="cls-3" d="M99.62,70.35s-.26-.68-.63-.49-.53.89.09.89S99.62,70.35,99.62,70.35Z"/><path class="cls-3" d="M99.28,71.08s-.53-.49-.78-.16-.08,1,.47.76S99.28,71.08,99.28,71.08Z"/><path class="cls-3" d="M99.31,72.08s-.64-.32-.79.07.22,1,.67.6S99.31,72.08,99.31,72.08Z"/><path class="cls-3" d="M99.71,73.06s-.67-.26-.78.14.31,1,.72.53S99.71,73.06,99.71,73.06Z"/><path class="cls-3" d="M100.2,74s-.71-.16-.76.25.44.94.79.43S100.2,74,100.2,74Z"/><path class="cls-3" d="M100.62,74.68s-.71.16-.58.56.82.64.9,0S100.62,74.68,100.62,74.68Z"/><path class="cls-3" d="M101.46,75.21s-.63.36-.39.7,1,.39.87-.22S101.46,75.21,101.46,75.21Z"/><path class="cls-3" d="M98.39,70.62s-.28-.74-.69-.54-.58,1,.09,1S98.39,70.62,98.39,70.62Z"/><path class="cls-3" d="M98,71.43s-.59-.54-.87-.18-.08,1.14.53.83S98,71.43,98,71.43Z"/><path class="cls-3" d="M98.05,72.53s-.7-.36-.87.07.24,1.12.74.65S98.05,72.53,98.05,72.53Z"/><path class="cls-3" d="M98.49,73.6s-.74-.28-.86.16.34,1.09.79.58S98.49,73.6,98.49,73.6Z"/><path class="cls-3" d="M99,74.61s-.77-.18-.84.28.5,1,.87.46S99,74.61,99,74.61Z"/><path class="cls-3" d="M99.48,75.37s-.77.18-.63.62.9.71,1,0S99.48,75.37,99.48,75.37Z"/><path class="cls-3" d="M100.41,76s-.69.39-.43.76,1.06.43,1-.24S100.41,76,100.41,76Z"/><path class="cls-3" d="M97.07,71s-.3-.79-.73-.58-.62,1,.1,1S97.07,71,97.07,71Z"/><path class="cls-3" d="M96.68,71.87s-.62-.58-.92-.19-.09,1.21.56.89S96.68,71.87,96.68,71.87Z"/><path class="cls-3" d="M96.72,73s-.76-.38-.93.08.25,1.19.78.69S96.72,73,96.72,73Z"/><path class="cls-3" d="M97.19,74.18s-.79-.3-.93.17.37,1.16.85.62S97.19,74.18,97.19,74.18Z"/><path class="cls-3" d="M97.75,75.26s-.82-.19-.89.29.52,1.1.92.5S97.75,75.26,97.75,75.26Z"/><path class="cls-3" d="M98.24,76.07s-.82.19-.67.65,1,.76,1.05,0S98.24,76.07,98.24,76.07Z"/><path class="cls-3" d="M99.23,76.69s-.74.42-.46.82,1.13.45,1-.26S99.23,76.69,99.23,76.69Z"/><path class="cls-3" d="M95.74,71.16s-.34-.9-.83-.65-.7,1.18.12,1.18S95.74,71.16,95.74,71.16Z"/><path class="cls-3" d="M95.3,72.13s-.7-.65-1-.22-.1,1.38.63,1S95.3,72.13,95.3,72.13Z"/><path class="cls-3" d="M95.34,73.45s-.85-.42-1,.09.29,1.35.88.79S95.34,73.45,95.34,73.45Z"/><path class="cls-3" d="M95.87,74.75s-.89-.34-1.05.19.41,1.31,1,.7S95.87,74.75,95.87,74.75Z"/><path class="cls-3" d="M96.5,76s-.92-.22-1,.33.59,1.24,1,.56S96.5,76,96.5,76Z"/><path class="cls-3" d="M97.06,76.89s-.93.21-.76.73,1.08.86,1.19,0S97.06,76.89,97.06,76.89Z"/><path class="cls-3" d="M98.18,77.59s-.83.47-.52.93,1.28.51,1.15-.3S98.18,77.59,98.18,77.59Z"/><path class="cls-3" d="M94.16,71.62s-.36-.94-.89-.69-.74,1.27.13,1.26S94.16,71.62,94.16,71.62Z"/><path class="cls-3" d="M93.69,72.66s-.75-.69-1.11-.23-.11,1.47.67,1.08S93.69,72.66,93.69,72.66Z"/><path class="cls-3" d="M93.73,74.07s-.91-.45-1.12.1.31,1.43,1,.83S93.73,74.07,93.73,74.07Z"/><path class="cls-3" d="M94.3,75.45s-1-.36-1.12.2.44,1.4,1,.75S94.3,75.45,94.3,75.45Z"/><path class="cls-3" d="M95,76.75s-1-.23-1.07.35.63,1.32,1.11.6S95,76.75,95,76.75Z"/><path class="cls-3" d="M95.56,77.72s-1,.23-.8.79,1.15.91,1.26,0S95.56,77.72,95.56,77.72Z"/><path class="cls-3" d="M96.76,78.47s-.89.5-.55,1,1.36.54,1.22-.31S96.76,78.47,96.76,78.47Z"/><path class="cls-3" d="M91.9,73.14s-.81-.75-1.21-.24-.12,1.6.74,1.17S91.9,73.14,91.9,73.14Z"/><path class="cls-3" d="M92,74.69s-1-.49-1.24.11.34,1.57,1,.92S92,74.69,92,74.69Z"/><path class="cls-3" d="M92.57,76.21s-1-.4-1.22.22.48,1.53,1.12.82S92.57,76.21,92.57,76.21Z"/><path class="cls-3" d="M93.32,77.63s-1.09-.25-1.18.39.69,1.45,1.22.65S93.32,77.63,93.32,77.63Z"/><path class="cls-3" d="M94,78.7s-1.09.26-.89.87,1.26,1,1.39.05S94,78.7,94,78.7Z"/><path class="cls-3" d="M90,73.77s-.87-.81-1.29-.27-.13,1.71.78,1.26S90,73.77,90,73.77Z"/><path class="cls-3" d="M90.08,75.42s-1.07-.53-1.32.11.37,1.67,1.11,1S90.08,75.42,90.08,75.42Z"/><path class="cls-3" d="M90.73,77s-1.1-.43-1.3.23.52,1.64,1.19.88S90.73,77,90.73,77Z"/><path class="cls-3" d="M88.56,78s-1.11-.43-1.3.23.51,1.63,1.19.87S88.56,78,88.56,78Z"/><path class="cls-3" d="M91.53,78.54s-1.16-.27-1.26.41.74,1.55,1.3.7S91.53,78.54,91.53,78.54Z"/><path class="cls-3" d="M92.22,79.69s-1.16.26-1,.92,1.35,1.06,1.48,0S92.22,79.69,92.22,79.69Z"/><path class="cls-4" d="M103,77.2s-6-2.23-11.7.38c-2.14,1-4,2.34-5.56,2.19-1.06-.1,2.68-2.56,4.89-3.5,5.7-2.41,4-6.56,4-6.56-10,3.19-9.5,6.66-11.71,9.78A1.83,1.83,0,0,1,82,80l1,2.6a2.89,2.89,0,0,1,1-.42C87.91,82.11,94.55,85.72,103,77.2Z"/><path class="cls-5" d="M81.94,80l1,2.6A2.75,2.75,0,0,1,84,82.16c3.62,0,9.6,3,17.2-3.32a18,18,0,0,0-7,1.25c-4.06,1.51-9.68,2.87-11.55-.43A2.73,2.73,0,0,1,81.94,80Z"/><path class="cls-2" d="M70.51,63S74.45,51.29,78,53.59,78.86,65.2,77.73,67s-5,9.24-7.13,8.51S69.06,65.45,70.51,63Z"/><path class="cls-3" d="M74.5,54.91s-.68,0-.65.39.6.77.81.23S74.5,54.91,74.5,54.91Z"/><path class="cls-3" d="M75.06,55.66s-.67.06-.61.45.68.71.83.15S75.06,55.66,75.06,55.66Z"/><path class="cls-3" d="M75.78,56.28s-.63.24-.46.59.84.49.84-.09S75.78,56.28,75.78,56.28Z"/><path class="cls-3" d="M76.71,56.62s-.61.3-.4.64.88.41.83-.17S76.71,56.62,76.71,56.62Z"/><path class="cls-3" d="M77.65,56.87s-.56.38-.31.69.94.28.8-.28S77.65,56.87,77.65,56.87Z"/><path class="cls-3" d="M78.4,57s-.33.59,0,.75,1-.15.6-.6S78.4,57,78.4,57Z"/><path class="cls-3" d="M79.37,56.78s-.29.62.08.75,1-.22.54-.63S79.37,56.78,79.37,56.78Z"/><path class="cls-3" d="M75.47,54.4s-.67.05-.61.44.67.71.83.15S75.47,54.4,75.47,54.4Z"/><path class="cls-3" d="M76.19,55s-.64.24-.46.6.84.49.84-.09S76.19,55,76.19,55Z"/><path class="cls-3" d="M77.12,55.36s-.61.3-.4.63.88.42.82-.16S77.12,55.36,77.12,55.36Z"/><path class="cls-3" d="M78.06,55.61s-.56.38-.31.68.94.29.8-.28S78.06,55.61,78.06,55.61Z"/><path class="cls-3" d="M78.81,55.76s-.33.59,0,.75,1-.16.59-.6S78.81,55.76,78.81,55.76Z"/><path class="cls-3" d="M76,53.49c-.2,0-.74.11-.68.47s.61.45.77-.06S76.09,53.49,76,53.49Z"/><path class="cls-3" d="M79.09,54.42c.18.11.57.49.34.76s-.76.06-.63-.45S79,54.37,79.09,54.42Z"/><path class="cls-3" d="M76.53,53.92s-.58.22-.42.54.77.45.77-.08S76.53,53.92,76.53,53.92Z"/><path class="cls-3" d="M77.38,54.24s-.55.27-.37.58.81.38.76-.15S77.38,54.24,77.38,54.24Z"/><path class="cls-3" d="M78.24,54.46s-.51.36-.28.63.86.26.73-.25S78.24,54.46,78.24,54.46Z"/><path class="cls-3" d="M77.18,53.19s-.62.05-.56.4.61.66.76.14S77.18,53.19,77.18,53.19Z"/><path class="cls-3" d="M77.8,53.51s-.31.54,0,.69.88-.15.54-.55S77.8,53.51,77.8,53.51Z"/><path class="cls-3" d="M74.26,56s-.68-.27-.79.13.3,1,.72.54S74.26,56,74.26,56Z"/><path class="cls-3" d="M74.57,56.76s-.72.06-.65.47.72.76.89.17S74.57,56.76,74.57,56.76Z"/><path class="cls-3" d="M75.33,57.41s-.67.26-.49.64.9.52.89-.1S75.33,57.41,75.33,57.41Z"/><path class="cls-3" d="M76.32,57.78s-.64.32-.43.68,1,.44.88-.18S76.32,57.78,76.32,57.78Z"/><path class="cls-3" d="M77.33,58.05s-.6.41-.33.73,1,.3.84-.3S77.33,58.05,77.33,58.05Z"/><path class="cls-3" d="M78.12,58.21s-.35.63,0,.8,1-.17.63-.64S78.12,58.21,78.12,58.21Z"/><path class="cls-3" d="M79.09,57.94s-.16.71.25.76.94-.45.42-.79S79.09,57.94,79.09,57.94Z"/><path class="cls-3" d="M73.63,57.11s-.74-.29-.87.14.34,1.1.79.6S73.63,57.11,73.63,57.11Z"/><path class="cls-3" d="M74,57.93s-.79.06-.71.51.78.84,1,.18S74,57.93,74,57.93Z"/><path class="cls-3" d="M74.81,58.64s-.75.29-.54.7,1,.57,1-.1S74.81,58.64,74.81,58.64Z"/><path class="cls-3" d="M75.89,59.05s-.71.35-.47.74,1,.49,1-.19S75.89,59.05,75.89,59.05Z"/><path class="cls-3" d="M77,59.34s-.66.45-.36.8,1.09.34.92-.32S77,59.34,77,59.34Z"/><path class="cls-3" d="M77.87,59.51s-.39.69,0,.88,1.13-.18.69-.7S77.87,59.51,77.87,59.51Z"/><path class="cls-3" d="M78.93,59.22s-.18.77.27.84,1-.5.47-.87S78.93,59.22,78.93,59.22Z"/><path class="cls-3" d="M73,58.34s-.79-.31-.92.16.35,1.16.84.62S73,58.34,73,58.34Z"/><path class="cls-3" d="M73.39,59.21s-.84.07-.75.55.83.89,1,.19S73.39,59.21,73.39,59.21Z"/><path class="cls-3" d="M74.28,60s-.78.31-.57.74,1.05.62,1-.11S74.28,60,74.28,60Z"/><path class="cls-3" d="M75.44,60.41s-.75.37-.5.79,1.1.51,1-.21S75.44,60.41,75.44,60.41Z"/><path class="cls-3" d="M76.62,60.71s-.7.48-.39.86,1.16.35,1-.35S76.62,60.71,76.62,60.71Z"/><path class="cls-3" d="M77.55,60.9s-.42.74,0,.94,1.21-.2.74-.75S77.55,60.9,77.55,60.9Z"/><path class="cls-3" d="M78.67,60.59s-.19.82.3.89,1.09-.53.49-.93S78.67,60.59,78.67,60.59Z"/><path class="cls-3" d="M72.23,59.42s-.88-.35-1,.18.41,1.32,1,.71S72.23,59.42,72.23,59.42Z"/><path class="cls-3" d="M72.65,60.41s-1,.08-.86.62.95,1,1.17.22S72.65,60.41,72.65,60.41Z"/><path class="cls-3" d="M73.66,61.27s-.89.34-.65.84,1.19.69,1.18-.12S73.66,61.27,73.66,61.27Z"/><path class="cls-3" d="M75,61.76s-.85.42-.57.89,1.25.59,1.17-.23S75,61.76,75,61.76Z"/><path class="cls-3" d="M76.3,62.11s-.79.54-.44,1,1.32.4,1.12-.4S76.3,62.11,76.3,62.11Z"/><path class="cls-3" d="M77.35,62.32s-.47.83,0,1.06,1.36-.22.84-.85S77.35,62.32,77.35,62.32Z"/><path class="cls-3" d="M78.63,62s-.22.93.33,1,1.24-.6.56-1S78.63,62,78.63,62Z"/><path class="cls-3" d="M71.51,60.91s-.94-.38-1.11.18.43,1.41,1,.76S71.51,60.91,71.51,60.91Z"/><path class="cls-3" d="M72,62s-1,.08-.91.66,1,1.07,1.24.23S72,62,72,62Z"/><path class="cls-3" d="M73,62.87s-1,.37-.69.9,1.27.74,1.26-.14S73,62.87,73,62.87Z"/><path class="cls-3" d="M74.43,63.39s-.92.45-.61,1,1.33.62,1.24-.25S74.43,63.39,74.43,63.39Z"/><path class="cls-3" d="M75.84,63.77s-.84.57-.47,1,1.41.42,1.2-.42S75.84,63.77,75.84,63.77Z"/><path class="cls-3" d="M77,64s-.5.89,0,1.13,1.45-.24.89-.9S77,64,77,64Z"/><path class="cls-3" d="M78.32,63.62s-.23,1,.35,1.07,1.32-.64.6-1.12S78.32,63.62,78.32,63.62Z"/><path class="cls-3" d="M71.11,63.6s-1.11.09-1,.73,1.1,1.16,1.36.25S71.11,63.6,71.11,63.6Z"/><path class="cls-3" d="M72.29,64.6s-1.05.41-.76,1,1.39.81,1.38-.15S72.29,64.6,72.29,64.6Z"/><path class="cls-3" d="M73.82,65.18s-1,.49-.66,1,1.46.68,1.36-.27S73.82,65.18,73.82,65.18Z"/><path class="cls-3" d="M75.37,65.59s-.92.63-.51,1.12,1.54.47,1.31-.45S75.37,65.59,75.37,65.59Z"/><path class="cls-3" d="M76.6,65.83s-.55,1,0,1.24,1.59-.26,1-1S76.6,65.83,76.6,65.83Z"/><path class="cls-3" d="M70.3,65.41s-1.19.09-1.07.77,1.17,1.25,1.45.27S70.3,65.41,70.3,65.41Z"/><path class="cls-3" d="M71.55,66.48s-1.11.42-.81,1,1.49.86,1.47-.15S71.55,66.48,71.55,66.48Z"/><path class="cls-3" d="M73.18,67.08s-1.06.53-.7,1.12,1.55.72,1.45-.29S73.18,67.08,73.18,67.08Z"/><path class="cls-3" d="M72.45,69.36s-1.06.53-.71,1.12,1.55.72,1.45-.29S72.45,69.36,72.45,69.36Z"/><path class="cls-3" d="M74.84,67.52s-1,.67-.55,1.2,1.64.5,1.4-.48S74.84,67.52,74.84,67.52Z"/><path class="cls-3" d="M76.14,67.79s-.58,1,0,1.31,1.69-.27,1-1S76.14,67.79,76.14,67.79Z"/><path class="cls-4" d="M81.58,58.16s-5.67,2.9-7.62,8.89c-.73,2.24-.95,4.5-2.14,5.58-.79.71-.08-3.71.72-6,2.07-5.83-2.16-7.36-2.16-7.36-4.4,9.55-1.5,11.51-.69,15.24a1.77,1.77,0,0,1-.27,1l2.6,1a2.86,2.86,0,0,1,.41-1.06C75,72.59,82.16,70.14,81.58,58.16Z"/><path class="cls-5" d="M69.42,75.56l2.6,1a2.86,2.86,0,0,1,.41-1.06c2.4-2.71,8.73-5,9.16-14.93a18.13,18.13,0,0,0-3.79,6c-1.62,4-4.42,9.08-8.12,8.22A2.59,2.59,0,0,1,69.42,75.56Z"/><path class="cls-2" d="M61,79.72S44.19,74.37,47.39,69.19,64,67.7,66.67,69.28s13.37,7,12.38,10S64.61,81.73,61,79.72Z"/><path class="cls-3" d="M49.39,74.2s0,1,.56.92,1.09-.88.31-1.17S49.39,74.2,49.39,74.2Z"/><path class="cls-3" d="M50.44,73.37s.1,1,.65.87,1-1,.2-1.2S50.44,73.37,50.44,73.37Z"/><path class="cls-3" d="M51.3,72.33s.37.91.87.65.68-1.23-.15-1.2S51.3,72.33,51.3,72.33Z"/><path class="cls-3" d="M51.78,71s.44.86.92.56.57-1.28-.26-1.18S51.78,71,51.78,71Z"/><path class="cls-3" d="M52.11,69.63s.56.79,1,.43.39-1.35-.42-1.14S52.11,69.63,52.11,69.63Z"/><path class="cls-3" d="M52.31,68.56s.85.46,1.08,0-.25-1.39-.88-.84S52.31,68.56,52.31,68.56Z"/><path class="cls-3" d="M52,67.17s.88.41,1.07-.12-.34-1.36-.93-.77S52,67.17,52,67.17Z"/><path class="cls-3" d="M48.62,72.82s.1,1,.65.86,1-1,.2-1.19S48.62,72.82,48.62,72.82Z"/><path class="cls-3" d="M49.48,71.78s.36.9.87.64.68-1.22-.15-1.19S49.48,71.78,49.48,71.78Z"/><path class="cls-3" d="M50,70.44s.44.86.91.56.58-1.28-.25-1.18S50,70.44,50,70.44Z"/><path class="cls-3" d="M50.29,69.08s.56.79,1,.43.38-1.35-.42-1.14S50.29,69.08,50.29,69.08Z"/><path class="cls-3" d="M50.48,68s.86.47,1.08,0-.25-1.38-.87-.83S50.48,68,50.48,68Z"/><path class="cls-3" d="M47.31,72.11c0,.3.18,1.06.68,1s.64-.89-.09-1.11C47.36,71.8,47.31,72,47.31,72.11Z"/><path class="cls-3" d="M48.57,67.63c.14-.26.68-.83,1.07-.5s.11,1.09-.63.92C48.47,67.93,48.49,67.77,48.57,67.63Z"/><path class="cls-3" d="M47.91,71.32s.33.82.79.59.63-1.12-.13-1.1S47.91,71.32,47.91,71.32Z"/><path class="cls-3" d="M48.34,70.09s.41.79.84.51.53-1.17-.23-1.08S48.34,70.09,48.34,70.09Z"/><path class="cls-3" d="M48.65,68.84s.51.73.9.4.36-1.24-.38-1S48.65,68.84,48.65,68.84Z"/><path class="cls-3" d="M46.85,70.4s.09.89.59.79.92-.89.18-1.09S46.85,70.4,46.85,70.4Z"/><path class="cls-3" d="M47.29,69.51s.78.42,1-.05-.22-1.26-.8-.76S47.29,69.51,47.29,69.51Z"/><path class="cls-3" d="M51,74.52s-.36,1,.21,1.13,1.42-.46.75-1S51,74.52,51,74.52Z"/><path class="cls-3" d="M52,74.06s.1,1,.69.91,1.07-1,.21-1.27S52,74.06,52,74.06Z"/><path class="cls-3" d="M53,73s.38,1,.92.68.73-1.3-.16-1.27S53,73,53,73Z"/><path class="cls-3" d="M53.45,71.52s.48.91,1,.6.61-1.37-.27-1.26S53.45,71.52,53.45,71.52Z"/><path class="cls-3" d="M53.81,70.07s.6.84,1,.46.41-1.44-.44-1.21S53.81,70.07,53.81,70.07Z"/><path class="cls-3" d="M54,68.93s.91.49,1.14-.06-.26-1.47-.93-.88S54,68.93,54,68.93Z"/><path class="cls-3" d="M53.61,67.55s1,.22,1.09-.38-.68-1.33-1.15-.59S53.61,67.55,53.61,67.55Z"/><path class="cls-3" d="M52.55,75.4s-.4,1.06.23,1.24,1.56-.51.83-1.15S52.55,75.4,52.55,75.4Z"/><path class="cls-3" d="M53.72,74.89s.11,1.13.75,1,1.18-1.15.24-1.4S53.72,74.89,53.72,74.89Z"/><path class="cls-3" d="M54.72,73.67s.43,1,1,.76.8-1.43-.17-1.41S54.72,73.67,54.72,73.67Z"/><path class="cls-3" d="M55.28,72.1s.52,1,1.07.66.67-1.5-.3-1.38S55.28,72.1,55.28,72.1Z"/><path class="cls-3" d="M55.67,70.51s.65.93,1.15.5.45-1.57-.49-1.32S55.67,70.51,55.67,70.51Z"/><path class="cls-3" d="M55.89,69.26s1,.54,1.26-.06-.29-1.62-1-1S55.89,69.26,55.89,69.26Z"/><path class="cls-3" d="M55.45,67.75s1.11.23,1.19-.42-.73-1.46-1.25-.64S55.45,67.75,55.45,67.75Z"/><path class="cls-3" d="M54.33,76.23s-.42,1.13.25,1.32,1.66-.54.88-1.22S54.33,76.23,54.33,76.23Z"/><path class="cls-3" d="M55.57,75.68s.12,1.21.81,1.08,1.25-1.22.25-1.49S55.57,75.68,55.57,75.68Z"/><path class="cls-3" d="M56.64,74.39s.45,1.12,1.08.8.85-1.52-.19-1.49S56.64,74.39,56.64,74.39Z"/><path class="cls-3" d="M57.23,72.71s.55,1.08,1.14.71.72-1.6-.31-1.47S57.23,72.71,57.23,72.71Z"/><path class="cls-3" d="M57.64,71s.71,1,1.24.53.48-1.68-.52-1.41S57.64,71,57.64,71Z"/><path class="cls-3" d="M57.89,69.69s1.06.58,1.34-.07-.31-1.71-1.09-1S57.89,69.69,57.89,69.69Z"/><path class="cls-3" d="M57.42,68.08s1.18.25,1.26-.44-.78-1.56-1.33-.69S57.42,68.08,57.42,68.08Z"/><path class="cls-3" d="M55.9,77.34s-.48,1.28.28,1.49,1.88-.62,1-1.39S55.9,77.34,55.9,77.34Z"/><path class="cls-3" d="M57.31,76.72s.13,1.36.91,1.21,1.41-1.38.28-1.68S57.31,76.72,57.31,76.72Z"/><path class="cls-3" d="M58.52,75.25s.51,1.27,1.21.91,1-1.72-.2-1.69S58.52,75.25,58.52,75.25Z"/><path class="cls-3" d="M59.18,73.36s.63,1.21,1.3.79.81-1.8-.36-1.66S59.18,73.36,59.18,73.36Z"/><path class="cls-3" d="M59.65,71.44s.8,1.12,1.4.61.54-1.9-.59-1.6S59.65,71.44,59.65,71.44Z"/><path class="cls-3" d="M59.93,69.93s1.2.66,1.52-.07-.35-2-1.24-1.17S59.93,69.93,59.93,69.93Z"/><path class="cls-3" d="M59.39,68.11s1.34.29,1.44-.5-.89-1.76-1.52-.78S59.39,68.11,59.39,68.11Z"/><path class="cls-3" d="M58,78.33s-.51,1.37.3,1.59,2-.65,1.06-1.47S58,78.33,58,78.33Z"/><path class="cls-3" d="M59.54,77.68s.15,1.45,1,1.29,1.51-1.47.3-1.79S59.54,77.68,59.54,77.68Z"/><path class="cls-3" d="M60.83,76.11s.55,1.35,1.3,1,1-1.83-.23-1.8S60.83,76.11,60.83,76.11Z"/><path class="cls-3" d="M61.54,74.1s.67,1.29,1.38.84.86-1.91-.38-1.77S61.54,74.1,61.54,74.1Z"/><path class="cls-3" d="M62,72.06s.84,1.19,1.48.64.58-2-.62-1.69S62,72.06,62,72.06Z"/><path class="cls-3" d="M62.33,70.45s1.29.7,1.62-.08-.37-2.06-1.31-1.24S62.33,70.45,62.33,70.45Z"/><path class="cls-3" d="M61.76,68.51s1.43.31,1.53-.53-.94-1.88-1.61-.82S61.76,68.51,61.76,68.51Z"/><path class="cls-3" d="M61.91,78.85s.16,1.59,1.07,1.42,1.65-1.61.33-2S61.91,78.85,61.91,78.85Z"/><path class="cls-3" d="M63.33,77.13s.6,1.49,1.42,1.06,1.13-2-.24-2S63.33,77.13,63.33,77.13Z"/><path class="cls-3" d="M64.11,74.92s.73,1.42,1.51.93.94-2.11-.42-1.95S64.11,74.92,64.11,74.92Z"/><path class="cls-3" d="M64.66,72.69s.92,1.3,1.63.7.63-2.22-.69-1.86S64.66,72.69,64.66,72.69Z"/><path class="cls-3" d="M65,70.92s1.41.76,1.77-.08-.41-2.28-1.44-1.38S65,70.92,65,70.92Z"/><path class="cls-3" d="M64.53,80s.16,1.7,1.13,1.52,1.76-1.72.35-2.09S64.53,80,64.53,80Z"/><path class="cls-3" d="M66,78.14s.64,1.58,1.52,1.13,1.2-2.14-.26-2.1S66,78.14,66,78.14Z"/><path class="cls-3" d="M66.86,75.79s.78,1.51,1.61,1,1-2.24-.44-2.07S66.86,75.79,66.86,75.79Z"/><path class="cls-3" d="M70.14,76.78s.78,1.52,1.62,1,1-2.24-.45-2.07S70.14,76.78,70.14,76.78Z"/><path class="cls-3" d="M67.45,73.41s1,1.39,1.73.75.68-2.36-.73-2S67.45,73.41,67.45,73.41Z"/><path class="cls-3" d="M67.79,71.53s1.5.81,1.89-.09S69.24,69,68.14,70,67.79,71.53,67.79,71.53Z"/><path class="cls-4" d="M53.87,64s4.29,8,12.93,10.67c3.22,1,6.46,1.26,8,2.94,1,1.11-5.31.2-8.57-.89C57.86,73.9,55.78,80,55.78,80c13.78,6.08,16.52,1.87,21.86.61a2.62,2.62,0,0,1,1.47.36l1.37-3.75A4.09,4.09,0,0,1,79,76.66C74.71,73,71,62.84,53.87,64Z"/><path class="cls-5" d="M79.11,81l1.37-3.75A4.14,4.14,0,0,1,79,76.66c-4-3.38-7.46-12.39-21.67-12.76A26.19,26.19,0,0,0,66,69.18c5.8,2.23,13.12,6.11,12,11.44A3.94,3.94,0,0,1,79.11,81Z"/><path class="cls-4" d="M85.87,85.4a2.3,2.3,0,1,0,2.42-2.18h-.12A2.25,2.25,0,0,0,85.87,85.4Z"/><path class="cls-1" d="M45.94,85.4a1.1,1.1,0,1,0,1.15-1.05H47A1.07,1.07,0,0,0,45.94,85.4Z"/><path class="cls-1" d="M65,86.42a1.12,1.12,0,1,0,1.17-1.07h0A1.09,1.09,0,0,0,65,86.41Z"/><path class="cls-6" d="M37,74.22s-.34,11.36.28,15,70.4.34,70.4.34,3.37-15.48,1.65-15.38C88.84,75.45,65.3,76.55,37,74.22Z"/><g class="cls-7"><path d="M71,90.84a15.77,15.77,0,0,0-29.84-.43C47.08,91.08,58.93,91.08,71,90.84Z"/></g><path class="cls-8" d="M67.06,96.32A11.44,11.44,0,1,1,55,85.55h0A11.45,11.45,0,0,1,67.06,96.32Z"/><path class="cls-9" d="M63.84,96.82a8.2,8.2,0,1,1-8.65-7.72h0A8.2,8.2,0,0,1,63.84,96.82Z"/><path class="cls-8" d="M58.66,97.11a3.22,3.22,0,1,1-3.43-3h0A3.23,3.23,0,0,1,58.66,97.11Z"/><path class="cls-8" d="M57.82,87.17l-4.77.27s-.78-2.83-.2-3.48c.79-.89,3.88-1.07,4.77-.27C58.27,84.27,57.82,87.17,57.82,87.17Z"/><path class="cls-8" d="M52.12,87.08,48.59,90.3s-2.39-1.7-2.35-2.57c.06-1.2,2.34-3.28,3.53-3.23C50.64,84.54,52.12,87.08,52.12,87.08Z"/><path class="cls-8" d="M62.31,89.78,58.44,87s1.2-2.68,2.06-2.81c1.18-.19,3.68,1.64,3.86,2.82C64.49,87.83,62.31,89.78,62.31,89.78Z"/><path class="cls-8" d="M65.07,94.56l-2-4.36s2.37-1.74,3.18-1.43c1.12.43,2.39,3.25,2,4.36C67.94,94,65.07,94.56,65.07,94.56Z"/><path class="cls-8" d="M65,100l.21-4.78s2.9-.48,3.48.16c.81.89.67,4-.21,4.78C67.87,100.79,65,100,65,100Z"/><path class="cls-8" d="M61.9,104.35l3-3.77s2.63,1.29,2.73,2.16c.15,1.18-1.76,3.62-3,3.76C63.78,106.6,61.9,104.35,61.9,104.35Z"/><path class="cls-8" d="M56.69,107.39l4.24-2.2s1.87,2.27,1.6,3.1c-.36,1.14-3.1,2.56-4.24,2.19C57.46,110.22,56.69,107.39,56.69,107.39Z"/><path class="cls-8" d="M51,106.11l4.73.71s.18,2.93-.52,3.44c-1,.71-4,.25-4.73-.71C50,108.85,51,106.11,51,106.11Z"/><path class="cls-8" d="M46.55,102.22,50,105.51S48.47,108,47.6,108c-1.19,0-3.43-2.09-3.46-3.29C44.13,103.87,46.55,102.22,46.55,102.22Z"/><path class="cls-8" d="M45.54,96.2l.17,4.78s-2.85.71-3.48.12c-.88-.82-1-3.91-.17-4.78C42.66,95.68,45.54,96.2,45.54,96.2Z"/><path class="cls-8" d="M47.35,90.8l-2.46,4.09s-2.78-1-3-1.8c-.29-1.15,1.31-3.8,2.47-4.09C45.22,88.79,47.35,90.8,47.35,90.8Z"/><path class="cls-10" d="M127.57,73.23a2.68,2.68,0,0,0-3-1c-2,.76-4.85,4-7.76,3.56s-3.59-2.35-4.23-3.53-.31-2-.76-2.61-1.19-.1-.64,2c.26,1,.94,6.26,4.3,7.47C119.83,80.75,129.23,76.11,127.57,73.23Z"/><path class="cls-11" d="M127.25,72.16s1.54,1.76-1,4.13a18.6,18.6,0,0,1-4,3A8.92,8.92,0,0,1,119,74.87S125.44,69.38,127.25,72.16Z"/><path class="cls-12" d="M106.56,95.32c1.09,3.23,3.41,7.33,3.79,9.6.06.36,0,.5-1.1.94s0,1,2,.85.16-9.76-1.17-14.22C108.94,88.6,105.28,91.58,106.56,95.32Z"/><path class="cls-13" d="M112.08,105.67s-1.71.88-2.83.19c0,0-2,.42-.69.87S112.26,107.46,112.08,105.67Z"/><path class="cls-14" d="M117.29,83.71s-10.33-1.08-13,.82,5,19.82,5,19.82,2.74-.42,3.06-2.4c1.2-7.41,1.46-9.87,1.46-9.87l10.82-.69Z"/><path class="cls-12" d="M127.35,105c3.58.12,8.48-.63,10.85-.17.38.08.51.16.51,1.44s1,.35,1.6-1.69-9.54-3.78-14.42-4.12C121.63,100.17,123.19,104.88,127.35,105Z"/><path class="cls-13" d="M139.58,103.44s.23,2-.87,2.85c0,0-.31,2.08.6,1S141.41,103.92,139.58,103.44Z"/><path class="cls-14" d="M120.21,87.4s-5.19,12.5-4.32,15.86,21.36,2.43,21.36,2.43.6-2.85-1.22-3.9c-6.84-3.94-9.42-4-9.42-4l2.73-11.07Z"/><path class="cls-15" d="M114.55,86.74a4.13,4.13,0,0,0,3.31-2.91l-.33-.08a3.72,3.72,0,0,1-3,2.65Z"/><path class="cls-15" d="M127.16,93.62l.16-.3a3.75,3.75,0,0,1-2.06-3.47h-.34A4.06,4.06,0,0,0,127.16,93.62Z"/><path class="cls-16" d="M133.39,75.21h0a10.46,10.46,0,0,0-3.09-2.4c-2.19-1.3-6.09-2.7-8.65,1A26.48,26.48,0,0,0,119.06,79c-.18.45-.36.9-.5,1.35-.7,2-1.88,3.06-1.65,4.36.6,3.3,9.69,10.43,12.69,4.11.45-1,2.22-7.13,3.05-8.22C134.52,78.16,134.31,76.47,133.39,75.21Z"/><path class="cls-10" d="M131,69.79s-1.51,1.46-.62,2.89-5.1,2.21-4.58,1.22c.67-1.29,1.66-1.82,1.6-3.62Z"/><path class="cls-12" d="M129.5,65.32c-1.56.64-4.6,4.92-3.79,6.42.35.66,2.69,1,4.85-.6a4.27,4.27,0,0,0,1.95-3.92C132.39,66.34,131.31,64.58,129.5,65.32Z"/><path class="cls-13" d="M128.11,65.45c-.47.5-.45.66,1.23,1.62s2,1,1.69,1.31c-1,1.05.36,1.29-.87,2.54s.63.91,1.76-.06a3.63,3.63,0,0,0,1.27-3.31C133,65,129.88,63.62,128.11,65.45Z"/><path class="cls-2" d="M113.37,83.34s-10-12.17-5.05-14.46,13.11,7,14.33,9.43S129.24,90,127,91.78,115.07,86.59,113.37,83.34Z"/><path class="cls-3" d="M107.37,73.58s-.47.73,0,1,1.24-.13.79-.72S107.37,73.58,107.37,73.58Z"/><path class="cls-3" d="M108.56,73.48s-.4.76.07,1,1.22-.24.72-.79S108.56,73.48,108.56,73.48Z"/><path class="cls-3" d="M109.71,73.12s-.17.84.33.9,1.11-.58.47-1S109.71,73.12,109.71,73.12Z"/><path class="cls-3" d="M110.72,72.34s-.09.86.41.87,1.05-.68.38-1S110.72,72.34,110.72,72.34Z"/><path class="cls-3" d="M111.62,71.49s0,.87.53.8.95-.81.24-1S111.62,71.49,111.62,71.49Z"/><path class="cls-3" d="M112.29,70.79s.42.76.83.48.49-1.15-.25-1S112.29,70.79,112.29,70.79Z"/><path class="cls-3" d="M112.7,69.58s.46.73.86.43.4-1.18-.32-1S112.7,69.58,112.7,69.58Z"/><path class="cls-3" d="M107.48,72.18s-.4.76.06.95,1.22-.24.73-.79S107.48,72.18,107.48,72.18Z"/><path class="cls-3" d="M108.62,71.82s-.16.85.33.9,1.11-.58.47-1S108.62,71.82,108.62,71.82Z"/><path class="cls-3" d="M109.63,71s-.09.86.41.87,1-.68.38-1S109.63,71,109.63,71Z"/><path class="cls-3" d="M110.53,70.19s0,.87.54.8.94-.81.23-1S110.53,70.19,110.53,70.19Z"/><path class="cls-3" d="M111.21,69.49s.41.76.82.48.49-1.15-.25-1S111.21,69.49,111.21,69.49Z"/><path class="cls-3" d="M106.84,71c-.15.22-.38.88,0,1a.51.51,0,0,0,.47-.87C106.88,70.61,106.91,70.89,106.84,71Z"/><path class="cls-3" d="M110,68.28c.24-.12.92-.29,1,.15s-.44.86-.92.38S109.83,68.34,110,68.28Z"/><path class="cls-3" d="M107.67,70.71s-.15.78.31.82,1-.53.43-.88S107.67,70.71,107.67,70.71Z"/><path class="cls-3" d="M108.59,70s-.07.79.38.79,1-.62.35-.91S108.59,70,108.59,70Z"/><path class="cls-3" d="M109.42,69.22s0,.79.49.73.86-.74.22-1S109.42,69.22,109.42,69.22Z"/><path class="cls-3" d="M107.33,69.51s-.37.7,0,.88,1.12-.22.67-.73S107.33,69.51,107.33,69.51Z"/><path class="cls-3" d="M108.09,69.06s.38.7.75.44.45-1-.22-1S108.09,69.06,108.09,69.06Z"/><path class="cls-3" d="M108.4,74.59s-.75.54-.39.94,1.28.34,1.06-.41S108.4,74.59,108.4,74.59Z"/><path class="cls-3" d="M109.42,74.75s-.43.82.07,1,1.3-.25.77-.84S109.42,74.75,109.42,74.75Z"/><path class="cls-3" d="M110.64,74.37s-.18.91.35,1,1.18-.62.5-1S110.64,74.37,110.64,74.37Z"/><path class="cls-3" d="M111.71,73.55s-.09.91.44.92,1.12-.72.41-1.07S111.71,73.55,111.71,73.55Z"/><path class="cls-3" d="M112.68,72.64s0,.93.56.86,1-.88.25-1.12S112.68,72.64,112.68,72.64Z"/><path class="cls-3" d="M113.39,71.89s.44.81.88.52.52-1.23-.26-1.12S113.39,71.89,113.39,71.89Z"/><path class="cls-3" d="M113.75,70.67s.65.65,1,.24.14-1.32-.57-1S113.75,70.67,113.75,70.67Z"/><path class="cls-3" d="M109.15,76s-.81.6-.42,1,1.4.38,1.16-.45S109.15,76,109.15,76Z"/><path class="cls-3" d="M110.27,76.19s-.47.9.07,1.12,1.44-.28.85-.92S110.27,76.19,110.27,76.19Z"/><path class="cls-3" d="M111.61,75.77s-.2,1,.39,1.06,1.29-.68.55-1.13S111.61,75.77,111.61,75.77Z"/><path class="cls-3" d="M112.79,74.87s-.11,1,.48,1,1.22-.79.45-1.17S112.79,74.87,112.79,74.87Z"/><path class="cls-3" d="M113.85,73.88s0,1,.62.93,1.1-1,.28-1.22S113.85,73.88,113.85,73.88Z"/><path class="cls-3" d="M114.63,73.05s.48.89,1,.57.56-1.34-.3-1.22S114.63,73.05,114.63,73.05Z"/><path class="cls-3" d="M115,71.71s.71.71,1.09.27.16-1.45-.63-1.09S115,71.71,115,71.71Z"/><path class="cls-3" d="M110.07,77.49s-.86.64-.45,1.1,1.5.41,1.25-.48S110.07,77.49,110.07,77.49Z"/><path class="cls-3" d="M111.27,77.69s-.5,1,.07,1.19,1.53-.3.91-1S111.27,77.69,111.27,77.69Z"/><path class="cls-3" d="M112.69,77.24s-.21,1.05.41,1.12,1.38-.72.59-1.2S112.69,77.24,112.69,77.24Z"/><path class="cls-3" d="M113.94,76.28s-.1,1.07.52,1.08,1.3-.85.48-1.25S113.94,76.28,113.94,76.28Z"/><path class="cls-3" d="M115.08,75.22s0,1.08.65,1,1.18-1,.3-1.3S115.08,75.22,115.08,75.22Z"/><path class="cls-3" d="M115.91,74.34s.51,1,1,.61.6-1.43-.31-1.31S115.91,74.34,115.91,74.34Z"/><path class="cls-3" d="M116.33,72.91s.76.76,1.16.29.18-1.54-.66-1.16S116.33,72.91,116.33,72.91Z"/><path class="cls-3" d="M110.71,79.08s-1,.72-.52,1.25,1.7.45,1.41-.55S110.71,79.08,110.71,79.08Z"/><path class="cls-3" d="M112.06,79.3s-.57,1.08.09,1.35,1.72-.35,1-1.12S112.06,79.3,112.06,79.3Z"/><path class="cls-3" d="M113.67,78.79s-.23,1.2.47,1.27,1.55-.81.66-1.36S113.67,78.79,113.67,78.79Z"/><path class="cls-3" d="M115.09,77.71s-.12,1.21.58,1.22,1.48-1,.54-1.42S115.09,77.71,115.09,77.71Z"/><path class="cls-3" d="M116.37,76.51s0,1.22.74,1.13,1.33-1.16.34-1.48S116.37,76.51,116.37,76.51Z"/><path class="cls-3" d="M117.31,75.52s.58,1.07,1.17.68.68-1.62-.36-1.48S117.31,75.52,117.31,75.52Z"/><path class="cls-3" d="M117.79,73.9s.86.86,1.32.32.2-1.75-.76-1.31S117.79,73.9,117.79,73.9Z"/><path class="cls-3" d="M111.82,80.86s-1,.77-.55,1.33,1.81.49,1.51-.58S111.82,80.86,111.82,80.86Z"/><path class="cls-3" d="M113.26,81.1s-.6,1.15.09,1.43,1.84-.36,1.09-1.18S113.26,81.1,113.26,81.1Z"/><path class="cls-3" d="M115,80.56s-.25,1.27.49,1.35,1.66-.87.71-1.45S115,80.56,115,80.56Z"/><path class="cls-3" d="M116.48,79.4s-.13,1.29.62,1.3,1.57-1,.58-1.5S116.48,79.4,116.48,79.4Z"/><path class="cls-3" d="M117.85,78.13s.05,1.29.79,1.2,1.42-1.23.36-1.57S117.85,78.13,117.85,78.13Z"/><path class="cls-3" d="M118.85,77.07s.62,1.14,1.24.73.73-1.73-.37-1.57S118.85,77.07,118.85,77.07Z"/><path class="cls-3" d="M119.37,75.35s.91.92,1.39.34.21-1.86-.8-1.4S119.37,75.35,119.37,75.35Z"/><path class="cls-3" d="M114.46,83.13s-.66,1.26.1,1.57,2-.4,1.2-1.3S114.46,83.13,114.46,83.13Z"/><path class="cls-3" d="M116.34,82.53s-.27,1.4.55,1.49,1.82-1,.78-1.59S116.34,82.53,116.34,82.53Z"/><path class="cls-3" d="M118,81.26s-.14,1.42.68,1.43,1.72-1.11.63-1.65S118,81.26,118,81.26Z"/><path class="cls-3" d="M119.49,79.87s.06,1.42.88,1.31,1.55-1.34.39-1.72S119.49,79.87,119.49,79.87Z"/><path class="cls-3" d="M120.59,78.71s.68,1.25,1.37.79.8-1.89-.41-1.72S120.59,78.71,120.59,78.71Z"/><path class="cls-3" d="M115.86,85.23s-.7,1.35.11,1.68,2.15-.43,1.28-1.39S115.86,85.23,115.86,85.23Z"/><path class="cls-3" d="M117.87,84.6s-.29,1.49.58,1.58,1.94-1,.83-1.69S117.87,84.6,117.87,84.6Z"/><path class="cls-3" d="M119.63,83.25s-.15,1.5.72,1.52,1.84-1.19.68-1.76S119.63,83.25,119.63,83.25Z"/><path class="cls-3" d="M121.6,85.58s-.16,1.51.71,1.52,1.84-1.18.68-1.76S121.6,85.58,121.6,85.58Z"/><path class="cls-3" d="M121.22,81.76s.06,1.51.93,1.4,1.65-1.43.42-1.83S121.22,81.76,121.22,81.76Z"/><path class="cls-3" d="M122.39,80.52s.73,1.33,1.45.85.85-2-.43-1.83S122.39,80.52,122.39,80.52Z"/><path class="cls-4" d="M115.69,68.12s-.72,8.1,4.44,14.26c1.92,2.31,4.21,4.08,4.56,6.1.24,1.34-4-2.43-6-4.83-4.9-6.18-9.42-2.65-9.42-2.65,7.33,11.23,11.41,9.42,16,11.08.51.18.92,1,.92,1L129,91a3.54,3.54,0,0,1-.87-1.16C126.83,85,129,75.62,115.69,68.12Z"/><path class="cls-5" d="M126.24,93.06l2.85-2.13a3.54,3.54,0,0,1-.87-1.16c-1.29-4.43.5-12.84-9.92-20a23.07,23.07,0,0,0,3.91,8.16c3.23,4.48,6.81,10.93,3.38,14.35A3.74,3.74,0,0,1,126.24,93.06Z"/><path class="cls-12" d="M133.17,75.19a2.17,2.17,0,0,0-2.74.43C129,77,127.68,81,125,81.63s-4-.72-5-1.53-1-1.6-1.65-2-1.07.36.21,2c.61.8,3.16,5.14,6.56,5C129.49,84.85,135.71,77.1,133.17,75.19Z"/><path class="cls-11" d="M132.84,74.8s2,1,.65,4a17.9,17.9,0,0,1-2.36,4.2,8.54,8.54,0,0,1-4.54-2.7S130.21,73,132.84,74.8Z"/><path class="cls-17" d="M148.12,59.4a3.6,3.6,0,0,0-3.2.88A5,5,0,0,0,140,56.59a5.13,5.13,0,0,0-2.89.89,3.63,3.63,0,0,0-3.56-3.43,3.55,3.55,0,0,0-2.94,1.59,7.59,7.59,0,0,0-.65-1.59c-1.44-2.59-4-3.94-5.67-3A2.89,2.89,0,0,0,123,53.3a3.77,3.77,0,0,0-1-.14,4.17,4.17,0,0,0-4.17,4.17,4.53,4.53,0,0,0,.07.74,4.61,4.61,0,0,0-2.09,3.85,4.38,4.38,0,0,0,.33,1.68h33C149.48,62.05,149.42,59.93,148.12,59.4Z"/><path class="cls-17" d="M46.14,43.64c-.9-.37-2.17.12-3.2.88a5,5,0,0,0-4.88-3.69,5.07,5.07,0,0,0-2.89.9,3.65,3.65,0,0,0-3.56-3.44,3.55,3.55,0,0,0-2.94,1.59A7.66,7.66,0,0,0,28,38.29c-1.44-2.59-4-3.93-5.66-3A2.93,2.93,0,0,0,21,37.54a4.23,4.23,0,0,0-1-.14,4.17,4.17,0,0,0-4.17,4.17,3.82,3.82,0,0,0,.08.75,4.56,4.56,0,0,0-2.1,3.84,4.46,4.46,0,0,0,.33,1.69h33C47.51,46.29,47.44,44.17,46.14,43.64Z"/></g></svg>