<svg xmlns="http://www.w3.org/2000/svg" viewBox="0 0 164.88 132.13"><defs><style>.cls-1{isolation:isolate;}.cls-2{fill:#45a026;}.cls-3{fill:#82a816;}.cls-4{fill:#327208;}.cls-5{fill:#8bc41d;}.cls-6{fill:#faa413;}.cls-7{fill:#f07500;}.cls-8{fill:#f7941d;}.cls-9{fill:#b658cc;}.cls-10{fill:#a144b7;}.cls-11{fill:#9e5f30;}.cls-12{fill:#ea0027;}.cls-13{fill:#ce0014;}.cls-14{fill:#9b5e27;}.cls-15{opacity:0.2;mix-blend-mode:overlay;}.cls-16{fill:#8b5227;}.cls-17{fill:#fbc6b4;}.cls-18{fill:#1d1b3a;}.cls-19{fill:#48a2e5;}.cls-20{fill:#ccd8ee;}.cls-21{fill:#fff;}.cls-22{fill:#f7b2a0;}.cls-23{fill:#795144;}.cls-24{fill:#5e9a20;}.cls-25{fill:#71ae25;}</style></defs><g class="cls-1"><g id="Layer_1" data-name="Layer 1"><path class="cls-2" d="M66.43,77.69c-8.78-9.91,6.62-42.5,7.28-43.88l1.65.78c-.15.33-15.54,32.88-7.56,41.88Z"/><path class="cls-3" d="M79.6,40.4c2.26,1.72,1.19,7.57,4.51,10.45s3-1.72,2.36-2.71,3.27.45,2.81-1-1.28-1.76-.87-2.49,2.6.74,2.24-1.08-3.42-.63-3-2.63c.15-.8,5.58,1,8.48-2.15s-.64-2.5-2-1.71,1-2-.84-2.67-2.16,2.72-2.79,1.89c-1.36-1.77-2.54,1.69-3.58.14s4.15-1.45,3.47-4-7.3,4.11-5.3-.21c.87-1.9,3.5-4.85,2.18-5.44-2-.9-2.73,2.16-2.88,3.33s-2.49,2.37-3.06.79-1.1.78-1.26,3.45-1.36,3.56-2.73,3.89-4.72,1.09-4.72,1.09l.3,1.77S78.26,39.37,79.6,40.4Z"/><path class="cls-4" d="M75.26,38.7c2.85,0,5.6,5.24,10,5.46s1.3-3.2.18-3.58,2.86-1.65,1.6-2.53-2.09-.6-2.21-1.42,2.5-1,1.09-2.23-3.09,1.61-4-.2c-.37-.73,5-2.69,5.36-6.92s-2-1.57-2.61-.13-.42-2.14-2.3-1.59,0,3.48-1,3.22c-2.16-.57-1,2.89-2.73,2.3s2.38-3.68.29-5.26-3.22,7.73-4.31,3.1c-.48-2-.23-6-1.63-5.63-2.12.52-.82,3.38-.22,4.39s-.5,3.41-1.93,2.52-.39,1.29,1.14,3.49,1.11,3.65.24,4.74l-.55.69.89,1.62S73.57,38.72,75.26,38.7Z"/><path class="cls-2" d="M74.69,41.37c2-1,5.82,1.75,9,.37s-.19-2.73-1.13-2.61S84,37,82.83,36.77s-1.7.31-2.07-.23,1.42-1.6,0-2-1.63,2.22-2.92,1.26c-.52-.38,2.59-3.65,1.37-6.79s-2-.39-1.9.83-1.06-1.38-2.2-.32,1.21,2.48.4,2.65c-1.74.35.33,2.39-1.13,2.6s.39-3.46-1.64-3.84.42,6.62-2,3.71c-1-1.28-2.26-4.17-3.14-3.43-1.32,1.12.61,2.7,1.39,3.21s.85,2.59-.48,2.46.18,1.05,2,2.08,2.08,2.2,1.84,3.28-2,1.14-2,1.14l-1.28,3.64S73.5,42,74.69,41.37Z"/><path class="cls-5" d="M62.59,75.75C60.58,56,40.88,42,40.68,41.81l1.06-1.49c.84.59,20.57,14.72,22.67,35.24Z"/><path class="cls-3" d="M74.21,77.85C56.7,60.51,64.54,23.06,64.89,21.47l1.78.39c-.08.37-8,38.06,8.82,54.69Z"/><path class="cls-2" d="M66.22,77.27C62.54,59.52,40.34,48,40.11,47.84l.83-1.63C41.89,46.7,64.15,58.3,68,76.9Z"/><path class="cls-3" d="M69.27,34c2.64,1.08,3.12,7,7.09,8.92s2.44-2.44,1.56-3.23,3.28-.42,2.46-1.71-1.7-1.37-1.49-2.18,2.7,0,1.88-1.62-3.47.28-3.62-1.75c-.07-.81,5.63-.54,7.62-4.29S83.5,25.92,82.42,27s.44-2.15-1.51-2.36-1.38,3.19-2.21,2.55c-1.77-1.36-2,2.29-3.41,1.07s3.62-2.48,2.31-4.73-6,5.87-5.17,1.18c.35-2.07,2.11-5.6.69-5.83-2.16-.35-2.08,2.8-1.91,4s-1.79,2.95-2.76,1.57-.86,1-.31,3.65-.39,3.8-1.62,4.47-4.27,2.29-4.27,2.29L63,36.48S67.71,33.38,69.27,34Z"/><path class="cls-4" d="M64.64,33.52c2.74-.77,6.77,3.59,11.08,2.66s.43-3.43-.76-3.5,2.33-2.34.88-2.86-2.17,0-2.5-.79,2.14-1.64.47-2.44-2.56,2.35-3.93.85c-.55-.61,4.1-3.9,3.37-8.07s-2.38-1-2.55.55-1-2-2.64-.93.88,3.36-.17,3.37c-2.23,0-.18,3-2,2.94s1.33-4.18-1.09-5.16-1.1,8.31-3.35,4.12c-1-1.84-1.78-5.71-3.05-5-1.91,1.06.09,3.49.93,4.31s.41,3.42-1.2,2.93,0,1.34,2,3.07,2,3.23,1.48,4.52l-.35.81,1.28,1.32S63,34,64.64,33.52Z"/><path class="cls-5" d="M64.79,36.24c1.68-1.5,6.07.18,8.8-2s-.9-2.59-1.77-2.23.83-2.48-.38-2.34-1.55.74-2.06.32,1-1.92-.52-1.9-1,2.57-2.49,2c-.6-.24,1.55-4.2-.44-6.91s-2,.14-1.62,1.29-1.38-1.05-2.21.26,1.81,2.09,1.07,2.46c-1.58.79,1,2.22-.41,2.8s-.52-3.44-2.59-3.28,2.14,6.28-.93,4.11c-1.35-1-3.27-3.44-3.93-2.49-1,1.41,1.29,2.44,2.18,2.72s1.49,2.28.18,2.5.44,1,2.5,1.48,2.57,1.59,2.64,2.7-1.6,1.6-1.6,1.6l-.28,3.85S63.8,37.14,64.79,36.24Z"/><path class="cls-3" d="M68.5,18.8c2.78.6,4.3,6.34,8.54,7.54s2-2.84,1-3.46,3.16-1,2.12-2.11-1.9-1.05-1.84-1.88S81,18.45,79.85,17s-3.37.89-3.87-1.09c-.2-.79,5.45-1.51,6.76-5.55s-1.65-2-2.52-.71.07-2.19-1.9-2.06-.8,3.39-1.72,2.91c-2-1-1.58,2.6-3.18,1.64S76.56,9,74.88,7,70,13.86,70,9.1C70,7,71.1,3.22,69.65,3.24c-2.18,0-1.55,3.13-1.19,4.24s-1.24,3.21-2.44,2-.66,1.17.33,3.65.29,3.8-.81,4.68-3.81,3-3.81,3l1,1.47S66.86,18.44,68.5,18.8Z"/><path class="cls-4" d="M63.86,19.11c2.56-1.24,7.29,2.35,11.37.69s-.18-3.45-1.36-3.32,1.88-2.71.37-3-2.15.35-2.6-.34,1.82-2,0-2.49S69.57,13.45,68,12.2c-.64-.49,3.36-4.54,1.91-8.53s-2.52-.55-2.41,1S66.14,2.9,64.68,4.2s1.46,3.16.43,3.35c-2.2.41.35,3-1.49,3.25s.58-4.35-2-4.88.37,8.36-2.58,4.64c-1.31-1.64-2.75-5.32-3.88-4.41-1.7,1.37.7,3.42,1.67,4.07s1,3.3-.67,3.1.19,1.33,2.51,2.67,2.56,2.83,2.24,4.19-.21.86-.21.86l1.5,1.08S62.34,19.84,63.86,19.11Z"/><path class="cls-5" d="M64.48,21.77c1.38-1.78,6-.89,8.32-3.51s-1.34-2.39-2.14-1.88.39-2.59-.78-2.24-1.4,1-2,.67.61-2.05-.85-1.77-.52,2.7-2.1,2.38c-.63-.13.79-4.41-1.65-6.73s-2,.5-1.36,1.56-1.55-.8-2.13.64S62,12.63,61.3,13.12c-1.41,1.06,1.32,2,.09,2.83s-1.12-3.29-3.12-2.77,3.2,5.81-.21,4.2c-1.5-.71-3.82-2.81-4.3-1.76-.72,1.56,1.7,2.18,2.62,2.3s1.87,2,.62,2.43.6.88,2.72,1,2.81,1.11,3.06,2.19-1.29,1.86-1.29,1.86l1.38,2.29S63.66,22.82,64.48,21.77Z"/><path class="cls-5" d="M72.39,74.65C52.1,57.35,62.58,19.76,63,18.16l1.76.51c-.11.38-10.62,38.05,8.78,54.59Z"/><path class="cls-2" d="M63.34,76.8C45.83,59.46,53.68,22,54,20.42l1.79.39c-.08.38-8,38.06,8.82,54.69Z"/><path class="cls-3" d="M49.34,22.58c-2.62,1.12-3,7.05-6.93,9s-2.49-2.39-1.62-3.2-3.28-.35-2.48-1.66,1.67-1.4,1.45-2.2-2.71.09-1.91-1.59,3.47.22,3.59-1.82c0-.81-5.64-.44-7.7-4.15s1.23-2.26,2.33-1.17-.48-2.14,1.47-2.39S39,16.61,39.79,16c1.74-1.39,2.05,2.26,3.43,1s-3.67-2.41-2.4-4.69S46.9,18,46,13.36c-.38-2.06-2.21-5.56-.79-5.82,2.15-.39,2.13,2.77,2,3.93S49,14.38,50,13s.88,1,.38,3.64.46,3.79,1.7,4.44,4.32,2.21,4.32,2.21l-.73,1.64S50.89,21.91,49.34,22.58Z"/><path class="cls-4" d="M54,22c-2.76-.72-6.71,3.72-11,2.87s-.49-3.42.7-3.52-2.37-2.3-.94-2.84,2.18-.07,2.49-.84-2.18-1.59-.51-2.43,2.59,2.31,3.94.78c.53-.62-4.18-3.82-3.52-8s2.37-1,2.56.51.94-2,2.63-1-.82,3.37.23,3.37c2.23,0,.23,3,2.08,2.9s-1.41-4.16,1-5.18,1.24,8.29,3.42,4.06c1-1.86,1.68-5.74,3-5.07,1.93,1,0,3.48-.86,4.32s-.34,3.42,1.26,2.91.07,1.34-1.95,3.11-2,3.26-1.39,4.54.37.8.37.8l-1.26,1.35S55.59,22.42,54,22Z"/><path class="cls-5" d="M53.86,24.72c-1.7-1.48-6.07.29-8.84-1.83s.86-2.61,1.73-2.26-.87-2.47.34-2.35,1.57.71,2.06.28-1-1.9.49-1.91,1,2.56,2.53,1.94c.59-.25-1.63-4.18.31-6.92s2.05.1,1.65,1.26,1.36-1.08,2.21.22-1.77,2.12-1,2.48c1.6.77-.9,2.24.46,2.79S56.23,15,58.3,15.1s-2,6.32,1,4.08c1.33-1,3.21-3.49,3.88-2.56,1,1.4-1.25,2.47-2.13,2.77s-1.45,2.3-.13,2.5-.42,1-2.47,1.53-2.55,1.63-2.59,2.74,1.62,1.57,1.62,1.57l-.91,2.51S54.87,25.6,53.86,24.72Z"/><path class="cls-5" d="M53,79.92l-1.51-1c13.28-19.56-1.73-55-1.88-55.37l1.68-.72C51.88,24.29,66.79,59.53,53,79.92Z"/><path class="cls-2" d="M63.29,77.72H61.47c-.3-33-10.6-51-10.71-51.18l1.58-.92C52.44,25.81,63,44.16,63.29,77.72Z"/><path class="cls-5" d="M61.06,79.54l-1.78-.42C64.79,56.12,38.23,28.26,38,28l1.31-1.27C40.4,27.88,66.8,55.58,61.06,79.54Z"/><path class="cls-5" d="M70.65,76.88C53.48,51.5,57.51,23.56,57.55,23.28l1.81.27c0,.28-4,27.54,12.8,52.3Z"/><path class="cls-3" d="M50.06,33.37c2.37-1.57,7.54,1.37,11.35-.81s-.63-3.4-1.78-3.12,1.51-2.94,0-3-2.08.63-2.64,0,1.56-2.21-.28-2.46S55,27,53.21,26c-.71-.41,2.73-5,.76-8.72s-2.57-.22-2.27,1.3-1.51-1.57-2.8-.08,1.86,2.94.87,3.26c-2.12.69.75,2.95-1.05,3.42s0-4.39-2.6-4.58,1.48,8.24-1.94,4.93c-1.51-1.45-3.43-4.9-4.43-3.86-1.5,1.59,1.14,3.3,2.2,3.82s1.42,3.14-.26,3.16.37,1.29,2.84,2.32,2.91,2.46,2.77,3.86-.52,4.82-.52,4.82l1.77.3S48.65,34.3,50.06,33.37Z"/><path class="cls-4" d="M47,36.91c.91-2.7,6.79-3.56,8.45-7.64S52.89,27,52.16,27.92s-.62-3.25-1.87-2.35S49,27.35,48.23,27.2s-.14-2.7-1.75-1.77S47,28.87,45,29.15c-.81.11-.9-5.58-4.76-7.34s-2.16,1.42-1,2.42-2.17-.3-2.27,1.65,3.27,1.18,2.69,2.05c-1.24,1.85,2.41,1.86,1.28,3.34s-2.7-3.47-4.87-2,6.23,5.6,1.51,5.09c-2.09-.22-5.72-1.75-5.86-.32-.21,2.18,2.93,1.9,4.08,1.66s3,1.6,1.74,2.65,1.08.79,3.66.08,3.81.15,4.56,1.34l.47.74L48,40.18S46.49,38.51,47,36.91Z"/><path class="cls-5" d="M49.36,38.33c-.3-2.24,3.57-4.92,3.32-8.4s-2.64-.71-2.83.21-1.58-2.09-2.15-1-.27,1.7-.9,1.88-1-1.87-1.86-.65,1.56,2.28.23,3.18c-.54.36-2.6-3.65-6-3.53s-1,1.76.15,2.06-1.64.54-1,2,2.73-.32,2.62.5c-.23,1.76,2.37.48,2.09,1.92s-3.14-1.51-4.17.29,6.39,1.78,2.86,3.08c-1.56.58-4.68.76-4.27,1.84.61,1.61,2.74.31,3.48-.26s2.72.06,2.16,1.27,1,.18,2.63-1.23,2.77-1.23,3.72-.66.42,2.23.42,2.23l3,1.76S49.54,39.65,49.36,38.33Z"/><path class="cls-3" d="M37.12,29.44c2.37-1.57,7.54,1.38,11.36-.81s-.63-3.4-1.79-3.12,1.52-2.93,0-3-2.08.63-2.63,0,1.55-2.21-.29-2.46-1.72,3-3.48,2c-.71-.41,2.73-5,.76-8.72s-2.57-.22-2.26,1.3-1.52-1.57-2.8-.08,1.85,2.94.86,3.26c-2.12.69.76,2.95-1,3.42s0-4.39-2.61-4.58,1.48,8.24-1.94,4.93c-1.51-1.45-3.43-4.9-4.42-3.85C25.31,19.32,28,21,29,21.55s1.42,3.14-.26,3.16S29.12,26,31.59,27s2.91,2.46,2.77,3.86-.52,4.82-.52,4.82l1.77.3S35.71,30.37,37.12,29.44Z"/><path class="cls-4" d="M34.09,33c.91-2.7,6.79-3.56,8.45-7.64S40,23.05,39.22,24s-.61-3.25-1.86-2.34-1.25,1.78-2.07,1.62-.14-2.7-1.74-1.77.5,3.44-1.52,3.72c-.81.11-.9-5.58-4.76-7.34s-2.16,1.42-1,2.42S24.12,20,24,22s3.28,1.17,2.69,2c-1.24,1.85,2.42,1.86,1.28,3.34s-2.7-3.47-4.87-2,6.24,5.6,1.51,5.09c-2.08-.21-5.72-1.75-5.86-.32-.21,2.18,2.93,1.9,4.08,1.67s3,1.59,1.74,2.64,1.08.8,3.66.09,3.82.14,4.56,1.33l.48.75,1.81-.31S33.56,34.58,34.09,33Z"/><path class="cls-5" d="M36.42,34.4c-.3-2.24,3.58-4.91,3.32-8.4s-2.64-.71-2.83.21-1.58-2.09-2.15-1-.27,1.7-.9,1.88-1-1.87-1.86-.64,1.56,2.27.23,3.17c-.54.36-2.59-3.65-6-3.53s-1,1.76.15,2.06-1.64.55-1,2,2.74-.32,2.63.5c-.24,1.76,2.36.48,2.08,1.92S27,31,25.94,32.82s6.39,1.78,2.86,3.09c-1.55.57-4.68.76-4.27,1.83.61,1.61,2.74.32,3.48-.25s2.72,0,2.16,1.26,1,.18,2.64-1.23,2.76-1.23,3.71-.65.42,2.22.42,2.22l2.6.62S36.6,35.72,36.42,34.4Z"/><path class="cls-3" d="M44.2,42c2-2.05,7.66-.33,10.89-3.31S53.73,35.51,52.66,36s.83-3.2-.68-2.92-1.89,1.08-2.57.59,1-2.5-.82-2.34-1,3.33-3,2.72c-.77-.24,1.57-5.43-1.19-8.66s-2.55.35-1.92,1.77-1.83-1.2-2.75.54,2.47,2.45,1.57,3c-1.91,1.14,1.39,2.71-.26,3.56s-1-4.28-3.55-3.89,3.26,7.71-.8,5.25c-1.8-1.09-4.43-4-5.17-2.79-1.12,1.88,1.84,3,3,3.24s2.08,2.74.45,3.14.64,1.18,3.28,1.63,3.39,1.75,3.56,3.14.56,4.82.56,4.82l1.79-.1S43,43.21,44.2,42Z"/><path class="cls-4" d="M42,46.11c.29-2.83,5.83-5,6.55-9.32s-3-1.66-3.54-.58-1.32-3-2.34-1.87-.82,2-1.65,2S40.32,33.78,39,35s1.25,3.25-.65,4c-.76.28-2.11-5.25-6.27-6.1s-1.79,1.85-.42,2.57-2.18.19-1.84,2.12S33.22,38,32.85,39c-.81,2.09,2.76,1.29,2,3s-3.4-2.77-5.19-.88,7.32,4.07,2.6,4.63c-2.08.25-6-.44-5.79,1,.28,2.17,3.28,1.2,4.35.71s3.32.89,2.28,2.2,1.23.53,3.59-.73,3.75-.7,4.75.28l.62.63,1.7-.71S41.86,47.79,42,46.11Z"/><path class="cls-2" d="M44.62,47C43.83,44.87,47,41.4,46,38.06s-2.74-.11-2.72.83-2-1.69-2.32-.51.12,1.72-.46,2-1.44-1.59-2-.21,2,1.86.93,3c-.44.48-3.34-3-6.59-2.12s-.62,2,.6,2-1.48.9-.56,2.15,2.6-.91,2.67-.09c.16,1.76,2.42-.06,2.46,1.41s-3.4-.78-4,1.2,6.63.32,3.47,2.38c-1.39.91-4.39,1.78-3.76,2.74,1,1.43,2.75-.3,3.34-1s2.67-.55,2.39.75,1.07,0,2.3-1.78,2.42-1.82,3.47-1.46.9,2.07.9,2.07l3.48,1.68S45.09,48.23,44.62,47Z"/><path class="cls-5" d="M64.61,60.69c-2.2-9.86,4.51-28.35,4.8-29.13l1.71.62c-.06.19-6.81,18.78-4.73,28.11Z"/><path class="cls-6" d="M66.46,57.35a18.47,18.47,0,0,1-11.75,5.19l-.07-1a17.6,17.6,0,0,0,11-4.85Z"/><path class="cls-7" d="M67.49,61.29a18,18,0,0,1-14-1.41L54,59c.06,0,6.21,3.64,13.11,1.32Z"/><path class="cls-6" d="M67.12,59.29a23.37,23.37,0,0,1-11.56,5.88l-.21-1a22.77,22.77,0,0,0,11-5.58Z"/><path class="cls-7" d="M67.49,56.47a3.15,3.15,0,0,1-1.24,1c-8.83,3.15-13.14,1-13.32.91l.48-.93s4.14,2,12.48-1a3.29,3.29,0,0,0,1.42-1.93l1,.17A4.22,4.22,0,0,1,67.49,56.47Z"/><path class="cls-7" d="M132.78,52.74s1.73-9.12-13.12-8.69S106.8,57.93,109.22,69s7.35,19,16.18,19C131.78,87.93,135,59.63,132.78,52.74Z"/><path class="cls-6" d="M116.43,52.82s1.73-9.13-13.12-8.7S90.45,58,92.87,69.07s7.35,19,16.18,19C115.43,88,118.64,59.7,116.43,52.82Z"/><path class="cls-6" d="M111.49,59.23s-1.56-9.15,13.27-8.45,12.61,14.1,10,25.14-7.7,18.87-16.53,18.66C111.85,94.43,109.16,66.08,111.49,59.23Z"/><path class="cls-7" d="M112.06,60.44s1.73-9.13-13.12-8.7S86.08,65.62,88.5,76.7s8,18,16.86,17.94C111.73,94.6,114.27,67.32,112.06,60.44Z"/><path class="cls-2" d="M105.18,50.81s-3.29,1.57-1.33,2.18,1.15,2.54,6.76,2.32,10.74-2.34,8.07-3.66A18.19,18.19,0,0,0,105.18,50.81Z"/><path class="cls-8" d="M99.33,61.56S98,52.3,112.86,53s15.38,11.49,12.76,22.53-9,21.33-15.13,19.45S97,68.4,99.33,61.56Z"/><path class="cls-2" d="M109.74,51.68a19.37,19.37,0,0,1,7.78-12.57s-.1,1.32,1.84,1.13-10.72,8.6-8,11.44Z"/><path class="cls-9" d="M25.37,65.39s3.37-10.49,12.18-7,13.41,9.46,26.12,8,23-.67,28.4,9.86c5.16,10.06,4.81,24.53-20,27.53C51,106.36,21.7,86.17,25.37,65.39Z"/><path class="cls-10" d="M72.06,103.82c8.83-1.07,14.55-3.59,18-6.85C48.48,107.83,30.32,77.63,25.3,65.91,22.21,86.51,51.16,106.34,72.06,103.82Z"/><path class="cls-11" d="M24.9,60.17s-9.17-4.88-7.78-9.42c0,0,2,.57,2.43-.88s3.69,8.5,6.52,7.43Z"/><path class="cls-3" d="M26.51,55.69c-2.43,1.77-6.09,5.28-4,11.31s3.19,9.43,1.31,12.17,6.82-3.39,7.65-10.41S37,71.65,37.31,73s2.62-5.48,1.56-8.62,5.28.68,10.7-2.65c0,0-8.75-2.09-11.15-4.9S30.07,53.1,26.51,55.69Z"/><path class="cls-12" d="M121.76,87.51A18.89,18.89,0,0,1,84,86.62c.24-10.43,8.8-14.52,19.24-14.28S122,77.07,121.76,87.51Z"/><path class="cls-13" d="M111.15,76.84c0,1.07-3.57,1.85-7.92,1.75s-5.35-.54-5.32-1.61-5.46-1.77,1-3.1C103.14,73,111.18,75.77,111.15,76.84Z"/><path class="cls-3" d="M101.05,76.12s-1.31-4.53-5.75-5.45,5.61-1,7,4.33c0,0,0-5.43,4.45-5.93,0,0-4,4-2.54,6.71,0,0,3.79-5.64,10.07-4.15,0,0-7.69,1.24-8.59,4.93,0,0,5.53-1.43,8.42,2.58a25.41,25.41,0,0,0-9.57-1.26c-4.6.48,4.21,4.34,1.29,8.51,0,0,.34-1.93-2.8-4.61s-1.77-3.53-1.46-4.16-3.86-.65-4.3,2.32-1.19,3.32-1.19,3.32S93.69,75.92,101.05,76.12Z"/><path class="cls-14" d="M103.13,76.51s1.6-7.21,6.69-8.18l.47.83s-5.12,2.11-6.21,7.37Z"/><path class="cls-13" d="M118.25,77.64a16.93,16.93,0,0,1,.69,4.23c.37,10.5-8.77,19.33-20.42,19.74A22.86,22.86,0,0,1,89.07,100a18.88,18.88,0,0,0,32.69-12.44A13.18,13.18,0,0,0,118.25,77.64Z"/><polygon class="cls-5" points="139.05 90.49 129.69 94.4 130.18 96.94 142.58 93.01 139.05 90.49"/><polygon class="cls-4" points="125.72 95.03 136.2 89.23 138.13 84.28 139.75 84.85 137.41 89.12 141.72 86.92 142.14 88.21 137.65 90.1 143.23 90.67 142.42 91.44 136.45 90.98 126.75 96.13 125.72 95.03"/><polygon class="cls-3" points="126.35 97.31 138.17 95.33 141.64 91.31 142.97 92.38 139.35 95.62 144.13 94.99 144.11 96.34 139.24 96.62 144.31 99.02 143.29 99.48 137.82 97.06 126.97 98.68 126.35 97.31"/><path class="cls-6" d="M130.8,98.07s-.48-5.61-3.14-7.13c-4.93-2.82-10.58.45-20.25,3.44-8.85,2.74-29.75,10.78-23.33,12.47C101.23,111.38,132.8,108.08,130.8,98.07Z"/><path class="cls-7" d="M126.21,103.33s1.74-3.92-2.55-8.84C123.66,94.49,129.13,98.62,126.21,103.33Z"/><path class="cls-7" d="M111.21,106.31s1.73-3.92-2.57-8.83C108.64,97.48,114.12,101.6,111.21,106.31Z"/><path class="cls-7" d="M116.85,101.59s1.19-3.35-2.68-7.13C114.17,94.46,119,97.52,116.85,101.59Z"/><path class="cls-7" d="M121.77,95.5a4.24,4.24,0,0,0-1.83-3.83S121.68,93.91,121.77,95.5Z"/><path class="cls-7" d="M90.35,106.12a3.24,3.24,0,0,0-1.41-2.93A7.15,7.15,0,0,1,90.35,106.12Z"/><path class="cls-7" d="M94.89,105.1a4.76,4.76,0,0,0-1.74-4.42A3.17,3.17,0,0,1,94.89,105.1Z"/><path class="cls-7" d="M103,105s1.21-2.75-1.79-6.18C101.24,98.86,105.06,101.75,103,105Z"/><path class="cls-5" d="M145.2,89c1.39,2-1,6.42,1,9.59s2.86-.62,2.59-1.59,2.52,1.2,2.53-.1-.59-1.75-.08-2.22,1.91,1.25,2.09-.31-2.61-1.38-1.79-2.9c.33-.61,4.26,2.19,7.39.42s.12-2.18-1.15-1.88,1.29-1.33,0-2.37-2.44,1.65-2.74.82c-.64-1.78-2.47.71-2.92-.8s3.72-.11,3.81-2.32-6.93,1.46-4.22-1.52c1.19-1.31,4.06-3,3.14-3.84-1.37-1.23-2.75,1-3.17,2s-2.61,1.28-2.67-.14-1.09.35-1.89,2.46-2,2.53-3.2,2.45-4.09-.32-4.09-.32l-.2,1.5S144.38,87.8,145.2,89Z"/><path class="cls-4" d="M142.13,86.51c2.31.69,3.19,5.64,6.68,6.94s1.87-2.25,1.06-2.84S152.6,90,151.8,89s-1.53-1-1.42-1.71,2.27-.18,1.45-1.52-2.9.52-3.19-1.18c-.11-.68,4.7-.91,6.08-4.22s-1.25-1.79-2.07-.77.2-1.84-1.46-1.87-.9,2.8-1.65,2.33c-1.61-1-1.52,2.09-2.79,1.17s2.85-2.38,1.57-4.17-4.57,5.42-4.27,1.4c.13-1.76,1.34-4.88.12-5-1.85-.12-1.52,2.52-1.3,3.49s-1.27,2.62-2.19,1.54-.64.94,0,3.1,0,3.23-1,3.9S136.45,91,136.45,91l1.26.1S140.77,86.09,142.13,86.51Z"/><path class="cls-3" d="M141,88.51c1.89-.31,4.25,2.9,7.19,2.59s.54-2.25-.25-2.39,1.72-1.39.8-1.84-1.45-.18-1.61-.71,1.55-.94.49-1.59-1.88,1.38-2.68.27c-.32-.44,3-2.29,2.84-5.13s-1.52-.83-1.75.18-.5-1.38-1.69-.81.34,2.3-.36,2.23c-1.49-.15-.34,2-1.57,1.81s1.2-2.69-.35-3.51-1.33,5.45-2.53,2.5c-.54-1.31-.77-3.94-1.66-3.57-1.36.56-.2,2.33.3,2.93s0,2.31-1,1.87-.13.89,1.1,2.2,1.12,2.3.66,3.12-1.64,2.81-1.64,2.81l1,.66S139.88,88.7,141,88.51Z"/><path class="cls-3" d="M144.23,96.8c.43,2.36-3.58,5.4-3.14,9.11s2.85.64,3-.36,1.79,2.16,2.34,1,.2-1.83.88-2,1.2,2,2,.6-1.77-2.34-.39-3.37c.55-.42,2.95,3.77,6.53,3.49s1-1.93-.26-2.2,1.73-.66,1-2.15-2.91.47-2.83-.41c.17-1.88-2.55-.4-2.31-2s3.41,1.47,4.43-.49-6.91-1.6-3.2-3.16c1.64-.69,5-1,4.48-2.16-.73-1.7-3-.21-3.7.44s-2.91.06-2.37-1.25-1.13-.15-2.75,1.44-2.89,1.44-3.93.87-3.58-2-3.58-2l-.81,1.28S144,95.39,144.23,96.8Z"/><path class="cls-4" d="M142.48,93.26c1.8,1.61.52,6.47,3.14,9.12s2.64-1.25,2.16-2.14,2.72.61,2.44-.66-1-1.57-.58-2.15,2.15.79,2-.77-2.84-.76-2.39-2.42c.18-.67,4.64,1.16,7.29-1.27s-.38-2.14-1.55-1.56,1-1.59-.54-2.31-2,2.15-2.48,1.41c-1-1.59-2.26,1.26-3-.12s3.59-.94,3.18-3.12-6.43,3-4.46-.52c.86-1.55,3.27-3.87,2.2-4.45-1.62-.89-2.45,1.65-2.65,2.62s-2.26,1.84-2.64.47-1,.58-1.28,2.83-1.39,2.92-2.56,3.1l-.74.12L139.6,93S141.42,92.31,142.48,93.26Z"/><path class="cls-5" d="M140.61,94.6c1.83.52,2.63,4.42,5.42,5.38s1.44-1.82.79-2.27,2.15-.54,1.5-1.34-1.24-.77-1.17-1.32,1.81-.19,1.12-1.24-2.28.46-2.54-.88c-.11-.53,3.7-.8,4.73-3.45s-1-1.4-1.66-.57.13-1.47-1.19-1.46-.67,2.24-1.26,1.88c-1.29-.77-1.16,1.68-2.19,1s2.22-1.94,1.16-3.34-3.51,4.39-3.35,1.2c.07-1.4,1-3.89,0-3.93-1.46-.06-1.15,2-1,2.79s-.95,2.1-1.7,1.26-.5.76.08,2.46,0,2.56-.73,3.11-1.86-.41-1.86-.41l-1.35,1.82S139.52,94.31,140.61,94.6Z"/><g class="cls-15"><path d="M84.08,106.85c-1-.27-1.35-.72-1.12-1.27,28.57,2.45,44.63-8.11,47.38-10.1a17.75,17.75,0,0,1,.46,2.59C132.8,108.08,101.23,111.38,84.08,106.85Z"/></g><path class="cls-16" d="M98.47,79.66a1.59,1.59,0,1,1-1.59-1.59A1.59,1.59,0,0,1,98.47,79.66Z"/><path class="cls-17" d="M90.41,74.32a2.35,2.35,0,0,0-2.16-1.77c-1.86,0-5.19,1.76-7.39.46s-2.18-3-2.32-4.18.35-1.68.2-2.35-.94-.45-1.17,1.46c-.11.92-1.18,5.37,1.15,7.39C81.79,78,90.85,77.18,90.41,74.32Z"/><path class="cls-10" d="M90.48,73.36s.7,1.9-2.1,3a16.71,16.71,0,0,1-4.18,1.22A7.7,7.7,0,0,1,83,73S89.88,70.54,90.48,73.36Z"/><path class="cls-17" d="M75.41,100.87c1.09,2.91,3.31,6.59,3.73,8.65.06.33,0,.45-1,.88s.06.94,1.89.72-.12-8.9-1.47-12.93C77.4,94.67,74.14,97.48,75.41,100.87Z"/><path class="cls-18" d="M80.73,110.16s-1.53.85-2.58.24c0,0-1.77.44-.6.81S81,111.78,80.73,110.16Z"/><path class="cls-17" d="M88.12,104c2.25,1.78,5.75,3.63,7.06,5.06.21.22.24.34-.36,1.17s.49.71,1.83-.33-4.34-7-7.31-9.52C86.74,98.15,85.51,101.92,88.12,104Z"/><path class="cls-18" d="M96.74,108.81s-.81,1.4-1.92,1.42c0,0-1.19,1.19-.09.92S97.68,110,96.74,108.81Z"/><path class="cls-19" d="M95,105.15a3.49,3.49,0,0,1-.41.82.45.45,0,0,1-.11.17,4.47,4.47,0,0,1-2,1.52A13.44,13.44,0,0,1,81.41,96.92a12.44,12.44,0,0,1,.27-4.24,11.94,11.94,0,0,0-2.27,3.67c-.58,2.33,1.75,9.43,1.75,9.43a3.26,3.26,0,0,1-.68.46.64.64,0,0,1-.18.1,4.79,4.79,0,0,1-2.88.37s-7-6.71-4-14.93C74.65,88.33,83.48,80.3,83.48,80.3l.86,2.45.17-.5,5.9,6.37.57-.13s-2.53,7.58-1.85,10C89.72,100.66,95,105.15,95,105.15Z"/><path class="cls-20" d="M83.58,87.83a.1.1,0,0,1-.07.12,7.19,7.19,0,0,0-4.16,3.47A12.09,12.09,0,0,0,78,96.77a15.73,15.73,0,0,0,.79,6.14,11.85,11.85,0,0,0,1.74,3.33.64.64,0,0,1-.18.1A12.47,12.47,0,0,1,78.55,103a16,16,0,0,1-.79-6.22,12.15,12.15,0,0,1,1.43-5.44,7.32,7.32,0,0,1,4.26-3.55A.1.1,0,0,1,83.58,87.83Z"/><path class="cls-18" d="M90.37,89.4,84,82.54a5.27,5.27,0,0,0-.18.54l-.94-2.64s-.92.83-2.23,2.09a3.46,3.46,0,0,0-.12,1.19c-.25,3,6.86,8.16,9.68,7.34a15,15,0,0,1,.74-1.92Z"/><path class="cls-21" d="M94.59,106a.45.45,0,0,1-.11.17,7.66,7.66,0,0,0-1.27-.9l-.49-.32A11.69,11.69,0,0,1,88.8,89.67s.08,0,.13,0a.12.12,0,0,1,0,.14,11.51,11.51,0,0,0,3.85,15c.16.11.33.21.5.31A10.39,10.39,0,0,1,94.59,106Z"/><path class="cls-9" d="M95.81,76.19h0a9.23,9.23,0,0,0-2.45-2.35c-1.78-1.31-5-2.87-7.56.1a23.4,23.4,0,0,0-2.7,4.23c-.19.36-.38.74-.54,1.12A14.82,14.82,0,0,0,81.08,84c-.28,3.33,10.15,8.75,10.34,4.92l0-.25a30.16,30.16,0,0,1,1-4.27c.14-.37.3-.73.48-1.1a10.15,10.15,0,0,1,1.79-2.52C96.52,78.84,96.5,77.36,95.81,76.19Z"/><path class="cls-22" d="M93.4,70.41s-1.44,1.13-.8,2.44-4.6,1.46-4.06.64c.69-1,1.6-1.42,1.7-3Z"/><path class="cls-17" d="M92.46,66.42c-1.4.41-4.4,3.83-3.85,5.2.25.6,2.25,1.07,4.25-.09a3.68,3.68,0,0,0,2-3.21A2,2,0,0,0,92.46,66.42Z"/><path class="cls-18" d="M91.26,66.4c-.46.39-.46.53.91,1.51s1.68,1,1.35,1.28c-1,.82.19,1.15-1,2.12s.46.84,1.52.1a3.18,3.18,0,0,0,1.4-2.74A2.64,2.64,0,0,0,91.26,66.4Z"/><path class="cls-18" d="M95.81,76.19h0c-2.18-1.12-6,4.24-6,4.24l.2.26a3.82,3.82,0,0,1-1.88.74,4.13,4.13,0,0,1-3.33-1H83.07c.8,1.62,2.49,4.27,4.64,4.27a8.42,8.42,0,0,0,5.2-1.37,10.15,10.15,0,0,1,1.79-2.52C96.52,78.84,96.5,77.36,95.81,76.19Z"/><path class="cls-18" d="M83.61,89.21a11,11,0,0,0-4,6.53,24.16,24.16,0,0,1,2.05-3.06,18.17,18.17,0,0,0,1.15-2C83.1,90.18,83.36,89.7,83.61,89.21Z"/><path class="cls-7" d="M82.46,62.8s1.93-7-9.65-7.62-10.92,10-9.75,18.76,4.5,15.27,11.37,15.8C79.4,90.13,83.73,68.3,82.46,62.8Z"/><path class="cls-6" d="M69.72,61.79s1.94-7-9.65-7.62-10.91,10-9.75,18.76S54.82,88.2,61.7,88.74C66.66,89.12,71,67.29,69.72,61.79Z"/><path class="cls-6" d="M65.46,66.47s-.62-7.23,10.88-5.72S85.24,72.54,82.49,81,75.27,95.16,68.41,94.43C63.46,93.9,63.2,71.64,65.46,66.47Z"/><path class="cls-7" d="M65.83,67.45s1.93-7-9.65-7.62-10.91,10-9.75,18.75,5.08,14.53,12,15.06C63.36,94,67.1,73,65.83,67.45Z"/><path class="cls-2" d="M61.09,59.5s-2.65,1-1.17,1.62.72,2,5.11,2.24,8.51-1.13,6.52-2.33A14.24,14.24,0,0,0,61.09,59.5Z"/><path class="cls-8" d="M55.84,67.5s-.41-7.3,11.09-5.79,11.23,9.93,8.48,18.36-8.42,16-13,14.17S53.58,72.67,55.84,67.5Z"/><path class="cls-2" d="M64.59,60.48a15.11,15.11,0,0,1,6.87-9.28s-.17,1,1.35,1-8.9,6-7,8.39Z"/><path class="cls-17" d="M96.06,76.47a2,2,0,0,0-2.54-.13C92,77.4,90.28,80.76,87.73,81s-3.52-1.23-4.3-2.1-.68-1.58-1.18-2-1,.17-.12,1.87c.44.81,2.1,5.07,5.18,5.39C91.35,84.51,98.05,78.56,96.06,76.47Z"/><path class="cls-10" d="M95.8,76s1.67,1.16,0,3.69A16.37,16.37,0,0,1,93.09,83,7.75,7.75,0,0,1,89.41,80S93.7,74,95.8,76Z"/><path class="cls-23" d="M46.88,120.51s-.53-.05-.69.13-.14-.5-.14-.5l-.19-.33-.09-.33s.06,0-.05-.21a3.54,3.54,0,0,1-.2-.72l.11-.2.17-.22-.15-.57.3-.44-.05-.18a2.2,2.2,0,0,0,1.14.74Z"/><path class="cls-2" d="M59.09,117.34s45-6.14,59.33-.23,24.62,11.75,19.35,10.26c-14.72-4.15-22.64-16.5-74.2-6.86C63.57,120.51,57.68,119,59.09,117.34Z"/><path class="cls-4" d="M57.68,118.35s37.15-11.93,50.13-9.07,22.58,6.26,17.9,5.79c-13.07-1.31-21.61-10.57-63.77,5.29C61.94,120.36,56.73,119.94,57.68,118.35Z"/><path class="cls-5" d="M58.08,119.42s4.84-1.35,9.36-2.39,9.49-2.87,20.38-12.76c.28-.25.56-.63-1.54.66s-7.81,6-11.27,7.69c-4.32,2.1-15.24,4-17.19,5Z"/><path class="cls-5" d="M61.23,120.28s3.32.79,6.46,1.77,6.44,1.29,12.51-4.61c.15-.15.28-.43-1,0s-4.57,3-6.8,3.25c-2.77.3-11.89-2.32-13.12-2.1Z"/><path class="cls-17" d="M59.65,116.69a9,9,0,0,1-6.87-.62c-2.52-1.35-7.11-1-6.31,3.67.86,5.09,6.06,2,7.55,1.32,2.87-1.37,10.63.45,7.7-.9C59.72,119.23,60.66,116.44,59.65,116.69Z"/><path class="cls-23" d="M68.82,124.12s-.52-.06-.69.13-.14-.51-.14-.51l-.19-.33-.09-.33s.06,0-.06-.21a4,4,0,0,1-.19-.72l.11-.2.17-.21-.16-.57.3-.44,0-.18a2.21,2.21,0,0,0,1.14.73Z"/><path class="cls-2" d="M81,121s45-6.15,59.33-.24S165,132.47,159.71,131c-14.72-4.16-22.64-16.5-74.2-6.87C85.51,124.11,79.62,122.58,81,121Z"/><path class="cls-4" d="M79.62,122s37.15-11.93,50.13-9.06,22.57,6.26,17.89,5.79C134.58,117.36,126,108.1,83.88,124,83.88,124,78.67,123.54,79.62,122Z"/><path class="cls-5" d="M80,123s4.84-1.34,9.36-2.38,9.49-2.87,20.38-12.77c.28-.25.56-.62-1.54.66s-7.81,6-11.27,7.69c-4.32,2.1-15.24,4-17.19,5Z"/><path class="cls-5" d="M83.17,123.89s3.32.79,6.46,1.77,6.44,1.29,12.51-4.61c.15-.15.28-.44-1,0s-4.57,3-6.8,3.25c-2.77.3-11.88-2.33-13.12-2.11Z"/><path class="cls-17" d="M81.59,120.29a9,9,0,0,1-6.87-.62c-2.52-1.35-7.11-1-6.31,3.68.86,5.08,6.06,2,7.54,1.31,2.88-1.37,10.64.46,7.71-.9C81.66,122.83,82.6,120,81.59,120.29Z"/><path class="cls-24" d="M21.42,117.84s-3.72-2.68-2.53-5.88,2.54-5.12,1.75-7.32S22.27,99,23.86,99s7.06,1.37,7.27,6.72,4.32,8.52,1.9,10.75S28.68,119.23,27,118,24.53,119.17,21.42,117.84Z"/><polygon class="cls-24" points="23.21 108.53 40.71 108.45 39.52 106.1 22.98 104.83 23.21 108.53"/><path class="cls-5" d="M45.33,103c-.67-1.36-4.46-.86-5.94-1.19-4.9-1.12-17.87-9.23-17.87-9.23L21,95.47,37,103l-14-2.51.55,2.91,13.83,3.62.48,1.62-8.15.68,1.05,3.13,8.07-1.77,0,1.43-18.42,3.22.78,3.3s16.52-2.63,23.22-5.07C47,112.68,48.29,109.1,45.33,103Z"/><path class="cls-24" d="M13,112.59s-5.16,0-4.11-2.88-3.42-4.85-3.23-6.89,3.09-6.28,5.51-5.34,1.74-.6,2.6-2.77,3.49-3.83,5.48-2.49,5.41,6.77,4,11-4.14,5.32-2.21,7.53,1.3,5.68-2.34,6.1S13.81,115.23,13,112.59Z"/><path class="cls-25" d="M18.13,105.06s-.28,8,5.72,5c2.86-1.44,5.43-.64,4.11-3.19s4.08-1.36-.51-7c-1.06-1.31,1.41-2.07,1.63-3.31.45-2.51-.23-3.83-1.6-5.69s-6.21-4.57-7.3-1.3-2.22,6.75-.1,7.59S17.77,102.49,18.13,105.06Z"/><path class="cls-5" d="M20.83,124.32s-4-2.33-3.08-5.62,2.05-5.34,1.05-7.46,1.07-5.8,2.65-6,9,.58,9.72,5.89,3.28,8.17,1.08,10.63S28.18,125,26.37,124,24.05,125.34,20.83,124.32Z"/></g></g></svg>