<svg xmlns="http://www.w3.org/2000/svg" xmlns:xlink="http://www.w3.org/1999/xlink" viewBox="0 0 450 150"><defs><style>.cls-1{fill:none;}.cls-2{isolation:isolate;}.cls-3{clip-path:url(#clip-path);}.cls-4,.cls-5{fill:#9c0;}.cls-5,.cls-6{opacity:0.75;}.cls-13,.cls-24,.cls-26,.cls-30,.cls-36,.cls-37,.cls-44,.cls-5,.cls-51{mix-blend-mode:multiply;}.cls-6{fill:#6bad00;}.cls-7{fill:#72cc66;}.cls-8{fill:#c2d719;}.cls-9{fill:#3da400;}.cls-10{fill:#69b307;}.cls-11{fill:url(#radial-gradient);}.cls-12,.cls-25{fill:#fff;}.cls-12,.cls-26,.cls-30,.cls-32,.cls-37,.cls-44,.cls-45,.cls-51{opacity:0.55;}.cls-12,.cls-32,.cls-45,.cls-46,.cls-66{mix-blend-mode:screen;}.cls-13{fill:#c5e0db;}.cls-13,.cls-46{opacity:0.32;}.cls-14{fill:#f5915c;}.cls-15{fill:#f9be86;}.cls-16{fill:#f6a556;}.cls-17{fill:#e0812e;}.cls-18{fill:#d27c3b;}.cls-19{fill:#a94f25;}.cls-20{fill:#f9a577;}.cls-21,.cls-45,.cls-46{fill:#823900;}.cls-22,.cls-32{fill:#3c3a32;}.cls-23,.cls-24{fill:#cc3932;}.cls-26{fill:#a46f46;}.cls-27{fill:#d87452;}.cls-28{fill:#fda170;}.cls-29,.cls-30{fill:#004f7a;}.cls-31{fill:#e1c3a9;}.cls-33{fill:#ffc74f;}.cls-34,.cls-37{fill:#ba7647;}.cls-35{fill:#ffc200;}.cls-36{fill:#f1bb00;opacity:0.65;}.cls-38{fill:#b56500;}.cls-39{fill:#ea9f00;}.cls-40{fill:#be6c00;}.cls-41{fill:#a45000;}.cls-42{fill:#ff8637;}.cls-43{fill:#e0591b;}.cls-44{fill:#ba8b9a;}.cls-47{fill:#592a00;}.cls-48{fill:#e95b1b;}.cls-49{fill:#ffbf00;}.cls-50,.cls-51{fill:#a33613;}.cls-52{fill:#6a2713;}.cls-53{fill:#f34e22;}.cls-54{fill:#d9a68e;}.cls-55{fill:#ca8463;}.cls-56{fill:#b6ecec;}.cls-57{fill:#4f7a81;}.cls-58{fill:#eec3b0;}.cls-59{fill:#b0e3e0;}.cls-60{fill:#4c7479;}.cls-61{fill:#514d5b;}.cls-62{fill:#312c3d;}.cls-63{fill:#e4baa6;}.cls-64{fill:#272227;}.cls-65{fill:#ffffe3;}.cls-66{fill:#e0f4e4;}.cls-67{fill:#3e9a07;}</style><clipPath id="clip-path"><rect class="cls-1" width="450" height="150"/></clipPath><radialGradient id="radial-gradient" cx="225" cy="227.58" r="338.23" gradientUnits="userSpaceOnUse"><stop offset="0.09" stop-color="#fffad6"/><stop offset="0.7" stop-color="#fff6b1"/><stop offset="1" stop-color="#bdf"/></radialGradient></defs><g class="cls-2"><g id="Layer_1" data-name="Layer 1"><g class="cls-3"><rect class="cls-4" width="450" height="150"/><path class="cls-5" d="M389.79,139.65a7.73,7.73,0,0,0,3.66-2.27c.72-.84,2.25-3,.41-3.39a22.2,22.2,0,0,0-11.27,1.19,7.46,7.46,0,0,1-.56,2.29,11.51,11.51,0,0,1,5.67,1.25l1.54,1.2C389.05,139.7,389.23,139.61,389.79,139.65Z"/><path class="cls-5" d="M373.05,140.53c-4.36-2.84-11.56-.49-16.44-2.06-4.61-1.48-8.69-4.24-13.28-5.81-6-2.06-12.68-1.71-18.85-.64-3.82.66-7.91,2.07-11.87,2.25h0a11.88,11.88,0,0,1-8.06.24c-2.3-.88-4.51-2.14-7-1.21-4.89,1.84-8.86,2-14,2.23-2.19.12-5.18-1.14-7.21-.66a67.36,67.36,0,0,0-8,2.3c-2.72,1-5.53,2.13-8.49,2.1-2.77,0-5.56-.69-8.33-.55-2.57.14-5.23.69-7.8.52-2.76-.18-5.43-1.12-8.17-1.24-5.94-.27-11.74.19-17.59-1.16-2.92-.67-6-.1-9-.44s-6.23-.91-9.27-.61a60.31,60.31,0,0,0-7.08,1.27c2.21,1.95,5,3.47,7,3.61a21.32,21.32,0,0,1,8.53,2.48c1.91.94,3.26,1.44,5.27.87,3.18-.91,6.53-.89,9.77-1.54a30,30,0,0,1,8.45-.45c6.09.45,11.62.6,17.15,3.34,1.65-.07,3.23-.19,4.39-.17,4.93.09,9.5-1.32,14.44-1.32,2.44,0,4.95-1.12,7.38-.88s4.65.89,7,.84c3.05-.07,6.13-.31,9.14.34a33.87,33.87,0,0,0,6.55,1.12c5.35.08,10.67-.58,16-.6s9.76,1.48,14.86.22c3.88-1,10.07-.37,13.79,1,.95.36,2.73,1.54,3.7,1.28.74-.19,1.46-.42,2.19-.64,1.08-2.23,3.5-4,5.91-3.76,3.85.41,7.62,2.35,11.46,2.11a17.94,17.94,0,0,0,8.22-2.28c.48-.25.94-.52,1.41-.79.05-.12.12-.25.19-.4A6.51,6.51,0,0,1,373.05,140.53Z"/><path class="cls-6" d="M0,0V150H189l-1-.68c-4.94-3.28-10.13-7.68-11.47-13.76a7.68,7.68,0,0,1-.16-1.23c-.94-3.69,1.09-8.37,6.06-8.58,5.85-.24,11.36-2.82,17.23-3a66.92,66.92,0,0,1,9.27.61c3,.36,6,0,9.05.28s5.71,1.25,8.76,1.25,5.91-.21,8.82.07c2.65.25,5.56,1.3,8.17,1.24,2.1,0,4.16-.33,6.25-.44,2.78-.14,5.43.42,8.19.45,3.05,0,5.49-1.29,8.33-2.19a50.68,50.68,0,0,1,7.95-2c2.6-.4,4.87.64,7.35.51s5.4.13,8-.18c1.94-.23,4-1.57,5.89-2.07a15.93,15.93,0,0,1,7.91,0c1.08.3,2.33,1,3.55,1.3a4.8,4.8,0,0,1,2.85-.54c2.86.36,5.31-.77,8.1-1.2,3.32-.5,6.62-1.24,10-1.52,5.91-.49,13.22-.67,18.8,1.67,5.31,2.24,11,5.88,16.78,6.12,2.05.09,4.34.13,6.62.35l.2-.12c10.57-5.8,29.9-4.92,37,5.87,5.6,8.48-2.94,14.33-8.95,17.66H450V0Z"/><polygon class="cls-5" points="461.67 95.23 406.22 92.31 359.05 101.18 413.79 111.49 444.95 115.91 467 100.48 461.67 95.23"/><path class="cls-7" d="M9.24,152c10.57,2.65,21,5.9,31.72,7.79,19.8,1.91,99.69-49.13,197.4-53.57a83.67,83.67,0,0,0,13.61-.31c18.72-3,37-7.85,56-9.5a137.61,137.61,0,0,1,33.36,1.45c5.94.91,11.77,2.34,17.67,3.44a53,53,0,0,0,5.91.06c9.52-2,18.78-5.33,28.4-7,12.92-2.23,26.21-4.11,39.37-3.85A103.16,103.16,0,0,1,450,92.27V0H0V149.72C3.08,150.46,6.16,151.2,9.24,152Z"/><path class="cls-8" d="M90.5,112.29c-26.35-6-57.17-5.92-84-3.6-.55,0-6.53.47-6.53.51v40.52c3.08.74,6.16,1.48,9.24,2.25,10.57,2.65,21,5.9,31.72,7.79,12.26,1.18,47.58-17.94,95.9-33.73C135.55,126.46,116,118.06,90.5,112.29Z"/><path class="cls-9" d="M107,137.76c-.1-5.58-1-11.41-3.8-14A23.55,23.55,0,0,1,103,139Z"/><path class="cls-10" d="M101.4,139.52l5.35-1.67c-2.27-12-8.81-15.38-8.81-15.38C102.09,127.63,102.17,134.43,101.4,139.52Z"/><path class="cls-9" d="M101.52,139.48l3.14-1c.8-9.85-8.34-11.33-8.34-11.33C101.24,131,102.94,135.51,101.52,139.48Z"/><path class="cls-9" d="M119.6,133.86a21.6,21.6,0,0,1-4.21-14s-4,6.49.75,15.08Z"/><path class="cls-10" d="M100.85,139.68c-1.43-3.41-4.54-7-10-9.68,0,0,9.55-.74,12,9.06Z"/><path class="cls-10" d="M120.11,133.71c-.76-3.63-.24-8.37,2.73-13.63,0,0-9.37,5.13-5.83,14.59Z"/><path class="cls-10" d="M118.68,134.15a18.59,18.59,0,0,1-7.87-13.28,17.71,17.71,0,0,0,3.28,14.71Z"/><path class="cls-10" d="M110.66,136.64c-2.08-3.12-3.72-6.19-3.56-10.73,0,0-1.51,6.42.42,11.7Z"/><path class="cls-9" d="M114.54,135.44c-2.55-3.56-7.11-10.73-7-16.22a29.8,29.8,0,0,0,3.66,17.24Z"/><path class="cls-10" d="M112.59,136c-3-3.14-2.83-7.24-2.67-10.28,0,0-3.42,6.13-.68,11.32Z"/><path class="cls-10" d="M111,136.53c-3-2-6.83-5.23-7.29-8.88,0,0-.57,4.7,3.14,10.17Z"/><path class="cls-9" d="M195.31,112c.07-3.1-.3-6.17-1.86-7.69a11.35,11.35,0,0,1-.68,8.22Z"/><path class="cls-10" d="M191.69,112.71l3.44-.72c-1-6.57-4.75-8.77-4.75-8.77C192.63,106.14,192.41,109.8,191.69,112.71Z"/><path class="cls-9" d="M191.77,112.69l2-.43c.77-5.36-4.7-6.79-4.7-6.79C192,107.83,192.85,110.45,191.77,112.69Z"/><path class="cls-9" d="M202.48,110.46a11.28,11.28,0,0,1-2.39-7.06s-2.1,2.75.53,7.45Z"/><path class="cls-10" d="M191.32,112.78c-.75-2.09-2.56-4.35-5.94-6.21,0,0,6.18.3,7.28,5.93Z"/><path class="cls-10" d="M202.75,110.4a8.2,8.2,0,0,1,1-6.35,4.85,4.85,0,0,0-2.7,6.7Z"/><path class="cls-10" d="M202,110.56c-4.16-3.23-4.29-7.06-4.29-7.06-.59,2.41-.21,4.75,1.77,7.58Z"/><path class="cls-10" d="M197.49,111.5c-1.18-1.83-2.08-3.57-1.89-5.87a11.2,11.2,0,0,0,0,6.26Z"/><path class="cls-9" d="M199.73,111c-1.44-2-3.93-6-3.74-8.55a14,14,0,0,0,1.85,8.94Z"/><path class="cls-10" d="M198.62,111.26a6.64,6.64,0,0,1-1.44-5.49s-2.06,2.9-.53,5.9Z"/><path class="cls-10" d="M197.7,111.45c-1.74-1.26-3.95-3.24-4.1-5.18,0,0-.51,2.44,1.6,5.71Z"/><path class="cls-11" d="M49.83,86.52a78.69,78.69,0,0,0,12.66.08c11.88-2.25,31.66-3.36,43.74-4.18C166.78,78.27,204.32,99,208.06,99.74a84.74,84.74,0,0,0,13.13-.44c18.83-3.06,37.43-15.66,56.63-15.62,20.18,0,40.12,5.28,60,8.33,13.24,1.57,26.93,2.47,40.21,1.24a88.65,88.65,0,0,0,11.23-2.7c2.95-.93,5.88-1.93,8.75-3.08,2.72-1.24,5.46-2.41,8.24-3.52,10.12-4.13,22.4-5.14,33.22-3.75q5.21.67,10.49,1.7V0H0V78C16.9,78.82,33.19,83.63,49.83,86.52Z"/><path class="cls-12" d="M447.45,50.25a131.8,131.8,0,0,0-23.35-2.84C406,46.46,387.61,41.8,369.59,44q-5.46.67-10.89,1.39c-4.45,1.17-8.9,2.31-13.34,3.49-3.7,1-7.53,1.91-11.37,2.91,5.7-.31,11.4-.6,17.08-1,8.44-.61,16.81-1.5,25.29-1.88,17.79-.81,35.62,3.34,52.85,6.46,6.68,1.2,13.89,2.19,20.79,3.63V50.87Z"/><path class="cls-12" d="M177.44,70.36c-8.14-3.27-16-7.24-24.11-10.55-1.23-.5-2.46-1-3.7-1.45A92.41,92.41,0,0,0,135.77,56c-25.25-2.18-50.4-5.42-74.83.68a61.89,61.89,0,0,0,12.44.67c17.57-1.13,35.19,3.69,52.81,4.15,4.47.11,9.21.38,13.5,1.74,4,1.25,7.65,3.22,11.64,4.43,7.79,2.36,15.73,4.49,23.56,6.67a38.58,38.58,0,0,0,16.89.68A134.31,134.31,0,0,1,177.44,70.36Z"/><path class="cls-13" d="M334.84,0c-.57.66-2.64,1.17-4.14,1.82a.85.85,0,0,0,.17,1.62,530.83,530.83,0,0,0,60.61,8.28C386.73,17,374.66,13.2,369,17.13a.9.9,0,0,0,.35,1.64l64.61,9.84c-3.86,3.18-17.75,4.71-22.28,8.71a1.36,1.36,0,0,0,.77,2.37c9.9,1,29.49,4.45,37.59,6V0Z"/><path class="cls-14" d="M294.58,38.07a15.1,15.1,0,0,0,3-.82,11.13,11.13,0,0,0,2.92-1.43c.53,2.81,1.65,5.59,4,6.44,0,0-3.13,4.53-6.88,4.38s-6.24-4.07-6.24-4.07S293.61,41.77,294.58,38.07Z"/><path class="cls-15" d="M302.44,17.69a20.27,20.27,0,0,1-5.07-1.27c-1.88-.64-3.87-.82-5.75-1.44a11.11,11.11,0,0,1-1.18-.46c1.18-2.45,3.1-6.24,3.8-6.75a22.1,22.1,0,0,1,6.45-2.17c.82.06,4.7,2.82,5.34,3.58.46.54.62,5.63.68,8.56C305.28,17.77,303.85,17.79,302.44,17.69Z"/><path class="cls-16" d="M294.24,7.77l.18-.11a15.28,15.28,0,0,0,5.13,1.74c2.15.4,4,1,6.16.17a3.79,3.79,0,0,0,.42-.18c.38,1.11.52,5.65.58,8.35-1.43,0-2.86.05-4.27,0a20.27,20.27,0,0,1-5.07-1.27c-1.88-.64-3.87-.82-5.75-1.44a11.11,11.11,0,0,1-1.18-.46C291.62,12.07,293.54,8.28,294.24,7.77Z"/><path class="cls-17" d="M295.09,10.21c1.7-.68.15,3.41.06,5.62-1-.21-1.94-.39-2.9-.66C292.72,13.37,294.07,10.61,295.09,10.21Z"/><path class="cls-17" d="M302.4,17.69l-.77-.09-.17,0-.61-.11-.17,0-.67-.16-.07,0-.78-.23a21.34,21.34,0,0,0,1.06-5.21.49.49,0,0,1,.87-.29C302,12.73,302.28,16.71,302.4,17.69Z"/><path class="cls-18" d="M295,29s15.86,4.73,21.31-1.89c6.48-7.88-20.76-14.14-30.69-13.51s-18,6.36,4.78,13.06C293.84,27.62,295,29,295,29Z"/><path class="cls-19" d="M295.66,26.14S305,28.93,308.25,25c3.83-4.65-12.27-8.35-18.13-8s-10.61,3.75,2.82,7.71A6.2,6.2,0,0,1,295.66,26.14Z"/><path class="cls-20" d="M302.4,19.42S303,31.7,300,35.06s-12,3.91-13.45,2.82-3.21-5.08-2.89-5.4,4.51-9,4.81-10.93S289.78,17.21,291,17,301.89,16.71,302.4,19.42Z"/><path class="cls-21" d="M284.62,30.6a30.47,30.47,0,0,1,5.2-.86.8.8,0,0,0,.25.32c.58.58,2,.49,2.65.49a.46.46,0,0,0,.43-.32c1.82.59,3.39,1.43,4.28,1.78a1.79,1.79,0,0,0,2.07-1.41c.12-.5.23-.9.33-1.22h0c3-8.61.2-11.61.2-11.61a8.7,8.7,0,0,1,1.07.13h0A9.87,9.87,0,0,1,305.62,20a5.84,5.84,0,0,1,1.14,7.22c-.27.48-.56,1.05-.85,1.69-.86,2,.8,4.54.8,4.54a6.94,6.94,0,0,1-4.89,0c-.24,1.55-.68,3.14-1.54,3.72-1.87,1.29-10.12,4-13.72,3.76C286.56,41,279.94,35.32,284.62,30.6Z"/><path class="cls-21" d="M296.45,19.32s4.25,1.33,4.16,2.4-.45,1.69-1.22,1.36-4.12-1.3-4.25-1.67S295.74,19.08,296.45,19.32Z"/><path class="cls-21" d="M288.74,21.2a.87.87,0,0,1-.74-.73c-.11-.7-.19-1.84.26-1.93.65-.13,4.19-.06,4.2.65s-.41,1.91-.84,1.94A16.29,16.29,0,0,1,288.74,21.2Z"/><path class="cls-22" d="M299.16,25.13s-.84,3.49-3,2.9-.68-3.43-.68-3.43.05,2.29,1,2.2A4.12,4.12,0,0,0,299.16,25.13Z"/><path class="cls-22" d="M291,23.82s-.81,3.37-2.95,2.91c-1.73-.38-.19-3.23-.19-3.23s-.06,2.1.53,2A4.61,4.61,0,0,0,291,23.82Z"/><path class="cls-23" d="M289.06,43s-5.2.7-7.31,3-8.39,12.55-9.44,13.84-7.27.82-8.39,0l-2.87,5.46s7.5,4.42,10.85,4.46,7.74-6.22,7.74-6.22Z"/><path class="cls-24" d="M269.81,66.69c3.67-.15,5-2.89,6.23-6s3-7.84,5.79-10a19.61,19.61,0,0,1,3.7-2.54c.49-.25,1-.51,1.48-.73l-7.37,16.06s-4.4,6.25-7.74,6.22-10.85-4.46-10.85-4.46l.84-1.6C264.36,65.14,267.08,66.81,269.81,66.69Z"/><path class="cls-25" d="M293.86,31.54A3,3,0,0,1,291,32.8c-1.71-.24-1.46-1.66-1.46-1.66S290.87,32.43,293.86,31.54Z"/><path class="cls-26" d="M283.55,32.56c0-.09-.08-.18-.13-.27a5.8,5.8,0,0,1,1.2-1.69,29.86,29.86,0,0,1,5.2-.85.84.84,0,0,0,.25.31,1.79,1.79,0,0,0,1,.42,13.5,13.5,0,0,0-1.48,1.76,2.23,2.23,0,0,1-1.74,1.15,9.59,9.59,0,0,1-2.83.16,4.37,4.37,0,0,0,1.23,2A2.17,2.17,0,0,1,287.32,34s-.15,1.25-.16,2.22a5.78,5.78,0,0,0,2.84.92,7.85,7.85,0,0,0,.84-1.66s.13.86.18,1.63a8.47,8.47,0,0,0,2-.44c.44-.15.87-.32,1.3-.5a11.93,11.93,0,0,0,0-1.7,2.55,2.55,0,0,1,.88,1.3,14.79,14.79,0,0,0,1.61-.9c-1.59.06-4-.83-4.47-2.36a6.61,6.61,0,0,1-.21-2h.64a.46.46,0,0,0,.43-.32c1.81.6,3.39,1.43,4.28,1.78.46.18.88-.26,1.41-.79,0,0,0,.05,0,.07a4,4,0,0,0,.58,1.27c.51-.41,1.1-.71,1.61-1.17a5,5,0,0,0,.46-.46c-.08,1.73-.39,5-1.67,5.86-1.77,1.22-9.54,3.76-12.93,3.54,0,0-4.29-3.67-3.22-7.47C283.64,32.78,283.6,32.68,283.55,32.56Z"/><path class="cls-21" d="M284,28.1c.31,1.37,1.8,1.61,3.75.71a2.35,2.35,0,0,1,2.16.05.47.47,0,0,0-.16.32,1,1,0,0,0,.34.88l.12.09c-1.58.8-1.16,2.65-3.9,2.65C283.12,32.8,284,28.1,284,28.1Z"/><path class="cls-21" d="M292.88,30.14s3.21-2,4.39-.28a2.13,2.13,0,0,0,3,.59s-.9,4.09-4.36,3.39A3.39,3.39,0,0,1,292.88,30.14Z"/><path class="cls-27" d="M291.81,30.9a3.07,3.07,0,0,0,1.75-.4.79.79,0,0,0,.33-.64,1.45,1.45,0,0,0-.91-1.39.37.37,0,0,0-.45.22.36.36,0,0,0,.22.45.73.73,0,0,1,.44.72s0,0-.06.08a4.54,4.54,0,0,1-2.82.07c-.14,0-.16-.08-.17-.1-.12-.32,2.6-5.84,2.65-6a.35.35,0,0,0-.21-.45.35.35,0,0,0-.45.2s-3.15,5.74-2.73,6.54a1.08,1.08,0,0,0,.72.46A7.09,7.09,0,0,0,291.81,30.9Z"/><path class="cls-28" d="M302.66,27.18s1.45-2.33,2.87-1.33-.17,4.75-1.85,4.75c-1.34,0-1.62.3-1.62.3A10.3,10.3,0,0,0,302.66,27.18Z"/><path class="cls-27" d="M304.9,26.64a1.81,1.81,0,0,0-1.78,1.46c-.35,1.08-.18,2.17.95,1.5.77-.45,0-1.25,0-1.5C304.06,27.38,304.49,26.54,304.9,26.64Z"/><path class="cls-23" d="M296.55,44.13l8.35-2.9a64.18,64.18,0,0,0,6,2.9s6.74,8.21-1.15,15.8c-4.93,4.73-29.69-4.48-29.69-4.48s6.41-11.08,9-12.49a18,18,0,0,0,4.16-2Z"/><path class="cls-29" d="M281.08,84.07c-4.41-3.23-7.85-8.58-4.88-19,2.79-9.8,5.32-11.42,5.32-11.42s2.26.48,5.18,1c.74-3,1.75-8.18,1-11.63a9.1,9.1,0,0,1,2.17-.35s-.81,8.15-.4,12.42a59.69,59.69,0,0,0,6.86.72c2,0,3.64.24,5.36.43,1.32-3.44,4.51-12,4.42-14.45a6.37,6.37,0,0,1,2.06.64A36.62,36.62,0,0,0,306,56.62a44,44,0,0,0,5.72-.13S317.1,76,310.37,81.9c0,0,0,0,0,0a123.07,123.07,0,0,1-1.5,18.89,7.47,7.47,0,0,0,.77,3.77c1,2.29.65,10-1.75,17.6s-7.22,0-7.22,0-2.4-9.45-3.1-11.44a18.81,18.81,0,0,1-.82-10.09c.54-3.3-.25-7.77-.83-12.54l-.17,0c-.76,5.26-1.94,10.93-1.45,12.83.71,2.74,2.63,6.31-1.28,19.37,0,0-6.35,3.3-7.76.17s-3.55-11.72-3-15.08,1.49-5.24.86-8.52A115.87,115.87,0,0,1,281.08,84.07Z"/><path class="cls-30" d="M291.67,71.83a111.87,111.87,0,0,0,12.42-.07,50.28,50.28,0,0,0,5.17-.52c-3.75,2.4-9,2.4-13.34,1.93a54.78,54.78,0,0,1-8-1.57C289.16,71.7,290.41,71.78,291.67,71.83Z"/><path class="cls-30" d="M294,79c6.55.89,14,.62,19.39-3.2a10.51,10.51,0,0,1-3,6.08s0,0,0,0c0,.88,0,1.78-.07,2.69,0,.24,0,.49,0,.74s0,.71,0,1.06l-.06,1.47c0,.09,0,.17,0,.26a98.34,98.34,0,0,1-1.3,12.67,7.47,7.47,0,0,0,.77,3.77c.57,1.3.7,4.36.27,8.15h-1.24A60.76,60.76,0,0,1,307,122.2c-1.95,7.56-5.86,0-5.86,0s-2-9.45-2.53-11.44a22.07,22.07,0,0,1-.91-7.19,6.13,6.13,0,0,0,1.29,2c2,2,4.88,2.74,7.16,1-1.2-3.21-2-6-.88-9.54a32.08,32.08,0,0,0,1.39-8.91,7.85,7.85,0,0,0-5.22-.09,9.81,9.81,0,0,0-5,4.34c-.17-1.32-.35-2.68-.53-4.07h0a1,1,0,0,0,0-.17l-.17,0c-.09.58-.17,1.17-.27,1.75l0,.21c-.07.47-.15.94-.22,1.41l-.06.36h0c-.64,4-1.24,7.65-.87,9.1.56,2.17,1.88,4.86.47,12.36h-.91c-.32,2-.79,4.28-1.49,7,0,0-5.38,3.3-6.57.17s-3-11.72-2.55-15.08c0-.14.05-.28.07-.41a6.53,6.53,0,0,0,4.31,2.44,6.65,6.65,0,0,0,4.27-.77c0-.17,0-.34,0-.5-.26-2.68-1.27-5.36-1.36-8-.11-3.24,1-6.28,1.25-9.46a12.29,12.29,0,0,0-10,.71c-.26-1.71-.5-3.54-.64-5.35a13.71,13.71,0,0,1-6-10.88C280.47,76.89,289.13,78.37,294,79Z"/><path class="cls-31" d="M291.69,72.14c4.25.58,9.69,1,13.79-.51a62.8,62.8,0,0,0,8.15-3.69,39.1,39.1,0,0,1,.09,4.46c-3.64.26-7.2,1.72-10.84,2.14-4.14.48-8.39-.08-12.53-.46a46.56,46.56,0,0,1-9.79-2.28,17,17,0,0,1-5.28-2.35c.11-.84.27-1.73.49-2.67C276.9,69.12,287.54,71.56,291.69,72.14Z"/><path class="cls-22" d="M293.36,138.19c1.6-2.12,5.26-4.51,6.92-8,.82-1.7-2.07-17.19-2.07-17.19s8.23,1.25,11.51-1h.17a78.56,78.56,0,0,1-1.31,16.16c-.13.76,1,2.61,1.24,3,.29.59.39,2.07-.33,6.31h-3.77v-1.4s-3.68,2.4-4.62,3.28a10.06,10.06,0,0,1-6.7,1.43A1.65,1.65,0,0,1,293.36,138.19Z"/><path class="cls-23" d="M313.42,62.51a6.79,6.79,0,0,0-.67-1.29,24.66,24.66,0,0,1-1.4-4.43c1-3.83,1.46-8.94-.48-12.45l0-.21s13.39,9.94,14.33,20.26-21.16,10.09-21.16,10.09v-3.6S313.86,64.5,313.42,62.51Z"/><path class="cls-24" d="M313.42,62.51a6.79,6.79,0,0,0-.67-1.29,24.66,24.66,0,0,1-1.4-4.43c.21-.84.4-1.75.54-2.69.63,1.36,1.25,2.72,1.91,4.06a11.24,11.24,0,0,1,1.54,4c.21,3.41-2.54,4.58-5.22,6A29.15,29.15,0,0,1,305.43,70C308.1,68.13,313.76,64,313.42,62.51Z"/><path class="cls-24" d="M316.67,70.64c3.17-2.19,5-5.22,4.45-9.14s-2.78-7.55-4.48-11c-.12-.24-.23-.48-.35-.73,3.53,3.5,7.85,8.83,8.35,14.28s-5.95,7.6-11.5,8.51A23.26,23.26,0,0,0,316.67,70.64Z"/><path class="cls-32" d="M304.2,115.79s.32,14.47-1.45,14.75-2.43-14.8-2.43-14.8A7.44,7.44,0,0,0,304.2,115.79Z"/><path class="cls-22" d="M276.59,137.84c1.74-2,5.64-4.22,7.52-7.55.93-1.64-.94-17.29-.94-17.29s8.12,1.78,11.55-.26h.17a78.77,78.77,0,0,1-2.36,16c-.18.75.86,2.67,1,3.09.25.6.26,2.09-.74,6.28l-3.6-.14.1-1.41a52.89,52.89,0,0,0-5.09,2.93,10,10,0,0,1-6.78,1A1.65,1.65,0,0,1,276.59,137.84Z"/><path class="cls-32" d="M288.5,116s-.39,14.47-2.14,14.73-1.69-14.81-1.69-14.81A7.25,7.25,0,0,0,288.5,116Z"/><polygon class="cls-33" points="305.44 40.98 301.5 39.23 296.82 44.04 299.35 47.36 305.44 40.98"/><polygon class="cls-33" points="292.87 46.64 296.82 44.04 293.49 41.23 290.95 42.23 292.87 46.64"/><polygon class="cls-34" points="264.39 38.76 266.03 139.37 262.51 139.37 262.28 38.76 264.39 38.76"/><path class="cls-22" d="M253.83,28.71s1.92-6.67,1.53-9.13-.74-4-.74-4a6.28,6.28,0,0,1,2.62,6.06c-.4,4.3-2.7,12.25,1.91,13.75s2.16-11.69,3.25-19.61c0,0,.92.56,1.07,7s-.88,13.85,3.85,13.09,2.43-9.67,1.92-11.43-1.25-6.75,1.6-8.56c0,0-1,4.32,0,7.07s7.32,15-6.21,17.53L265,44.6h-3.29l.32-4.12C259.15,40,253.07,37.94,253.83,28.71Z"/><path class="cls-35" d="M267.67,59.73s1,5.75-7.62,7.34c0,0-3.4-8.22-3.05-11.38s0-5.65.82-7.14a6.66,6.66,0,0,1,4.52-3.24c2-.32,6,.07,4.08,2,0,0,1.69,1.14.11,2.35,0,0,.85,1.58-.5,2.08,0,0,.47,1.87-1.26,1.87s-3,.15-1.93,2.67S265,59.52,267.67,59.73Z"/><path class="cls-36" d="M266.53,49.71s.85,1.58-.5,2.08c0,0,.47,1.87-1.26,1.87s-3,.15-1.93,2.67,2.06,3.12,4.44,3.37a6,6,0,0,1-.79,2.88,7,7,0,0,1-4.32,3.07V65.6c.05-3.45,0-7.26-1.76-10.36a5.15,5.15,0,0,0,.55-1.16,13.32,13.32,0,0,0,.45-6,10.86,10.86,0,0,0-.56-2.3,5.49,5.49,0,0,1,1.49-.46c2-.32,6,.07,4.08,2C266.42,47.36,268.11,48.5,266.53,49.71Z"/><path class="cls-34" d="M263,53.8c.25-.22,1.57-.14,1.68-.15l.25,14.95h-2.53l0-13.95A3.83,3.83,0,0,1,263,53.8Z"/><path class="cls-37" d="M263.38,64.9a9.67,9.67,0,0,0-1,1.64l0-11.89a3.83,3.83,0,0,1,.63-.85c.25-.22,1.57-.14,1.68-.15l.17,10.12A4,4,0,0,0,263.38,64.9Z"/><path class="cls-38" d="M262.75,47.4l3.8-.19v.25a30.68,30.68,0,0,1-3.87.36C262.52,47.67,262.26,47.57,262.75,47.4Z"/><path class="cls-38" d="M262.82,49.65h3.8v.24a31.81,31.81,0,0,1-3.87.18C262.6,49.92,262.33,49.82,262.82,49.65Z"/><path class="cls-38" d="M262.75,51.61h3.34a2.83,2.83,0,0,0,0,.29,22.24,22.24,0,0,1-3.39.13C262.52,51.89,262.26,51.79,262.75,51.61Z"/><path class="cls-24" d="M271.81,63.25c-.37-.22-.52-1.79-.23-3a1.66,1.66,0,0,0,.73-.45l.3-.4c1.1.14,3.11.44,2.66.64a10.46,10.46,0,0,1-2.61.2s1.88,2.23,1.26,2.29-1.67-2-1.67-2S272.28,63.55,271.81,63.25Z"/><path class="cls-24" d="M316.82,62a5.28,5.28,0,0,1-2.16.88s2.81,3.07,1.08,2A6.19,6.19,0,0,1,314,63.16s.27,2.34-.26,3.2-.38-2.48-.34-3.53a.87.87,0,0,0,0-.32S317.68,61.28,316.82,62Z"/><path class="cls-39" d="M297.08,81a15.28,15.28,0,0,0,1.62-1.87c.18-.42-.06-5-.82-4.67s-.15-.6.27-.75c0,0,.94,0,1.12.27a34.69,34.69,0,0,1,.05,3.87,4.49,4.49,0,0,0,1.32-.51,3.52,3.52,0,0,1-1.31,1.16c0,.34,0,.55.09.55a12.58,12.58,0,0,0,1.91-.22A9.18,9.18,0,0,1,299.49,80a12.46,12.46,0,0,1-1.06,1.82,4.87,4.87,0,0,0,.13-1.61A4.55,4.55,0,0,1,297.08,81Z"/><path class="cls-39" d="M293.12,81a17.83,17.83,0,0,0,1.93-1.69c.25-.38.64-4.73-.19-4.45s-.07-.58.38-.68c0,0,.95.08,1.1.38a33.53,33.53,0,0,1-.49,3.6,5.36,5.36,0,0,0,1.38-.39,3.86,3.86,0,0,1-1.46,1c0,.32,0,.51,0,.51a13.4,13.4,0,0,0,1.91-.09,10.41,10.41,0,0,1-2,1,13.14,13.14,0,0,1-1.32,1.65,4.35,4.35,0,0,0,.35-1.5A5.38,5.38,0,0,1,293.12,81Z"/><path class="cls-40" d="M295.17,71.57s1.89,3.53,3,3.85,1.36.1,1.63-.36,1.73-4.32.16-5S294.71,71.19,295.17,71.57Z"/><path class="cls-41" d="M297.81,71.23a4.15,4.15,0,0,1-1.74,3.6,3.06,3.06,0,0,1-1.83.33c-.75-.09-.74-1-.7-1.57a10.58,10.58,0,0,0-.63-3.52S297.74,70,297.81,71.23Z"/><path class="cls-21" d="M301.73,58.84s1.39-1.91,1.11-2.88-.4-2.37.24-2.69,1.08.65,1.29,1.86c0,0-1.48-4.59.83-4.54s.95,4.35.95,4.35-.43-4.7,1.6-5.32,1.71,3.2.24,5.42c0,0,2.69-4.12,3.56-2.22s-2.66,3.7-2.66,3.7,2.6-1.75,3.14-.06-1.49,2.1-2.43,2.55a5.41,5.41,0,0,0-1.57,1.2s-2.46,2-3.82,1.44S299.4,59.85,301.73,58.84Z"/><path class="cls-40" d="M292.47,57.35a5.24,5.24,0,0,0,6.35,3,1,1,0,0,0,.42-1.54c-.67-1.13-.51-2.48,1.36-1.67,0,0,.84.22.63,2.7,0,0-.71-2.86,1.14-2.7,0,0,.78.33.45,2.65,0,0-.32-4,2.17-3.43s-.59,4-.59,4,1.7-2.83,3.09-1.53S306,61.16,306,61.16s2.69-2.08,3.91-.18-2.36,3-3.65,3.1c0,0,3.07-1.74,2.68.37a2.74,2.74,0,0,1-2.39,2.26s2.58-.39.68,2-7.56,4.06-10.54,4-9.81-3.14-9.71-6.47,1.45-3.89,2.13-5.69S291,55,292.47,57.35Z"/><path class="cls-42" d="M288.72,53.22c-.1,0,.56-.56.07-1.14s-.37-1.83.55-1.53c0,0,.31.08.3,1.09,0,0-.35-1.62.69-1.67s.39,1.51.39,1.51.16-2,1.48-1.71-.56,1.78-.56,1.78,1-1.63,2-1.31a.73.73,0,0,1,.26,1.19,3.79,3.79,0,0,1-1,.66s1-.82,1.38.09-.84,1.07-1.64.77a.74.74,0,0,0-1.05.36S289.12,53.29,288.72,53.22Z"/><path class="cls-43" d="M289.19,52.64a.74.74,0,0,1,.46-.55h0l.42-.15a1.77,1.77,0,0,1,1.28,0,3.3,3.3,0,0,0,2.27.28l.38-.16.06.11c.33.83-.77,1-1.49.7a.68.68,0,0,0-1,.33s-2.28,0-2.65-.08C288.92,53.12,289.13,52.92,289.19,52.64Z"/><path class="cls-44" d="M302.49,70.84s0,.06,0,.1c-1,.15-1.77.54-2.75.75-.45.1-.88.24-1.31.38l-.1-.15a10.46,10.46,0,0,1-1.78.11,14.22,14.22,0,0,1-7.85-3.6,8.24,8.24,0,0,0,3.28,0,6.81,6.81,0,0,0,5.06-4,24.18,24.18,0,0,1,4.32.53c1.39.31,2.66,1.68,4,2.11.23.07,2.57-.74,1,1.3A9.22,9.22,0,0,1,302.49,70.84Z"/><path class="cls-21" d="M288.5,53.31a2.7,2.7,0,0,1,2.21-1c1.56,0,2.32,1.71,1.34,3.31,0,0-.25.5.61,1.61A3.69,3.69,0,0,0,296,58.84c1.18-.21,1.66,1.63,0,2.32s-2.42,0-2.42,0,1.64,1.59.12,2.53c-1.81,1.12-2.06-1.59-2.06-1.59s.3,2.69-1.26,2.76-1.16-2-1.16-2S289,65.1,287,64.52s.19-2.91.66-3.63,1.81-3.06.61-5C287.64,54.88,287.7,53.32,288.5,53.31Z"/><path class="cls-45" d="M289.58,56.83c-.34.05-.26-.19-.6-.21l-.18,0a2.53,2.53,0,0,0-.35-1c-.46-.75-.41-1.94.21-1.95a2.05,2.05,0,0,1,1.69-.74,1.35,1.35,0,0,1,1.36,1.36,2.66,2.66,0,0,1-.88,1.89A5.71,5.71,0,0,1,289.58,56.83Z"/><path class="cls-21" d="M295.17,64.75A9.52,9.52,0,0,1,302,62.37c4.09.27,3.28,1,4.64.9a2.31,2.31,0,0,1-2.07,2.07,7.35,7.35,0,0,1,.92.35c.24.14-.31,1.35-2.26,1.23,0,0,1.27.36-.13,1C301.15,68.77,297.67,68.21,295.17,64.75Z"/><path class="cls-46" d="M301.3,65.37a7.79,7.79,0,0,1-1.61.66,3.23,3.23,0,0,1-3.53-1.17l0,0a8,8,0,0,1,5.66-2,11.45,11.45,0,0,1,2.27.32A10.36,10.36,0,0,1,301.3,65.37Z"/><path class="cls-47" d="M300.53,64.57s3.21-.73,5,1.17c0,0,.09.14-.1.38a6.64,6.64,0,0,0-2.95-1.34A5.27,5.27,0,0,1,300.53,64.57Z"/><path class="cls-47" d="M300.4,66s3.22.22,3.34,1.41a.44.44,0,0,1-.21.29,2.83,2.83,0,0,0-1.75-1.19C300.59,66.23,300.4,66,300.4,66Z"/><path class="cls-22" d="M291.18,53.31s-.06,1.13-.83,1.21-.9-1.14-.67-1.28.23.73.5.85S291.12,52.85,291.18,53.31Z"/><path class="cls-48" d="M288.24,55.25s1,1.94-.33,2.2S287.42,55.32,288.24,55.25Z"/><path class="cls-42" d="M288.64,55.19s2,1.52.61,2.23-.81-2.16-.81-2.16Z"/><path class="cls-49" d="M289.2,54s.63,1.42-.82,1.67-2.25-.76-2.6-.82C285.78,54.8,288.93,53.76,289.2,54Z"/><path class="cls-49" d="M285.44,55.08a3.72,3.72,0,0,1,3.21-1.94,1.63,1.63,0,0,1,.6,1,1.23,1.23,0,0,1-1.29.7C286.91,54.77,286.32,54.57,285.44,55.08Z"/><path class="cls-40" d="M287.93,54.62a1.19,1.19,0,0,0,1.28-.66s.07.22.08.27-.28.59-1.33.57-1.64-.23-2.52.28C285.44,55.08,285.78,54.41,287.93,54.62Z"/><path class="cls-35" d="M306.3,68.53s3.45,4.19.32,8.21c0,0-10.17-1.76-10.72-1.48s-5.35.94-5.28-.78c0,0,0-.37.55-.47,0,0-1.79-.26-.79-1.53,0,0-1.48-.39-.45-1.47,0,0-1.33-.66-.4-1.49.32-.28,1.47,0,1.85.19a5.12,5.12,0,0,0,3,.29c1.43-.37-.16-1.82-.28-2.66s1.31-2.54,2.17.21.49,3.58,1.8,3S305.09,68.9,306.3,68.53Z"/><path class="cls-36" d="M294.66,72a5,5,0,0,0,.82-5.64,1,1,0,0,1,.46.35,3.84,3.84,0,0,1,.37.87c.66,2.1.6,3.07,1.11,3.18.12.06,2.71,2,9.7.09a5.74,5.74,0,0,1-.86,5.67s-9.68-1.68-10.2-1.42a9.59,9.59,0,0,1-3.3.31A4.47,4.47,0,0,0,294.66,72Z"/><path class="cls-50" d="M453.4,84.08s-3,8.64-2.41,15.12l-37.49,9.17L413.91,75Z"/><path class="cls-51" d="M442.22,87.16c-4.22-.59-8.41-1.31-12.62-1.93a59.42,59.42,0,0,0-12.77-.77c-1,.06-2,.1-3,.2l.12-9.65,39.49,9.07s-.66,1.93-1.3,4.64C448.84,88.06,445.51,87.63,442.22,87.16Z"/><path class="cls-52" d="M442.31,84.39c-.43,2.28-.78,13.72-.77,17.12l-1.8.44c.19-3.12.93-16.94,1.2-20.73l1.84.42C442.66,82.57,442.47,83.49,442.31,84.39Z"/><path class="cls-52" d="M427.1,78l1.69.39c-.1,4.91-.4,9.81-.56,14.71-.13,3.89-.15,7.77-.14,11.66l-1.79.44C426.31,103.47,427.38,82.5,427.1,78Z"/><path class="cls-53" d="M357.19,75.78s1.86,20.83,1.86,25.4c0,0,42.39,4,54.45,7.19l.93-31.94-37.12-22Z"/><polygon class="cls-54" points="431.74 66.87 455.25 84.86 417.98 76.25 377 52.24 431.74 66.87"/><polygon class="cls-55" points="417.65 76.06 415.7 79.46 454.51 86.75 455.25 84.86 417.65 76.06"/><polygon class="cls-56" points="410.94 82.11 410.94 101.3 394.16 99.27 393.85 79.89 410.94 82.11"/><polygon class="cls-56" points="374.02 78.47 374.49 97.41 361.48 96.24 359.96 77.91 374.02 78.47"/><path class="cls-57" d="M393.92,84.57l3.33.37-.06,3.71L394,88.3v.49l3.2.36-.06,3.54-3.08-.35v.5l3.07.34-.06,3.45-3-.33v.5l2.95.33,0,2.48.59.07V97.19l4.23.47,0,2.53.59.07V97.72l3.74.41,0,2.58.52.07V98.19l4.32.48v-.5l-4.32-.48V94.24l4.32.48v-.5l-4.32-.48V90.19l4.32.48v-.49l-4.32-.48V86l4.32.48V86l-4.32-.48V81.55l-.26,0-.05,3.93L402.4,85V81l-.3,0L402,85l-4.42-.49V80.38l-.3,0-.06,4.11-3.34-.38Zm8.48,9.2,3.79.42-.05,3.45-3.74-.41Zm0-4,3.85.43-.05,3.54-3.8-.42Zm0-4.21,3.9.43-.05,3.72-3.85-.43Zm-4.78,7.72,4.29.48-.05,3.45-4.24-.47Zm0-4,4.35.49-.05,3.54-4.3-.48Zm0-4.21,4.41.49,0,3.71-4.36-.48Z"/><path class="cls-57" d="M362.64,82.37l.13,3.76L360.63,86l0,.5,2.12.11.12,3.47-2-.1,0,.47,1.92.11.12,3.29-1.76-.11,0,.47,1.74.1.07,2.06.48,0-.1-2.08,3.51.21,0,2.18.47.05-.06-2.2,3.11.18v2.29l.43,0,0-2.31,3.45.2v-.46l-3.45-.2L370.92,91l3.42.19v-.48l-3.41-.19-.06-3.49,3.38.17v-.5l-3.37-.17-.06-3.79,3.33.16v-.51l-3.33-.16-.06-3.91h-.23l0,3.91-3.43-.17L367,78.19h-.27l.07,3.88-3.85-.19L362.76,78h-.27l.13,3.85-2.34-.12,0,.51Zm4.71,8.46,3.2.17,0,3.3-3.12-.18Zm-.12-4,3.31.17v3.49l-3.21-.17Zm-.12-4.28,3.41.17,0,3.78-3.32-.17Zm-3.78,8,3.61.2.06,3.3-3.52-.21Zm-.18-4,3.72.2.06,3.48-3.62-.19ZM363,82.38l3.83.19.07,3.77-3.73-.19Z"/><polygon class="cls-58" points="411.98 81.41 411.98 83.24 393.1 80.78 393.1 79.12 411.98 81.41"/><polygon class="cls-58" points="411.68 100.7 411.68 102.54 392.79 100.08 392.79 98.42 411.68 100.7"/><polygon class="cls-58" points="374.63 78.21 374.63 79.96 359.07 78.39 359.11 77.23 374.63 78.21"/><polygon class="cls-58" points="374.91 96.71 374.91 98.42 360.78 96.94 360.9 95.96 374.91 96.71"/><path class="cls-51" d="M377.39,59.77l-19.76,21c-.25-3-.44-5-.44-5L377.31,54.4l37.12,22-.15,8Z"/><polygon class="cls-58" points="353.8 75.78 356.52 77.61 377.31 55.45 415.7 79.46 417.98 76.25 377 52.24 353.8 75.78"/><path class="cls-59" d="M384,70.76s.84-5.23-3.91-5.47c-3.69-.18-3.26,5.13-3.26,5.13Z"/><polygon class="cls-60" points="376.87 68.16 379.91 68.23 379.96 65.17 380.62 65.03 380.65 68.25 384.04 68.33 384.04 69.06 380.65 68.89 380.65 70.76 379.91 70.76 379.91 68.85 376.87 68.69 376.87 68.16"/><path class="cls-58" d="M375.9,71l8.82.47s.55-7.1-4.49-7.13S375.9,71,375.9,71Zm4.35-5.7c3.68,0,3.28,5.21,3.28,5.21l-6.44-.34S376.57,65.3,380.25,65.33Z"/><path class="cls-61" d="M390.46,104.63c-4.68-.59-9.1-1.1-13.46-1.59l-.34-19.8,13.8,1.62Z"/><path class="cls-62" d="M383.7,84.06v19.75l-1.07-.13V83.94Z"/><polygon class="cls-63" points="391.57 83.84 391.44 86.46 375.21 84.42 375.35 81.68 391.57 83.84"/><path class="cls-64" d="M381.32,94.66c0,.43.2.79.45.79s.45-.36.45-.79-.2-.79-.45-.79S381.32,94.23,381.32,94.66Z"/><ellipse class="cls-64" cx="384.78" cy="95.05" rx="0.45" ry="0.79"/><path class="cls-65" d="M232.71,58.57A16.87,16.87,0,1,1,215.84,41.7,16.87,16.87,0,0,1,232.71,58.57Z"/><path class="cls-66" d="M438.16,29.89c-9.44,0-17.65.29-27.85-.27-3.62-.2-10-2.15-6.57-4.59,2.89-2,10.14.24,13,2.13-3.1-1.8-11-5.64-9.07-9.47,1.75-3.48,12.69,5.06,13.17,7.94,0,0-5-12.95,1.53-13.6,7.93-.78,4.59,11.79,3.17,13.65a13.41,13.41,0,0,1,1.77-2.75c1-1.23,3-3,4.94-1.8A2.68,2.68,0,0,1,433.42,23c.21,1.89-2.35,3.11-3.76,3.71,3.1-1,8.22-1.47,11.44-.29C443.25,27.17,442.92,29.9,438.16,29.89Z"/><path class="cls-66" d="M155,44.77c-11.27,0-21.07.34-33.26-.33-4.32-.23-12-2.56-7.84-5.49,3.45-2.43,12.11.29,15.5,2.55-3.71-2.15-13.13-6.73-10.83-11.31,2.08-4.15,15.16,6,15.72,9.48,0,0-6-15.46,1.83-16.23,9.47-.94,5.49,14.07,3.78,16.29A16.2,16.2,0,0,1,142,36.46c1.23-1.48,3.55-3.64,5.9-2.16a3.16,3.16,0,0,1,1.42,2.2c.26,2.26-2.8,3.72-4.49,4.42,3.7-1.17,9.82-1.75,13.67-.34C161.09,41.52,160.7,44.77,155,44.77Z"/><path class="cls-9" d="M427.09,150h6.73c2.45-9.31,3.58-18.94.27-24.71A44.66,44.66,0,0,1,427.09,150Z"/><path class="cls-67" d="M423.17,150h9.59c1.57-20.91-7.52-29.89-7.52-29.89C429.38,130.56,426.82,141.55,423.17,150Z"/><path class="cls-9" d="M423.81,150h5.49c4.37-15.39-9.59-22.34-9.59-22.34C425.53,135.94,426.7,143.89,423.81,150Z"/><path class="cls-67" d="M420.47,150h4.41c-.63-16.66-16.53-20.29-16.53-20.29C415.58,136.53,419.22,143.67,420.47,150Z"/><path class="cls-67" d="M450,140.72a33.44,33.44,0,0,1-.72-16.3c-4.31,8-5.65,15.93-3.1,25.58H450Z"/><path class="cls-67" d="M434,150h5.42c-1.5-5.83-2.11-11.6.35-18.6C439.81,131.4,434.53,140.37,434,150Z"/><path class="cls-9" d="M447,150c-2.54-8.3-5.6-21.59-2.59-30.36A56,56,0,0,0,440.88,150Z"/><path class="cls-67" d="M442.94,150c-1.94-6.38.28-12.56,2-17.28,0,0-8,7.64-7.81,17.28Z"/><path class="cls-67" d="M438.85,150c-3.67-5.08-7.13-11.61-6.1-17.35,0,0-3.09,6.93-.74,17.35Z"/><path class="cls-13" d="M118.74,2.88q7-1.42,14.09-2.88H0V51.25c5.44-.26,11,.35,16.48.67,12.71.74,29.54.61,42.67-1.48a.93.93,0,0,0,.17-1.79,56.82,56.82,0,0,0-14.08-3.19,4.71,4.71,0,0,1,3-4,15.22,15.22,0,0,1,5.21-.89c7-.43,29.24-.63,39.51-2.21a1,1,0,0,0,.14-1.88c-13-4.07-40.74-5.74-51.73-6.37L12,28.41c12.79-3.82,25.62-7.52,38.54-10.89C73.06,11.65,95.9,7.48,118.74,2.88Z"/></g></g></g></svg>